<?xml version="1.0" encoding="UTF-8" standalone="no"?>
<!DOCTYPE svg PUBLIC "-//W3C//DTD SVG 1.1//EN" "http://www.w3.org/Graphics/SVG/1.1/DTD/svg11.dtd">
<svg xmlns="http://www.w3.org/2000/svg" xmlns:xlink="http://www.w3.org/1999/xlink" version="1.1" width="646pt" height="333pt" viewBox="0 0 646 333">
<g enable-background="new">
<clipPath id="cp0">
<path transform="matrix(1,0,0,-1,0,333)" d="M 0 0 L 646 0 L 646 333 L 0 333 Z "/>
</clipPath>
<g clip-path="url(#cp0)">
<path transform="matrix(1,0,0,-1,0,333)" d="M 0 0 L 646 0 L 646 333 L 0 333 Z " fill="#ffffff"/>
<path transform="matrix(1,0,0,-1,0,333)" d="M 0 0 L 646 0 L 646 333 L 0 333 Z " fill="#ffffff"/>
<path transform="matrix(1,0,0,1,-161,-366)" stroke-width="2" stroke-linecap="round" stroke-linejoin="round" fill="none" stroke="#000000" d="M 256.1853 438.9872 L 471.1853 438.9872 C 473.3944 438.9872 475.1853 440.7781 475.1853 442.9872 L 475.1853 477.9872 C 475.1853 480.1964 473.3944 481.9872 471.1853 481.9872 L 256.1853 481.9872 C 253.9761 481.9872 252.1853 480.1964 252.1853 477.9872 L 252.1853 442.9872 C 252.1853 440.7781 253.9761 438.9872 256.1853 438.9872 Z M 256.1853 438.9872 "/>
<text xml:space="preserve" transform="matrix(1 0 0 1 -161 -366)" font-size="23" font-family="Avenir"><tspan y="467.9872" x="299.0898 311.8778 325.5398 338.3278 346.4238 357.5098 370.2978 376.6918 387.7778 401.4398 415.4928">Source code</tspan></text>
<path transform="matrix(1,0,0,1,-161,-366)" stroke-width="2" stroke-linecap="round" stroke-linejoin="round" fill="none" stroke="#000000" d="M 256.1853 517.4872 L 471.1853 517.4872 C 473.3944 517.4872 475.1853 519.2781 475.1853 521.4872 L 475.1853 556.4872 C 475.1853 558.6964 473.3944 560.4872 471.1853 560.4872 L 256.1853 560.4872 C 253.9761 560.4872 252.1853 558.6964 252.1853 556.4872 L 252.1853 521.4872 C 252.1853 519.2781 253.9761 517.4872 256.1853 517.4872 Z M 256.1853 517.4872 "/>
<text xml:space="preserve" transform="matrix(1 0 0 1 -161 -366)" font-size="23" font-family="Avenir"><tspan y="546.4872" x="294.6738 305.32279 318.98478 330.92179 343.70979 356.49778 362.89179 373.1038 381.6138 390.1238 395.6438 408.4318 422.4848">Token strings</tspan></text>
<path transform="matrix(1,0,0,1,-161,-366)" stroke-width="3" stroke-linecap="round" stroke-linejoin="round" fill="none" stroke="#000000" d="M 363.6853 482.9872 L 363.6853 505.0672 "/>
<path transform="matrix(1,0,0,-1,0,333)" d="M 202.6853 187.2128 L 205.2053 193.9328 L 200.1653 193.9328 Z M 202.6853 187.2128 "/>
<path transform="matrix(1,0,0,1,-161,-366)" stroke-width="3" stroke-linecap="butt" stroke-miterlimit="10" stroke-linejoin="miter" fill="none" stroke="#000000" d="M 363.6853 511.7872 L 366.2053 505.0672 L 361.1653 505.0672 Z M 363.6853 511.7872 "/>
<path transform="matrix(1,0,0,1,-161,-366)" stroke-width="2" stroke-linecap="round" stroke-linejoin="round" fill="none" stroke="#000000" d="M 260.1853 591.7372 L 471.1853 591.7372 C 473.3944 591.7372 475.1853 593.5281 475.1853 595.7372 L 475.1853 630.7372 C 475.1853 632.9464 473.3944 634.7372 471.1853 634.7372 L 260.1853 634.7372 C 257.9761 634.7372 256.1853 632.9464 256.1853 630.7372 L 256.1853 595.7372 C 256.1853 593.5281 257.9761 591.7372 260.1853 591.7372 Z M 260.1853 591.7372 "/>
<text xml:space="preserve" transform="matrix(1 0 0 1 -161 -366)" font-size="23" font-family="Avenir"><tspan y="620.7372" x="286.2088 296.8578 310.51979 322.4568 335.24479 348.03279 354.4268 367.21479 380.00279 399.5988 413.6518 426.4398 434.9498">Token numbers</tspan></text>
<path transform="matrix(1,0,0,1,-161,-366)" stroke-width="3" stroke-linecap="round" stroke-linejoin="round" fill="none" stroke="#000000" d="M 364.2913 561.4872 L 364.7717 579.3214 "/>
<path transform="matrix(1,0,0,-1,0,333)" d="M 203.9527 112.9611 L 206.2908 119.7465 L 201.2526 119.6108 Z M 203.9527 112.9611 "/>
<path transform="matrix(1,0,0,1,-161,-366)" stroke-width="3" stroke-linecap="butt" stroke-miterlimit="10" stroke-linejoin="miter" fill="none" stroke="#000000" d="M 364.9527 586.0389 L 367.2908 579.2535 L 362.2526 579.3892 Z M 364.9527 586.0389 "/>
<path transform="matrix(1,0,0,1,-161,-366)" stroke-width="3" stroke-linecap="round" stroke-linejoin="round" fill="none" stroke="#000000" d="M 665 571.25 L 665 608.9372 "/>
<path transform="matrix(1,0,0,-1,0,333)" d="M 504 84.46276 L 506.1 90.06276 L 501.9 90.06276 Z M 504 84.46276 "/>
<path transform="matrix(1,0,0,1,-161,-366)" stroke-width="3" stroke-linecap="butt" stroke-miterlimit="10" stroke-linejoin="miter" fill="none" stroke="#000000" d="M 665 614.5372 L 667.1 608.9372 L 662.9 608.9372 Z M 665 614.5372 "/>
<path transform="matrix(1,0,0,1,-161,-366)" stroke-width="2" stroke-linecap="round" stroke-linejoin="round" fill="none" stroke="#000000" d="M 577.5 439.75 L 752.5 439.75 C 754.7091 439.75 756.5 441.5409 756.5 443.75 L 756.5 482.75 C 756.5 484.9591 754.7091 486.75 752.5 486.75 L 577.5 486.75 C 575.2909 486.75 573.5 484.9591 573.5 482.75 L 573.5 443.75 C 573.5 441.5409 575.2909 439.75 577.5 439.75 Z M 577.5 439.75 "/>
<text xml:space="preserve" transform="matrix(1 0 0 1 -161 -366)" font-size="23" font-family="Avenir"><tspan y="470.75" x="604.5215 618.57449 638.1705 652.22348 665.0115 679.06448 693.11746 698.63748 711.4255">Embedding</tspan></text>
<path transform="matrix(1,0,0,1,-161,-366)" stroke-width="2" stroke-linecap="round" stroke-linejoin="round" fill="none" stroke="#000000" d="M 577.5 523.25 L 752.5 523.25 C 754.7091 523.25 756.5 525.0409 756.5 527.25 L 756.5 566.25 C 756.5 568.4591 754.7091 570.25 752.5 570.25 L 577.5 570.25 C 575.2909 570.25 573.5 568.4591 573.5 566.25 L 573.5 527.25 C 573.5 525.0409 575.2909 523.25 577.5 523.25 Z M 577.5 523.25 "/>
<text xml:space="preserve" transform="matrix(1 0 0 1 -161 -366)" font-size="23" font-family="Avenir"><tspan y="554.25" x="639.6655 653.7185 672.0265">RNN</tspan></text>
<path transform="matrix(1,0,0,1,-161,-366)" stroke-width="3" stroke-linecap="round" stroke-linejoin="round" fill="none" stroke="#000000" d="M 665 487.75 L 665 510.83 "/>
<path transform="matrix(1,0,0,-1,0,333)" d="M 504 181.45 L 506.52 188.17 L 501.48 188.17 Z M 504 181.45 "/>
<path transform="matrix(1,0,0,1,-161,-366)" stroke-width="3" stroke-linecap="butt" stroke-miterlimit="10" stroke-linejoin="miter" fill="none" stroke="#000000" d="M 665 517.55 L 667.52 510.83 L 662.48 510.83 Z M 665 517.55 "/>
<text xml:space="preserve" transform="matrix(1 0 0 1 -161 -366)" font-size="16" font-family="Menlo"><tspan y="508" x="676.6836 686.3172 695.9508 705.5844 715.218 724.8516 734.4852 744.11886 753.75247 763.38607 773.01968 782.65328 792.28689">[0.1, 0.4, &#x2026;]</tspan></text>
<path transform="matrix(1,0,0,1,-161,-366)" stroke-width="2" stroke-linecap="round" stroke-linejoin="round" fill="none" stroke="#000000" d="M 577.5 620.2372 L 752.5 620.2372 C 754.7091 620.2372 756.5 622.0281 756.5 624.2372 L 756.5 663.2372 C 756.5 665.4464 754.7091 667.2372 752.5 667.2372 L 577.5 667.2372 C 575.2909 667.2372 573.5 665.4464 573.5 663.2372 L 573.5 624.2372 C 573.5 622.0281 575.2909 620.2372 577.5 620.2372 Z M 577.5 620.2372 "/>
<text xml:space="preserve" transform="matrix(1 0 0 1 -161 -366)" font-size="23" font-family="Avenir"><tspan y="651.2372" x="617.965 634.15707 639.67709 651.6141 661.82608 672.038 677.55807 685.21707 690.73709 703.5251">Classifier</tspan></text>
<path transform="matrix(1,0,0,1,-161,-366)" stroke-width="3" stroke-linecap="round" stroke-linejoin="round" fill="none" stroke="#000000" d="M 661.5143 595.2245 L 550.1429 595.2245 L 549.9196 541.3661 L 562.0815 541.5641 "/>
<path transform="matrix(1,0,0,-1,0,333)" d="M 407.8006 157.3265 L 401.1225 159.9556 L 401.0405 154.9162 Z M 407.8006 157.3265 "/>
<path transform="matrix(1,0,0,1,-161,-366)" stroke-width="3" stroke-linecap="butt" stroke-miterlimit="10" stroke-linejoin="miter" fill="none" stroke="#000000" d="M 568.8006 541.6735 L 562.1225 539.0444 L 562.0405 544.0838 Z M 568.8006 541.6735 "/>
<text xml:space="preserve" transform="matrix(1 0 0 1 -161 -366)" font-size="16" font-family="Menlo"><tspan y="689" x="676.6836 686.3172 695.9508 705.5844 715.218 724.8516 734.4852 744.11886 753.75247 763.38607 773.01968 782.65328 792.28689">&#x201c;Clean First&#x201d;</tspan></text>
<text xml:space="preserve" transform="matrix(1 0 0 1 -161 -366)" font-size="24" font-family="Avenir" font-style="italic"><tspan y="395" x="286.0849 300.3169 308.7649 322.1089 336.7729 345.2209 359.4769 371.0449 384.3889 395.0449 405.7009 411.4609 424.8049">Preprocessing</tspan></text>
<text xml:space="preserve" transform="matrix(1 0 0 1 -161 -366)" font-size="24" font-family="Avenir" font-style="italic"><tspan y="395" x="593.2289 610.1249 615.8849 628.3409 638.9969 649.6529 655.4129 663.4049 669.1649 680.7329 693.1889 702.0689 707.8289 722.0849">Classification</tspan></text>
<text xml:space="preserve" transform="matrix(1 0 0 1 -161 -366)" font-size="16" font-family="Menlo" font-weight="bold"><tspan y="505.2372" x="193.2373 202.87091 212.50452">let</tspan></text>
<text xml:space="preserve" transform="matrix(1 0 0 1 -161 -366)" font-size="16" font-family="Menlo"><tspan y="505.2372" x="222.1357"> </tspan></text>
<text fill="#267519" xml:space="preserve" transform="matrix(1 0 0 1 -161 -366)" font-size="16" font-family="Menlo"><tspan y="505.2372" x="231.7685 241.4021 251.0357 260.6693 270.30293 279.93653 289.57014 299.20375">rainfall</tspan></text>
<text xml:space="preserve" transform="matrix(1 0 0 1 -161 -366)" font-size="16" font-family="Menlo"><tspan y="505.2372" x="308.831"> </tspan></text>
<text xml:space="preserve" transform="matrix(1 0 0 1 -161 -366)" font-size="16" font-family="Menlo" font-weight="bold"><tspan y="505.2372" x="318.4639">=</tspan></text>
<text xml:space="preserve" transform="matrix(1 0 0 1 -161 -366)" font-size="16" font-family="Menlo"><tspan y="505.2372" x="328.0967 337.73033"> &#x2026;</tspan></text>
<text xml:space="preserve" transform="matrix(1 0 0 1 -161 -366)" font-size="16" font-family="Menlo"><tspan y="582.7372" x="166 175.6336 185.26721 194.90082 204.53443 214.16803 223.80164 233.43524 243.06885 252.70246 262.33607 271.96968 281.60328 291.23689 300.87049 310.5041 320.1377 329.7713 339.4049 349.0385">[&#x201c;LET&#x201d;,&#x201c;RAINFALL&#x201d;,&#x2026;]</tspan></text>
<text xml:space="preserve" transform="matrix(1 0 0 1 -161 -366)" font-size="16" font-family="Menlo"><tspan y="660.2372" x="219.1271 228.76071 238.39432 248.02793 257.66154 267.29515 276.92875 286.56236 296.19596 305.82957 315.46318 325.09678 334.73039 344.36399">[1, 15, 10, &#x2026;]</tspan></text>
<path transform="matrix(1,0,0,1,-161,-366)" stroke-width="3" stroke-linecap="round" stroke-linejoin="round" fill="none" stroke="#000000" d="M 365.6853 635.7372 L 365.6853 667.9957 L 506.1983 667.9957 L 505.5254 414.4828 L 665 414.4828 L 665 427.33 "/>
<path transform="matrix(1,0,0,-1,0,333)" d="M 504 264.95 L 506.52 271.67 L 501.48 271.67 Z M 504 264.95 "/>
<path transform="matrix(1,0,0,1,-161,-366)" stroke-width="3" stroke-linecap="butt" stroke-miterlimit="10" stroke-linejoin="miter" fill="none" stroke="#000000" d="M 665 434.05 L 667.52 427.33 L 662.48 427.33 Z M 665 434.05 "/>
<path transform="matrix(1,0,0,1,-161,-366)" stroke-width="3" stroke-linecap="round" stroke-linejoin="round" fill="none" stroke="#000000" d="M 665 668.2372 L 665 685.1317 "/>
<path transform="matrix(1,0,0,-1,0,333)" d="M 504 7.148276 L 506.52 13.86828 L 501.48 13.86828 Z M 504 7.148276 "/>
<path transform="matrix(1,0,0,1,-161,-366)" stroke-width="3" stroke-linecap="butt" stroke-miterlimit="10" stroke-linejoin="miter" fill="none" stroke="#000000" d="M 665 691.8517 L 667.52 685.1317 L 662.48 685.1317 Z M 665 691.8517 "/>
<text xml:space="preserve" transform="matrix(1 0 0 1 -161 -366)" font-size="16" font-family="Menlo"><tspan y="598.5" x="676.6836 686.3172 695.9508 705.5844 715.218 724.8516 734.4852 744.11886 753.75247 763.38607 773.01968 782.65328 792.28689">[1.3, 6.8, &#x2026;]</tspan></text>
</g>
</g>
</svg>
