<?xml version="1.0" standalone="no"?>
<!DOCTYPE svg PUBLIC "-//W3C//DTD SVG 1.1//EN" "http://www.w3.org/Graphics/SVG/1.1/DTD/svg11.dtd" >
<svg xmlns="http://www.w3.org/2000/svg">
<metadata></metadata>
<defs>
<font id="itc_new_baskervilleroman" horiz-adv-x="1064" >
<font-face units-per-em="2048" ascent="1638" descent="-410" />
<missing-glyph horiz-adv-x="532" />
<glyph horiz-adv-x="0" />
<glyph horiz-adv-x="682" />
<glyph unicode=" "  horiz-adv-x="532" />
<glyph unicode="&#x09;" horiz-adv-x="532" />
<glyph unicode="&#xa0;" horiz-adv-x="532" />
<glyph unicode="!" horiz-adv-x="655" d="M211 88q0 47 32.5 83t78.5 36q49 0 85.5 -32t36.5 -81t-33 -85t-83 -36q-47 0 -82 34t-35 81zM215 1241q0 53 30 94t81 41q55 0 82.5 -42.5t27.5 -100.5q0 -75 -30 -213q-63 -308 -56 -698h-49q10 388 -53 698q-33 144 -33 221z" />
<glyph unicode="&#x22;" horiz-adv-x="778" d="M115 1307q-6 32 22.5 61t65.5 29t65.5 -29t22.5 -61l-68 -402h-41zM485 1307q-6 32 22.5 61t65.5 29t66 -29t23 -61l-68 -402h-41z" />
<glyph unicode="#" d="M4 457l14 94h256l43 301h-258l15 94h260l63 438h115l-63 -438h256l61 438h115l-62 -438h242l-14 -94h-244l-41 -301h248l-15 -94h-252l-63 -457h-115l64 457h-258l-68 -457h-115l68 457h-252zM389 551h258l41 301h-256z" />
<glyph unicode="$" d="M68 186q0 40 25.5 66.5t64.5 26.5q41 0 61.5 -26t20.5 -67l-2 -34q0 -110 163 -127v657q-60 22 -110.5 52t-94.5 71t-69 95.5t-25 117.5q0 127 85.5 216t213.5 118v168h58v-156q58 4 86 4q26 0 76 -4v156h57v-154q54 -3 117 -28.5t112 -74t49 -104.5q0 -41 -24 -66.5 t-64 -25.5q-33 0 -55 24t-22 58q0 14 4 39t4 37q0 67 -121 92v-547q62 -34 98.5 -56.5t84 -61t73.5 -75.5t44.5 -90.5t18.5 -115.5q0 -140 -89.5 -239.5t-229.5 -141.5v-293h-57v285q-8 0 -41.5 -3.5t-51.5 -3.5q-12 0 -69 5v-283h-58v283q-48 2 -101.5 15t-107.5 36t-89 64 t-35 91zM236 1092q0 -128 165 -205v416q-79 -32 -122 -81.5t-43 -129.5zM459 25q6 0 26.5 -1.5t30.5 -0.5q35 2 105 10v549l-162 73v-630zM459 862l162 -65v522q-27 2 -78 2q-55 0 -84 -2v-457zM678 47q83 29 131.5 99.5t48.5 160.5q0 77 -47 131.5t-133 110.5v-502z" />
<glyph unicode="%" horiz-adv-x="1843" d="M182 967q0 80 32 164t85.5 152.5t131.5 112.5t161 44q54 0 96 -14.5t71 -35.5t59 -42t74.5 -35.5t102.5 -14.5q202 0 377 199h68l-979 -1647h-84l866 1463l-4 4q-134 -74 -240 -74q-60 0 -159 31q22 -62 22 -141q0 -76 -26 -160.5t-71.5 -158.5t-116.5 -122.5t-152 -48.5 q-138 0 -226 92.5t-88 231.5zM336 897q0 -78 42.5 -138.5t117.5 -60.5q72 0 132 49t95.5 122.5t54.5 150.5t19 141q0 88 -41 155.5t-123 67.5q-53 0 -102 -36t-83.5 -92t-60.5 -122t-38.5 -128t-12.5 -109zM975 215q0 114 53 224t151 183.5t214 73.5q125 0 195.5 -83 t70.5 -210q0 -82 -24.5 -168t-70 -161.5t-119 -123.5t-161.5 -48q-135 0 -222 89t-87 224zM1128 156q0 -80 42.5 -139.5t119.5 -59.5q70 0 130 49t96 121.5t56.5 149.5t20.5 141q0 88 -45 155.5t-129 67.5q-63 0 -120.5 -55t-93 -133.5t-56.5 -159t-21 -137.5z" />
<glyph unicode="&#x26;" horiz-adv-x="1515" d="M94 223q0 60 20.5 115.5t50.5 96t79 82t89.5 68.5t98.5 60q-143 201 -143 393q0 139 89.5 238.5t227.5 99.5q123 0 201 -73t78 -195q0 -59 -24 -118t-66 -109t-87 -90t-98 -76l293 -348l107 178q64 121 101 167q82 101 185 101q59 0 103.5 -39.5t44.5 -97.5 q0 -44 -32 -78.5t-75 -34.5t-67.5 28t-24.5 71q0 3 0.5 13t0.5 16.5t-1.5 14.5t-6.5 12.5t-13 4.5q-26 0 -61.5 -40.5t-56 -76t-36.5 -67.5l-108 -187l-19 -28q6 -6 36 -37t45 -45t46 -42.5t53 -44t50.5 -33.5t54 -26t49.5 -8q50 0 88 26t80 74l35 -32q-66 -84 -140 -130 t-170 -46q-55 0 -104 14.5t-96 46.5t-76.5 57.5t-79.5 73.5q-180 -199 -424 -199q-115 0 -206 69.5t-91 180.5zM279 317q0 -102 64 -175.5t165 -73.5q71 0 141 40.5t127 102.5l-10 10l-307 381q-6 -6 -38 -34t-39.5 -36t-31 -32.5t-31 -39.5t-20 -39.5t-16.5 -49.5t-4 -54z M412 1128q0 -90 45.5 -180t120.5 -190q83 55 129.5 143.5t46.5 188.5q0 57 -15 106.5t-55 87t-100 37.5q-83 0 -127.5 -55.5t-44.5 -137.5z" />
<glyph unicode="'" horiz-adv-x="450" d="M137 1307q-6 32 22.5 61t65.5 29t65.5 -29t22.5 -61l-67 -402h-41z" />
<glyph unicode="(" horiz-adv-x="901" d="M289 508q0 480 409 889l45 -39q-118 -159 -177 -270t-89.5 -247t-30.5 -325q0 -263 72.5 -476.5t239.5 -395.5l-45 -41q-424 417 -424 905z" />
<glyph unicode=")" horiz-adv-x="901" d="M143 1358l43 39q198 -191 311 -420t113 -483q0 -62 -5.5 -119t-13 -103.5t-25 -97t-30.5 -85t-41 -83.5t-45 -76.5t-55 -79t-57.5 -77t-66 -83.5t-68.5 -87l-45 41q115 151 175.5 267.5t90 252.5t29.5 321q0 263 -72 477t-238 396z" />
<glyph unicode="*" horiz-adv-x="1024" d="M125 776q0 69 86 88q37 9 65.5 10.5t46.5 6.5t56 24q4 2 19.5 10t22 11.5t17 10t15 11t4.5 8.5q0 12 -78 50q-25 14 -74 23.5t-85.5 15.5t-65.5 28.5t-29 61.5q0 32 24.5 54.5t55.5 22.5t56.5 -20.5t43 -48t49.5 -62.5t70 -57q54 -27 57 -27q5 0 7.5 5t3.5 14t1 16.5 t-0.5 16.5t-0.5 10q0 61 -14.5 106t-29 76.5t-14.5 58.5q0 34 22.5 59t55.5 25t55.5 -25t22.5 -59q0 -29 -29 -98.5t-29 -130.5v-11q-1 -10 -1 -19t1 -20t4 -17.5t7 -6.5q7 0 67 33q36 20 66 53.5t46 60.5t41 47.5t56 20.5t55.5 -22.5t24.5 -52.5q0 -41 -26 -62t-61.5 -26 t-89 -18t-91.5 -34q-64 -32 -64 -41q0 -3 2 -5.5t6.5 -6t9 -6.5t12 -7t13.5 -7.5t15.5 -8.5t15.5 -8q40 -22 111 -33t109 -29.5t38 -68.5q0 -32 -24.5 -55t-55.5 -23q-25 0 -45 13t-36.5 34.5t-33.5 45t-44 50t-60 44.5q-47 28 -57 28q-17 0 -11 -82q2 -50 15.5 -88 t27 -68.5t15.5 -60.5q-2 -37 -22 -62.5t-56 -25.5q-33 0 -55.5 25.5t-22.5 58.5q0 30 29 100.5t29 129.5v10q1 11 1 19.5t-1 19.5t-4 17.5t-7 6.5q-15 0 -45 -20q-38 -20 -68 -48.5t-47.5 -52.5t-34 -46t-36 -35t-45.5 -13q-31 0 -55.5 23t-24.5 55z" />
<glyph unicode="+" d="M68 473v94h417v467h95v-467h417v-94h-417v-473h-95v473h-417z" />
<glyph unicode="," horiz-adv-x="532" d="M123 -276q43 30 73 55t66 63.5t52 82t10 89.5q-31 -22 -64 -22q-47 0 -77.5 29.5t-30.5 76.5t32.5 79t79.5 32q68 0 108 -52.5t40 -123.5q0 -31 -3.5 -58.5t-14.5 -52t-19 -42.5t-29 -40t-31 -33.5t-39 -32.5t-39.5 -28.5t-46 -30.5t-45.5 -30z" />
<glyph unicode="-" horiz-adv-x="491" d="M0 391v137h494v-137h-494z" />
<glyph unicode="." horiz-adv-x="532" d="M150 88q0 47 32 83t78 36q49 0 86 -32t37 -81t-33.5 -85t-83.5 -36q-47 0 -81.5 34t-34.5 81z" />
<glyph unicode="/" horiz-adv-x="1187" d="M76 -276l897 1673h92l-903 -1673h-86z" />
<glyph unicode="0" d="M78 657q0 66 12 141.5t35 157.5t62 156t88 133.5t118 95t148 35.5q91 0 168 -47t127 -121t85 -167.5t50.5 -182.5t15.5 -170q0 -69 -11.5 -145.5t-34.5 -158t-62 -154t-89.5 -131t-121 -92.5t-152.5 -34q-87 0 -162 48.5t-124.5 124t-84.5 169t-51 181t-16 161.5z M283 621q0 -231 24 -350q51 -251 209 -251q49 0 88.5 21t64 52t42.5 77t27 85t16 87l28 401q0 586 -233 586q-47 0 -85 -19.5t-62 -48.5t-43 -72t-28.5 -79.5t-17.5 -81.5z" />
<glyph unicode="1" d="M184 1251v41q154 9 252 28.5t201 76.5v-1094q0 -144 14 -199q5 -19 20.5 -32t40.5 -18t44.5 -7t50 -2.5t39.5 -1.5v-47q-51 1 -153.5 4t-153.5 4q-52 -1 -157 -4t-157 -4v47q1 0 38 0.5t54 2.5t47 6.5t47.5 14.5t24.5 25q19 43 19 211v729q0 143 -23 182q-9 17 -34 26 t-44 10t-51 1h-119z" />
<glyph unicode="2" d="M90 0q54 101 130 195t181 200q136 136 170 174q145 163 179 319q12 57 12 118q0 86 -27 157t-89 118.5t-150 47.5q-107 0 -179.5 -65.5t-72.5 -171.5q0 -79 51 -142t129 -63q60 0 115 59q-7 -68 -66.5 -110.5t-130.5 -42.5q-110 0 -173 71.5t-63 182.5q0 80 37 145 t97.5 104t132.5 59.5t147 20.5q89 0 168.5 -24.5t142 -70.5t99.5 -120.5t37 -167.5q0 -39 -7 -76t-15 -66t-28.5 -62.5t-33.5 -54.5t-44 -52t-45.5 -46t-54 -46.5t-53 -42t-57.5 -43.5q-244 -184 -350 -330h665l-57 -289h-45l4 74q3 7 1 12.5t-1 10t-2.5 7.5t-4.5 5t-6 3 t-7 2t-8.5 1h-9.5h-10.5h-11.5h-591h-105z" />
<glyph unicode="3" d="M102 170q0 33 26.5 56.5t61.5 23.5q38 0 61.5 -17t32 -42.5t21 -55.5t28 -55.5t54 -42.5t98.5 -17q65 0 116 21t83 56t53.5 84t30 101.5t8.5 112.5q0 49 -4.5 89.5t-18.5 84t-37 73t-63 48.5t-94 19q-41 0 -71.5 -15t-49 -37t-34 -44t-34.5 -37t-42 -15q-17 0 -28 11 t-11 26q0 17 14.5 34.5t29.5 27.5t40.5 24.5t29.5 17.5q58 35 92.5 58.5t77.5 61.5t66.5 74t40 88t16.5 112q0 98 -47.5 156.5t-146.5 58.5q-91 0 -154 -50t-63 -137q0 -57 34.5 -100t90.5 -43q57 0 120 49q-20 -63 -71.5 -97t-120.5 -34q-76 0 -128 48.5t-52 123.5 q0 72 37 132t96 96.5t127.5 56.5t136.5 20q63 0 121.5 -15.5t108 -46t79 -82.5t29.5 -118q0 -55 -22 -105t-52 -84t-80.5 -68.5t-87.5 -54.5t-94 -46l4 -4q10 1 32 2t32 2q154 0 255 -82t101 -234q0 -84 -31 -158.5t-84.5 -130t-122.5 -96.5t-148 -61.5t-159 -20.5 q-49 0 -102.5 10t-107.5 31t-89 61.5t-35 94.5z" />
<glyph unicode="4" d="M76 438v72l672 874h49v-872h237v-74h-237v-133q0 -146 16 -201q7 -21 23 -34t40 -18t44.5 -6.5t48.5 -1.5t39 -1v-47q-50 1 -147 4t-142 4q-52 -1 -156.5 -4t-156.5 -4v47q3 0 21.5 0.5t29 1.5t29.5 2.5t32 3.5t27.5 5.5t24.5 9t16 12.5q37 41 37 227v133h-547zM154 512 h469v612h-5z" />
<glyph unicode="5" d="M78 166q0 36 24 61t62 25q40 0 62 -24t32.5 -58t25 -68t52.5 -58t102 -24q74 0 131 27t91.5 70.5t57 104.5t30.5 121.5t8 129.5q0 64 -11.5 118t-37 101.5t-74.5 75t-117 27.5q-44 0 -98.5 -19t-98 -58t-43.5 -85q0 -6 2 -23.5t2 -31.5t-2 -29.5t-11 -24t-25 -8.5 q-25 0 -38.5 15.5t-13.5 41.5l31 824q58 -56 141 -88.5t166 -32.5q101 0 170.5 32.5t145.5 108.5q-21 -148 -128.5 -228.5t-260.5 -80.5q-82 0 -193 27l-8 -416l4 -4q51 71 136.5 108t180.5 37q170 0 278 -104.5t108 -272.5q0 -150 -77.5 -268t-203.5 -180t-274 -62 q-47 0 -99.5 10.5t-106 31.5t-88 60.5t-34.5 90.5z" />
<glyph unicode="6" d="M100 590q0 73 8.5 147.5t27.5 152.5t48 148t72.5 132.5t98 107.5t128.5 71.5t160 26.5q38 0 80.5 -8.5t85.5 -26t70.5 -50t27.5 -74.5q0 -36 -25 -62.5t-61 -26.5q-35 0 -58 20t-37 48t-29 56.5t-43 48.5t-70 20q-41 0 -76 -13t-60 -33t-46 -53.5t-34.5 -65t-24.5 -77 t-16.5 -80t-10 -84t-6 -79t-3 -74.5t-2.5 -62l4 -4q64 88 135 133t170 45q118 0 210.5 -59.5t141 -157t48.5 -213.5q0 -123 -58 -231t-162.5 -174t-230.5 -66q-97 0 -176.5 37.5t-132 98.5t-88 142.5t-51 166t-15.5 172.5zM305 494q0 -39 1.5 -71t5 -76t11.5 -80t20 -75 t32 -68.5t45.5 -53.5t62 -37t80.5 -13q54 0 95.5 17.5t67.5 50t43.5 70t25.5 87.5t11 90.5t3 90.5q0 43 -1 74t-6.5 74t-14.5 73t-26 62.5t-41 53t-60 33.5t-82 13q-153 0 -273 -195v-120z" />
<glyph unicode="7" d="M115 942l118 561h54l-4 -20q-13 -75 -13 -84q0 -14 2.5 -24.5t10.5 -16.5t14.5 -9.5t22 -5t24.5 -1.5t31.5 0.5t34.5 0.5h604v-34q-266 -514 -393 -1080q-2 -8 -7 -33.5t-8.5 -40.5t-11 -41.5t-14.5 -43t-18.5 -37t-24.5 -32.5t-30.5 -20t-37.5 -8q-41 0 -69.5 29.5 t-28.5 71.5q0 117 278 635l244 460h-453q-119 0 -147 -7q-46 -11 -72 -59q-16 -31 -35 -91l-22 -70h-49z" />
<glyph unicode="8" d="M84 309q0 235 295 379q-116 61 -182 141t-66 197q0 69 31 135.5t84 116.5q109 98 284 98q156 0 265 -73q61 -41 98 -103.5t37 -132.5q0 -109 -58 -181t-167 -136q276 -140 276 -379q0 -90 -37.5 -166.5t-100.5 -126t-144 -77.5t-169 -28q-77 0 -154 21t-143 61 t-107.5 106.5t-41.5 147.5zM236 319q0 -143 83.5 -221t227.5 -78q124 0 211.5 77t87.5 198q0 35 -9 66.5t-20 54.5t-35 46.5t-41 37.5t-51 33.5t-51.5 28.5t-56.5 28l-156 76q-95 -51 -142.5 -142t-47.5 -205zM262 1102q0 -31 9 -59.5t21 -49.5t36 -42.5t41 -34.5 t50.5 -31.5t49.5 -26t53 -24.5l140 -66q64 64 96.5 127t32.5 143q0 126 -71 208.5t-196 82.5q-109 0 -185.5 -61t-76.5 -166z" />
<glyph unicode="9" d="M59 905q0 123 58 231t163 174t232 66q97 0 176.5 -37.5t132 -98.5t88 -142t51 -165.5t15.5 -172.5q0 -86 -12 -173t-37 -177t-69 -167.5t-102 -138.5t-141 -96t-182 -35q-39 0 -81.5 8.5t-85 26.5t-70 50.5t-27.5 74.5q0 36 24.5 62t61.5 26q34 0 57.5 -20t37.5 -48 t29 -56t43.5 -48t70.5 -20q51 0 92 20t68 49.5t48 79t32 91t19 105t10 100.5t5 98.5t4 80.5v-4l-4 4q-64 -86 -135.5 -131t-169.5 -45q-178 0 -290 125t-112 303zM264 924q0 -42 1.5 -73.5t6.5 -74t14 -73t26.5 -62.5t41.5 -52t60 -33t82 -13q156 0 274 192v119 q0 45 -1.5 82t-7.5 88.5t-16.5 91t-29.5 81.5t-45.5 69.5t-67 45t-90.5 17.5q-65 0 -112 -26.5t-72.5 -65.5t-40.5 -97.5t-19 -106.5t-4 -109z" />
<glyph unicode=":" horiz-adv-x="532" d="M150 88q0 47 32 83t78 36q49 0 86 -32t37 -81t-33.5 -85t-83.5 -36q-47 0 -81.5 34t-34.5 81zM150 776q0 47 32 83t78 36q49 0 86 -32t37 -81q0 -48 -33.5 -84t-83.5 -36q-47 0 -81.5 33.5t-34.5 80.5z" />
<glyph unicode=";" horiz-adv-x="532" d="M123 -283q43 30 73.5 55.5t66 64t51.5 82t10 89.5q-31 -22 -64 -22q-47 0 -77.5 29.5t-30.5 76.5t32.5 79t79.5 32q68 0 108 -52.5t40 -123.5q0 -28 -4 -53.5t-9.5 -46t-18 -42t-21 -36t-28.5 -33.5t-30.5 -29t-36 -28.5t-37 -26t-41.5 -27.5t-41 -27zM154 776 q0 47 32 83t78 36q49 0 86 -32t37 -81q0 -48 -33.5 -84t-83.5 -36q-47 0 -81.5 33.5t-34.5 80.5z" />
<glyph unicode="&#x3c;" d="M63 434v131l938 475v-108l-851 -432l851 -437v-104z" />
<glyph unicode="=" d="M68 301v94h929v-94h-929zM68 641v94h929v-94h-929z" />
<glyph unicode="&#x3e;" d="M63 -41v104l852 437l-852 432v108l938 -475v-131z" />
<glyph unicode="?" horiz-adv-x="819" d="M96 1284q0 46 34.5 69t82.5 23q126 0 238 -71.5t177.5 -187t65.5 -240.5q0 -92 -32 -159t-89.5 -106t-129.5 -57t-160 -18v-207h-56v383h125q125 0 201 52.5t76 170.5q0 71 -29 136.5t-87 109t-132 43.5q-31 0 -91 -11.5t-89 -11.5q-41 0 -73 21t-32 61zM150 88 q0 47 32 83t78 36q49 0 86 -32t37 -81t-33.5 -85t-83.5 -36q-47 0 -81.5 34t-34.5 81z" />
<glyph unicode="@" horiz-adv-x="1679" d="M123 676q0 186 98.5 347t270 257t374.5 96q185 0 341.5 -71.5t252.5 -207.5t96 -309q0 -94 -38.5 -190.5t-102.5 -171.5q-66 -75 -159.5 -121.5t-192.5 -46.5q-60 0 -110.5 28.5t-57.5 78.5q-50 -47 -116.5 -77t-131.5 -30q-113 0 -179.5 77.5t-66.5 184.5q0 92 33.5 190 t92.5 182t150.5 138.5t196.5 54.5q70 0 129.5 -28.5t75.5 -85.5h4l25 86h174l-192 -518q-52 -137 -52 -177q0 -21 14.5 -32t37.5 -11q55 0 122.5 30t112.5 69q166 140 166 375q0 97 -43 189t-119.5 165.5t-194.5 118.5t-257 45q-180 0 -325.5 -86t-224.5 -229t-79 -312 q0 -129 45 -246.5t125 -206t198 -140.5t256 -52q193 0 350.5 91.5t245.5 240.5h68q-75 -181 -263 -289.5t-403 -108.5q-206 0 -378 94.5t-270.5 256t-98.5 352.5zM561 426q0 -48 32 -80.5t85 -32.5q46 0 87 23.5t71 64t50 78t36 80.5l102 279q16 40 16 59q0 55 -31.5 94 t-90.5 39q-61 0 -119 -47t-100 -119t-74 -155.5t-48 -158t-16 -124.5z" />
<glyph unicode="A" horiz-adv-x="1351" d="M-47 -4v47q83 9 124.5 39.5t72.5 105.5q29 65 85 196t84 196l314 804h69l414 -1040q7 -15 28.5 -67.5t42 -94.5t36.5 -63q30 -40 70 -54t106 -22v-47q-48 1 -145.5 4t-145.5 4q-49 -1 -148.5 -4t-148.5 -4v47q1 0 20 0.5t23.5 1t22 2t24 3.5t20.5 6t20 9.5t14 13.5 t11 18.5t3 23.5q0 53 -41 160l-80 211h-506l-18 -52q-4 -9 -21.5 -52.5t-27.5 -69t-23.5 -64.5t-20 -69.5t-6.5 -53.5q0 -21 9 -36.5t19.5 -24t32.5 -14.5t34 -7.5t38.5 -3t32.5 -2.5v-47q-38 1 -112.5 4t-112.5 4q-36 -1 -106.5 -4t-106.5 -4zM369 557h452l-225 578z" />
<glyph unicode="B" horiz-adv-x="1310" d="M57 -4v47q30 0 42.5 0.5t39.5 3.5t41 10t29 21t22 35q19 58 19 272v578q0 214 -19 272q-7 21 -22 35t-29 21t-41 10t-39.5 3.5t-42.5 0.5v47q49 -1 146.5 -4.5t146.5 -4.5q41 1 122 4.5t122 4.5h33q53 0 103 -4q66 -6 134.5 -28t118.5 -57t82.5 -95t32.5 -138 q0 -67 -25 -120t-71 -89.5t-96 -60t-115 -43.5v-4q202 -18 299 -84q74 -51 115.5 -123.5t41.5 -159.5q0 -97 -53.5 -173t-144.5 -124q-48 -25 -117 -37.5t-114 -14t-124 -1.5h-22q-45 1 -134.5 4t-134.5 4q-58 -1 -173.5 -4t-172.5 -4zM461 395q0 -199 24 -258 q10 -25 29.5 -42.5t37.5 -26t50 -12.5t48 -4.5t50 -0.5q147 0 219 82t72 232q0 193 -147 272q-17 9 -37 16t-37 11.5t-42 7.5t-39.5 5t-43 2.5t-40 0.5h-42.5h-39h-63v-285zM461 735h65h26h26.5t24 0.5t25.5 1t23 2t25 4t22.5 5.5t24.5 7.5t22.5 10t24.5 12.5q60 38 82 98 t22 144q0 136 -71 204t-209 68h-20h-16h-14q-12 0 -28.5 -0.5t-27 -3t-15.5 -6.5q-12 -10 -12 -86v-461z" />
<glyph unicode="C" horiz-adv-x="1392" d="M96 659q0 205 92 369t256 256t369 92q122 0 214 -29t202 -98l33 97h30l17 -404h-47q-27 174 -142.5 280.5t-290.5 106.5q-106 0 -190 -40.5t-137 -106.5t-87.5 -155t-48.5 -180t-14 -188t15 -185.5t51 -172.5t89.5 -145.5t137.5 -98.5t189 -37q84 0 151.5 24t114 63 t83.5 99.5t60 122.5t43 142h37v-448h-27l-49 104q-102 -81 -210.5 -117.5t-241.5 -36.5q-207 0 -365 83.5t-246 240t-88 362.5z" />
<glyph unicode="D" horiz-adv-x="1515" d="M57 -4v47q27 0 42 0.5t40.5 4t40.5 10.5t29.5 21t21.5 34q19 58 19 272v573q0 215 -19 273q-7 21 -22 35t-28.5 20.5t-41.5 10t-39 3.5h-43v52q41 -1 127.5 -4.5t130.5 -4.5q56 1 166.5 4.5t165.5 4.5h20q204 0 368 -80q172 -84 272 -247t100 -380q0 -160 -51 -285.5 t-144 -205.5q-94 -82 -224 -122q-118 -37 -260 -36h-28q-60 1 -181.5 4t-182.5 4q-48 -1 -141 -4t-138 -4zM460 278q0 -14 2 -39t5.5 -41.5t10 -35.5t16.5 -33q52 -78 229 -78q104 0 181.5 30t124 79.5t74.5 124t38 152t10 175.5q0 128 -15.5 228t-54 187.5t-100.5 145 t-159 90.5t-226 33h-20q-13 1 -22 1q-5 -1 -8 -1q-11 0 -28.5 -1t-28.5 -4.5t-16 -8.5q-12 -12 -12 -63v-863q-1 -8 -1 -36v-24.5v-17.5z" />
<glyph unicode="E" horiz-adv-x="1269" d="M53 0v47q27 0 42 0.5t40 4t40 10.5t30.5 21t23.5 34q21 58 21 272v565q0 215 -21 273q-10 25 -28 40t-47 21t-47.5 7t-53.5 1v56h1018v-310h-47q-10 60 -24.5 102.5t-39 70.5t-49.5 44t-68 24.5t-80.5 10.5t-100.5 2h-148h-11q-32 0 -37.5 -6t-4.5 -46v-32v-485 q17 -1 33 -1q60 0 108 10q60 12 94.5 32t56.5 56t30 70.5t12 84.5h47q-4 -190 -8 -279q4 -82 8 -254h-47q-6 46 -18 80.5t-26 58.5t-38 40t-46.5 25.5t-59 14.5t-67 6t-79.5 1v-336q0 -158 37 -207q55 -74 238 -74h24q72 1 119.5 6.5t97 22t79.5 45.5t52.5 79t30.5 122h47 l-19 -330h-1114z" />
<glyph unicode="F" horiz-adv-x="1105" d="M39 -4v47q27 0 42 0.5t40 4t40 10.5t30.5 21t23.5 34q21 58 21 272v578q0 214 -21 272q-8 20 -23.5 34t-30.5 21t-40 10.5t-40 4t-42 0.5v47q64 -1 186 -4.5t181 -4.5q110 1 329 5t328 4l33 -322h-47q-12 41 -16 54t-16.5 46t-24.5 48.5t-33 34.5t-48 30 q-41 18 -101.5 26.5t-94 9.5t-107.5 1q-110 0 -123 -2q-27 -6 -33 -31q-4 -15 -6 -82v-458q21 -1 41 -2q57 -1 101 9q60 12 94.5 32t56 55t29.5 69t12 84h47q-4 -188 -8 -278q4 -82 8 -254h-47q-5 40 -14 71t-23.5 54t-28.5 39t-38.5 26t-44 16t-55 9t-60.5 3.5t-70 0.5 v-258q0 -212 21 -270q9 -23 25 -38t40.5 -21t42.5 -8t51 -2t44 -1v-47q-52 1 -158 4t-158 4q-50 -1 -154.5 -4t-160.5 -4z" />
<glyph unicode="G" horiz-adv-x="1515" d="M96 641q0 208 89 375t253.5 263.5t374.5 96.5q254 0 426 -129l43 92h23l-23 -405h-43q-11 175 -118.5 285t-282.5 110q-115 0 -203 -41.5t-140.5 -107.5t-85.5 -160t-45 -185.5t-12 -197.5q0 -121 25 -225.5t77.5 -192.5t146 -139t218.5 -51q159 0 250.5 77t91.5 230 q0 98 -38.5 132t-137.5 42v47h537v-47h-4q-75 0 -98 -35q-25 -36 -25 -121v-217q-26 0 -45 -0.5t-38 -3t-30 -3t-28 -6.5t-24 -8t-26.5 -12t-26.5 -14t-33 -18t-38 -21q-153 -78 -322 -78q-199 0 -355 81.5t-244.5 234.5t-88.5 352z" />
<glyph unicode="H" horiz-adv-x="1679" d="M68 -4v47q27 0 42 0.5t40 4t40 10.5t30.5 21t23.5 34q20 55 20 272v578q0 217 -20 272q-8 20 -23.5 34t-30.5 21t-40 10.5t-40 4t-42 0.5v47q47 -1 144.5 -4.5t147.5 -4.5q52 1 156 4.5t156 4.5v-47q-27 0 -42 -0.5t-40 -4t-40 -10.5t-30.5 -21t-23.5 -34 q-21 -58 -21 -272v-238h731v238q0 217 -20 272q-8 20 -23.5 34t-30.5 21t-40 10.5t-40 4t-42 0.5v47q50 -1 149.5 -4.5t149.5 -4.5q51 1 152.5 4.5t152.5 4.5v-47q-27 0 -42 -0.5t-40 -4t-40 -10.5t-30.5 -21t-23.5 -34q-21 -58 -21 -272v-578q0 -214 21 -272 q8 -20 23.5 -34t30.5 -21t40 -10.5t40 -4t42 -0.5v-47q-49 1 -148.5 4t-148.5 4q-51 -1 -153.5 -4t-153.5 -4v47q27 0 42 0.5t40 4t40 10.5t30.5 21t23.5 34q20 55 20 272v274h-731v-274q0 -214 21 -272q8 -20 23.5 -34t30.5 -21t40 -10.5t40 -4t42 -0.5v-47q-49 1 -148.5 4 t-148.5 4q-52 -1 -155 -4t-152 -4z" />
<glyph unicode="I" horiz-adv-x="737" d="M68 -4v47q27 0 42 0.5t40 4t40 10.5t30.5 21t23.5 34q20 55 20 272v578q0 217 -20 272q-8 20 -23.5 34t-30.5 21t-40 10.5t-40 4t-42 0.5v47q49 -1 147 -4.5t147 -4.5q53 1 156.5 4.5t153.5 4.5v-47q-27 0 -42 -0.5t-40 -4t-40 -10.5t-30.5 -21t-23.5 -34 q-21 -58 -21 -272v-578q0 -214 21 -272q8 -20 23.5 -34t30.5 -21t40 -10.5t40 -4t42 -0.5v-47q-47 1 -146 4t-149 4q-51 -1 -154.5 -4t-154.5 -4z" />
<glyph unicode="J" horiz-adv-x="696" d="M-299 -389q0 35 24 57.5t60 22.5q64 0 102 -86q21 -53 51 -76t87 -23q89 0 138 41.5t68 130.5q13 63 13 134v1302q0 68 -21 121q-8 20 -24 34t-31 21t-40 10.5t-39.5 4t-41.5 0.5v47q49 -1 147.5 -4.5t147.5 -4.5q50 1 153 4.5t156 4.5v-47q-32 0 -52.5 -1.5t-47.5 -7.5 t-46 -21.5t-30 -39.5q-20 -45 -20 -227v-1096q-8 -196 -70 -289q-60 -90 -150.5 -126t-211.5 -36q-46 0 -91.5 5t-102.5 19t-92.5 46.5t-35.5 79.5z" />
<glyph unicode="K" horiz-adv-x="1351" d="M53 -4v47q27 0 42 0.5t40 4t40 10.5t30.5 21t23.5 34q21 58 21 272v578q0 214 -21 272q-8 20 -23.5 34t-30.5 21t-40 10.5t-40 4t-42 0.5v47q49 -1 146.5 -4.5t146.5 -4.5q53 1 159 4.5t159 4.5v-47q-55 -4 -84 -7.5t-55.5 -15t-36.5 -21.5t-17.5 -39t-8.5 -56t-1 -83 v-499q59 61 122 130.5t157.5 178.5t154 199t59.5 131q0 21 -7.5 35.5t-17.5 22.5t-29 13t-31.5 6t-35.5 2.5t-32 2.5v47q41 -1 121.5 -4.5t121.5 -4.5q36 1 106.5 4.5t106.5 4.5v-47q-80 -1 -115.5 -23t-90.5 -92l-328 -406l285 -327l34 -43q34 -44 68.5 -86.5t79 -95.5 t85.5 -95.5t68 -62.5q12 -9 23 -14.5t24.5 -8.5t20.5 -4t26.5 -2t26.5 -2v-47q-54 1 -162 4t-163 4q-52 -1 -156 -4t-156 -4v47h15.5h21.5t23.5 0.5t26.5 2.5t25 4.5t24 7.5t18 11t13.5 15t4.5 20q0 44 -161 234l-250 301l-127 -133v-242q0 -43 0.5 -65.5t4 -48.5t7.5 -37.5 t16 -25.5t23.5 -18.5t37 -11t49 -9t65.5 -5.5v-47q-50 1 -149.5 4t-149.5 4q-52 -1 -156 -4t-156 -4z" />
<glyph unicode="L" horiz-adv-x="1269" d="M53 -4v47q27 0 42 0.5t40 4t40 10.5t30.5 21t23.5 34q21 58 21 272v578q0 214 -21 272q-8 20 -23.5 34t-30.5 21t-40 10.5t-40 4t-42 0.5v47q49 -1 146.5 -4.5t146.5 -4.5q52 1 155.5 4.5t155.5 4.5v-47q-27 0 -42 -0.5t-40 -4t-40 -10.5t-30.5 -21t-23.5 -34 q-20 -55 -20 -272v-607q0 -69 4 -114t16.5 -81.5t32 -56t55.5 -32.5t80 -17t113 -4h18q63 0 97.5 1.5t86.5 13.5t89 36q30 18 51.5 40.5t34 42.5t22.5 52.5t14 54.5t11 66h51l-18 -362q-74 4 -107 8q-174 -3 -1059 -8z" />
<glyph unicode="M" horiz-adv-x="1802" d="M59 1305v47q108 -6 207 -9q94 3 189 9l450 -1049l438 1049q90 -6 193 -9q90 3 203 9v-49q-32 0 -52.5 -1.5t-47.5 -7.5t-46 -21.5t-30 -39.5q-21 -47 -21 -227v-742q0 -43 0.5 -65.5t4 -48.5t7.5 -37.5t16 -25.5t23.5 -18.5t37 -11t49 -9t65.5 -5.5v-47q-55 1 -157 4 t-150 4q-51 -1 -155 -4t-155 -4v47q56 5 84 8t55.5 14t36.5 20.5t17.5 38.5t9 56t0.5 84v893h-4l-233 -571q-43 -98 -128 -295t-128 -295h-21l-498 1161h-4v-862q0 -130 39.5 -188t157.5 -64v-47q-38 1 -113.5 4t-113.5 4q-36 -1 -107.5 -4t-107.5 -4v47q56 0 94 15.5 t57 43.5t26 58t7 69v873q0 84 -18 133q-10 25 -28.5 40.5t-47 21t-48 7t-53.5 1.5z" />
<glyph unicode="N" horiz-adv-x="1556" d="M45 1305v47q33 -1 97.5 -4.5t97.5 -4.5q27 1 81 4.5t80 4.5l865 -1055h4v569q0 227 -19 316q-5 21 -11.5 37.5t-12.5 28t-18 20t-19.5 13t-25 9t-27 6t-33 4.5t-35.5 5v47q38 -1 112.5 -4.5t112.5 -4.5q35 1 106.5 4.5t110.5 4.5v-47q-7 -1 -27 -2.5t-26 -2.5t-22 -4 t-21.5 -6.5t-17 -10t-17 -15t-12.5 -21.5t-12 -29q-25 -82 -25 -358v-883h-61q-23 28 -135 170l-801 971h-4v-688q0 -231 30 -299q7 -17 16 -29.5t22 -21t22 -13.5t28 -8.5t27.5 -5t32.5 -3.5t31 -3v-47q-39 1 -118 4t-118 4q-38 -1 -113.5 -4t-113.5 -4v47q32 3 40.5 4 t35 5.5t36.5 10.5t26 16.5t24.5 26.5t13.5 37q16 74 16 283v756q-48 69 -94.5 95.5t-128.5 27.5z" />
<glyph unicode="O" horiz-adv-x="1679" d="M96 670q0 149 62 281.5t165.5 225t240.5 146t284 53.5q146 0 280 -51.5t234.5 -141.5t160.5 -220.5t60 -278.5q0 -154 -58 -287.5t-158 -226t-236.5 -145t-290.5 -52.5q-149 0 -284.5 51.5t-237 142t-162 221.5t-60.5 282zM352 670q0 -101 16 -191t53 -173.5t93.5 -144 t143 -96.5t194.5 -36q106 0 189.5 38.5t136 101t87 148.5t48.5 174t14 185q0 96 -15.5 185.5t-52.5 174t-91.5 147t-139 100.5t-188.5 38q-102 0 -186 -39t-139 -103t-92.5 -149.5t-54 -175.5t-16.5 -184z" />
<glyph unicode="P" horiz-adv-x="1187" d="M57 -4v47q27 0 42 0.5t40.5 4t40.5 10.5t29.5 21t21.5 34q19 58 19 272v576q0 216 -19 274q-7 21 -22.5 35t-29.5 21t-40.5 10t-39 3.5t-42.5 0.5v47q53 -1 156.5 -4.5t153.5 -4.5q49 1 146 4.5t146 4.5q89 -3 168 -23t149.5 -59.5t112 -109.5t41.5 -163 q0 -86 -32.5 -153t-84 -107t-123.5 -65.5t-142.5 -35t-149.5 -9.5q-22 0 -80 3l-57 3v-248q0 -217 20 -272q7 -19 20.5 -32.5t27 -20.5t35.5 -10.5t37 -4.5t40 -1t37 -1v-47q-53 1 -160 4t-160 4q-49 -1 -149 -4t-152 -4zM461 688q13 -1 55 -4.5t64 -3.5q161 0 238 74 t77 237q0 301 -293 301q-11 0 -30 -1q-81 -2 -96 -10q-15 -9 -15 -48v-21v-16v-508z" />
<glyph unicode="Q" horiz-adv-x="1638" d="M96 657q0 152 62.5 287t166.5 229t242.5 148.5t288.5 54.5q143 0 276 -50t234 -137.5t162 -216t61 -274.5q0 -201 -112 -370t-297 -269q-65 -35 -138 -56t-125.5 -28.5t-119 -30t-123.5 -61.5v-4q25 0 71 4q79 0 160 -18t150 -43.5t137 -51t146 -43.5t153 -18 q60 0 108 13.5t74.5 32.5t44.5 38.5t27.5 33t13.5 13.5q5 0 8 -4t4 -11t1 -13q1 -3 1 -6.5t-1 -7.5v-11q0 -129 -104 -215t-241 -86q-69 0 -135.5 19t-120 49t-105 66.5t-99 73t-93 66.5t-96 49t-100.5 19q-41 0 -83.5 -16.5t-71.5 -37t-58 -37t-47 -16.5t-28.5 12.5 t-10.5 30.5q0 17 17.5 33t44.5 27.5t48 18t39 10.5l207 116q-107 27 -199.5 67t-174.5 100.5t-140 135t-91.5 173t-33.5 212.5zM352 674q0 -80 11 -156t34 -150.5t62.5 -136.5t92 -110t127 -74.5t163.5 -26.5q100 0 183 38t139 101t95 146t56.5 172.5t17.5 181.5 q0 93 -15.5 183t-51.5 178t-90 154t-137 106.5t-185 40.5q-106 0 -192.5 -37.5t-143 -100t-95 -147t-55 -175t-16.5 -187.5z" />
<glyph unicode="R" horiz-adv-x="1351" d="M57 -4v47q27 0 42 0.5t40.5 4t40.5 10.5t29.5 21t21.5 34q19 58 19 272v578q0 214 -19 272q-7 21 -22 35t-29 21t-41 10t-39.5 3.5t-42.5 0.5v47q59 -1 176.5 -4.5t176.5 -4.5q43 1 130 5t130 4q77 0 139 -7.5t126 -29.5t107 -58.5t70 -98t27 -144.5q0 -80 -29 -145 t-80.5 -107.5t-117.5 -67.5t-144 -32l434 -498q54 -62 91 -86t110 -35v-47q-31 1 -92.5 4t-91.5 4q-26 -1 -77.5 -4t-76.5 -4l-96 119l-340 422q-10 12 -24.5 29.5t-19.5 23t-16 15t-17.5 12t-21 6t-30 4t-39.5 0.5v-242q0 -217 18 -272q7 -21 22.5 -35t29.5 -21t40.5 -10 t39 -3t42.5 -1v-47q-45 1 -141.5 4t-146.5 4q-51 -1 -154 -4t-154 -4zM461 682q96 0 146.5 3t117 18.5t99 46.5t56 89.5t23.5 145.5q0 138 -76 222.5t-211 84.5q-4 0 -38 2q-26 1 -47 1q-7 -1 -14 -1q-26 0 -34 -4q-6 -3 -10.5 -8.5t-7 -10.5t-3.5 -14t-1 -13.5v-14.5v-12 v-535z" />
<glyph unicode="S" d="M92 10v400h47q16 -82 45 -147.5t74.5 -119.5t113.5 -84t154 -30q126 0 209.5 68t83.5 188q0 54 -19 99.5t-46 76t-73 59.5t-82 46t-91 38q-45 17 -80 32.5t-77 38t-73 45.5t-61.5 54t-50 65t-31.5 77t-12 92q0 170 116 269t289 99q165 0 310 -104l47 80h22l11 -355h-48 q-90 324 -342 324q-101 0 -170 -60t-69 -157q0 -125 124 -200q42 -26 148 -70q56 -23 92.5 -39.5t89 -43.5t86.5 -52t72 -61t60 -74t36.5 -87.5t14.5 -105.5q0 -78 -28 -144t-75.5 -112t-110.5 -78.5t-133 -48t-143 -15.5q-192 0 -358 123l-49 -86h-23z" />
<glyph unicode="T" horiz-adv-x="1351" d="M43 1032v320h1257l19 -320h-55q-9 147 -71.5 200.5t-211.5 53.5q-8 0 -34 0.5t-39.5 0t-36.5 -1.5t-35.5 -4.5t-26.5 -9.5t-20.5 -16t-6.5 -24v-971q0 -62 7.5 -98t32 -64t69 -40t119.5 -15v-47q-56 1 -169.5 4t-170.5 4q-54 -1 -162 -4t-164 -4v47q75 3 119.5 15 t68.5 40t31.5 64t7.5 98v971q0 20 -11 32t-38 17t-45 5.5t-58 0.5h-6.5h-6.5h-7q-45 0 -72 -1t-60.5 -4.5t-53 -10.5t-41.5 -19.5t-34.5 -31t-24 -45t-17 -61.5t-6.5 -81h-47z" />
<glyph unicode="U" horiz-adv-x="1597" d="M57 1305v47q48 -1 145.5 -4.5t145.5 -4.5q52 1 155.5 4.5t155.5 4.5v-47q-30 0 -42.5 -0.5t-39.5 -3.5t-41.5 -10t-30 -21t-22.5 -35q-18 -55 -18 -272v-504q0 -204 89.5 -308t293.5 -104q211 0 317.5 107.5t106.5 314.5v449q0 226 -21 292q-10 31 -29.5 51t-47.5 29 t-53 12t-60 3v47q40 -1 118.5 -4.5t118.5 -4.5q37 1 113.5 4.5t116.5 4.5v-47q-81 -2 -109 -14q-40 -18 -57 -60q-29 -74 -29 -313v-379q0 -287 -124.5 -426.5t-409.5 -139.5q-283 0 -414 114t-131 386v490q0 214 -21 272q-8 20 -23.5 34t-30.5 21t-40 10.5t-40 4t-42 0.5z " />
<glyph unicode="V" horiz-adv-x="1310" d="M-61 1305v47q48 -1 144 -4.5t144 -4.5q50 1 150.5 4.5t150.5 4.5v-47q-25 0 -40 -0.5t-40.5 -5t-40.5 -12.5t-26.5 -25t-11.5 -41q0 -67 155 -471l209 -521l195 476q153 414 153 499q0 29 -10 49.5t-22.5 30.5t-38 15t-41 5.5t-47.5 0.5v47q39 -1 116.5 -4.5t116.5 -4.5 q36 1 107.5 4.5t107.5 4.5v-47q-32 0 -60.5 -8t-49 -20t-39.5 -34t-31 -40.5t-25.5 -49.5t-21 -51.5t-20 -55.5t-19.5 -53l-416 -1034h-61l-441 1094q-6 14 -16.5 42.5t-16.5 42t-16.5 37t-19.5 36t-22.5 30t-28 26.5t-33.5 18.5t-42.5 14t-51.5 5.5z" />
<glyph unicode="W" horiz-adv-x="1843" d="M-41 1305v47q49 -1 147.5 -4.5t147.5 -4.5q50 1 151.5 4.5t151.5 4.5v-47q-3 0 -23 -1.5t-27.5 -2.5t-26 -3.5t-27.5 -6t-24.5 -8.5t-23 -12.5l-16.5 -16.5t-12.5 -22t-3.5 -28q0 -16 8 -53.5t16.5 -68.5t21.5 -76t15 -52l215 -702h4l322 1100h65l336 -1084h4l140 447 q108 360 108 452q0 44 -11 71t-35.5 39.5t-49 17.5t-66.5 9h-5t-4.5 0.5t-4.5 0.5v47q37 -1 110.5 -4.5t110.5 -4.5q36 1 106.5 4.5t106.5 4.5v-47q-22 1 -42 -3.5t-35.5 -11.5t-29.5 -20.5t-24 -25t-20 -31t-16.5 -33t-14 -37t-11 -36.5t-10.5 -37.5t-10 -35.5l-338 -1075 h-71l-320 1047h-4l-162 -557q-27 -82 -83.5 -245t-84.5 -245h-69l-359 1102q-3 8 -14 43t-19 58t-20 50t-23 39q-16 22 -42.5 34t-46 14.5t-58.5 5.5z" />
<glyph unicode="X" horiz-adv-x="1515" d="M29 1305v47q46 -1 139 -4.5t139 -4.5q50 1 151.5 4.5t151.5 4.5v-47q-4 0 -19 -0.5t-22 -1t-21.5 -1.5t-22.5 -2.5t-20 -4t-19 -7t-14 -10t-10 -13t-3 -16.5q0 -14 9 -34t18 -33t25.5 -36t18.5 -26l263 -336l81 113q4 5 31 41t43 57t42 59t40.5 64.5t26.5 55.5t12 49 q0 24 -9 39.5t-26.5 22t-34.5 9.5t-40.5 5.5t-36.5 5.5v47q41 -1 122.5 -4.5t122.5 -4.5q36 1 106.5 4.5t106.5 4.5v-47q-99 -15 -141 -50q-16 -13 -40.5 -41t-42.5 -51.5t-45 -59.5t-34 -46l-250 -320l453 -569q35 -44 59 -68t64 -42q33 -15 70 -16q8 0 16 1v-47 q-48 1 -144.5 4t-144.5 4q-51 -1 -154.5 -4t-154.5 -4v47q5 1 48.5 1t74 8.5t30.5 31.5q0 42 -108 180l-246 320l-137 -174q-174 -226 -174 -299q0 -15 6 -27t18 -19t24 -11.5t30.5 -6.5t29.5 -2.5t29 -0.5t23 -1v-47q-41 1 -124 4t-124 4q-40 -1 -120 -4t-120 -4v47 q51 4 89.5 17t72 39t57 51.5t58.5 70.5l321 410l-422 536q-56 72 -79 92q-49 42 -119 46z" />
<glyph unicode="Y" d="M-137 1305v47q46 -1 139 -4.5t139 -4.5q48 1 144.5 4.5t144.5 4.5v-47q-94 0 -126 -19q-27 -18 -28 -47q0 -11 1.5 -21.5t5.5 -22.5l6.5 -19.5t9 -21.5t9.5 -19t11.5 -20.5t10.5 -18.5l266 -494l131 209q203 340 203 408q0 13 -3 23.5t-10 18.5t-13 14t-18 10t-19 7 t-22.5 5.5t-21.5 3.5t-22 2.5t-19 1.5v47q37 -1 109.5 -4.5t109.5 -4.5q34 1 100.5 4.5t100.5 4.5v-47q-41 -3 -72.5 -17t-57 -41t-41 -49.5t-39.5 -63.5q-5 -8 -7 -12l-354 -585v-273q0 -43 0.5 -65.5t4 -48.5t7.5 -37.5t16 -25.5t23.5 -18.5t37 -11t49 -9t65.5 -5.5v-47 q-51 1 -154 4t-154 4q-52 -1 -156.5 -4t-156.5 -4v47q42 3 66.5 5.5t49.5 9t37 11.5t24.5 18.5t16.5 25.5t8 37.5t4.5 48.5t0.5 65v254l-189 326q-3 5 -38 72t-69 129.5t-75.5 130t-66.5 92.5q-12 14 -27 21t-26.5 9t-32 3.5t-33.5 3.5z" />
<glyph unicode="Z" horiz-adv-x="1228" d="M72 0l784 1296h-297q-54 0 -89 -1.5t-75 -8t-66 -18t-52.5 -31t-43 -48.5t-30 -70t-21.5 -95h-55l20 328h975l-780 -1297h346q72 0 120 4t92.5 16.5t72.5 33.5t53 57.5t41.5 86t30.5 120.5h55l-31 -373h-1050z" />
<glyph unicode="[" horiz-adv-x="901" d="M322 -307v1704h432v-66h-297v-1573h297v-65h-432z" />
<glyph unicode="\" horiz-adv-x="532" d="M-168 1397h107l761 -1397h-106z" />
<glyph unicode="]" horiz-adv-x="901" d="M147 -242h297v1573h-297v66h433v-1704h-433v65z" />
<glyph unicode="^" d="M70 514l391 829h143l391 -829h-104l-359 727l-366 -727h-96z" />
<glyph unicode="_" horiz-adv-x="1024" d="M0 -154h1024v-102h-1024v102z" />
<glyph unicode="`" horiz-adv-x="737" d="M135 1315q0 29 20.5 50t49.5 21q31 0 90 -47l321 -254h-75l-277 119q-3 1 -22 8.5t-26 10.5t-23 11t-23.5 15t-17 17.5t-13.5 22.5t-4 26z" />
<glyph unicode="a" horiz-adv-x="983" d="M70 154q0 46 20 87t46 68.5t73 56.5t77 43.5t82 37.5q9 4 15 6.5t12 5.5l203 98q6 3 9.5 7t5 12t2 11.5t0 15t-0.5 13.5q0 49 -2.5 79t-12.5 64t-29 52.5t-53 30.5t-83 12q-36 0 -59.5 -1.5t-50 -8t-42.5 -19t-27 -34.5t-13 -54q-3 -37 -24.5 -63.5t-57.5 -26.5 q-34 0 -56 20.5t-22 53.5q0 43 29.5 76.5t72.5 52.5t98 31t97.5 16t79.5 4q89 0 148 -13t102 -46t62.5 -90.5t19.5 -145.5v-338v-20v-26.5t0.5 -28.5t2.5 -30.5t5.5 -28.5t9 -27.5t12.5 -20.5t17.5 -15t23.5 -5q12 0 21.5 3t19.5 12t14.5 13.5t15.5 19.5t13 17l39 -20 q-27 -55 -78.5 -96.5t-105.5 -41.5q-62 0 -111.5 42t-64.5 104q-180 -146 -342 -146q-87 0 -150 49.5t-63 131.5zM260 203q0 -60 35.5 -104t95.5 -44q55 0 115 34.5t110 82.5v334q-16 -8 -57.5 -26.5t-67.5 -31.5t-65.5 -34t-65 -42t-50.5 -47t-37.5 -57t-12.5 -65z" />
<glyph unicode="b" horiz-adv-x="1146" d="M35 1290v41l327 66v-611q112 115 279 115q193 0 318.5 -134t125.5 -325q0 -128 -59 -235.5t-164.5 -170.5t-234.5 -63q-86 0 -172.5 34.5t-139.5 96.5l-98 -118h-29v1032q0 176 -20 219q-7 15 -18 24.5t-27.5 14.5t-27 7t-32 4t-28.5 3zM362 242q0 -103 57 -158t165 -55 q67 0 120 24t85.5 62.5t53.5 92.5t29.5 109.5t8.5 118.5q0 60 -8.5 114.5t-30 107.5t-54 91.5t-84 62.5t-116.5 24q-58 0 -117 -29.5t-84 -77.5q-25 -51 -25 -151v-336z" />
<glyph unicode="c" horiz-adv-x="942" d="M82 408q0 214 143.5 353.5t358.5 139.5q36 0 76.5 -6t85.5 -19.5t74.5 -42.5t29.5 -69q0 -28 -20.5 -52t-47.5 -24q-61 0 -90 80q-20 48 -41 63t-76 15q-64 0 -114.5 -25t-82.5 -65.5t-53 -95t-29.5 -109t-8.5 -111.5q0 -63 8.5 -118t29.5 -108t53.5 -91t84.5 -61 t119 -23q146 0 258 129l43 -37q-62 -77 -159.5 -117.5t-201.5 -40.5q-191 0 -315.5 122.5t-124.5 312.5z" />
<glyph unicode="d" horiz-adv-x="1187" d="M78 426q0 125 54 233t155 175t227 67q184 0 293 -127v324q0 43 -2 67.5t-10 51.5t-24.5 40t-45.5 22.5t-72 10.5v41l328 66v-1035q0 -159 20 -212q9 -25 22.5 -39.5t34.5 -20.5t36 -7t45 -1h10v-41l-275 -68q-30 60 -40 156q-67 -81 -142.5 -118.5t-177.5 -37.5 q-191 0 -313.5 130t-122.5 323zM283 426q0 -59 7.5 -112.5t27.5 -106.5t50.5 -91.5t80.5 -62.5t114 -24q67 0 115.5 24.5t76 68.5t40 97t12.5 117v291q0 92 -74.5 150.5t-169.5 58.5q-64 0 -114 -26t-80.5 -67t-50.5 -96.5t-27.5 -109.5t-7.5 -111z" />
<glyph unicode="e" horiz-adv-x="1024" d="M82 414q0 128 59 239t166 179.5t236 68.5q104 0 191 -36.5t143.5 -114t56.5 -183.5q0 -8 -3 -12.5t-9.5 -5.5t-11.5 -1t-14 0.5t-13 0.5h-588l-8 -98q0 -75 20 -147t58 -132t101 -96.5t142 -36.5q74 0 141.5 42t116.5 109l43 -43q-140 -174 -364 -174q-194 0 -328.5 124 t-134.5 317zM305 604h338q3 0 18 -0.5t23 -0.5t21 2t20 6.5t12.5 13t5.5 20.5q0 97 -51.5 153t-146.5 56q-193 0 -240 -250z" />
<glyph unicode="f" horiz-adv-x="655" d="M18 -4v41q117 6 150 48q25 31 27 122v55v520h-164v56h164v110q0 209 87.5 318.5t292.5 109.5q34 0 72 -5.5t80.5 -18.5t70 -40.5t27.5 -64.5q0 -27 -21.5 -46t-49.5 -19q-50 0 -72 57q-19 48 -43.5 69t-75.5 21q-61 0 -101.5 -22.5t-62.5 -75.5q-14 -34 -21.5 -84 t-8 -79.5t-0.5 -88.5v-141h252v-56h-252v-542q0 -78 18 -127q7 -20 21.5 -34.5t28.5 -22t37.5 -11.5t37.5 -5t42 -1.5t38 -1.5v-41q-49 1 -146.5 4t-146.5 4q-47 -1 -140.5 -4t-140.5 -4z" />
<glyph unicode="g" d="M68 -281q0 66 43.5 118t107.5 52q47 0 86 -36q-48 -9 -77 -52t-29 -94q0 -63 29.5 -107.5t80.5 -66t102.5 -30.5t112.5 -9q56 0 107.5 12.5t95.5 38.5t70 71t26 105q0 29 -7 54t-17 43t-29 33t-35 24.5t-42.5 17t-45 11.5t-49.5 7.5t-48 4t-49 2t-44 2.5q-132 4 -182 16 q-140 33 -140 168q0 70 54.5 118.5t125.5 58.5v4q-92 30 -155.5 108.5t-63.5 173.5q0 104 55 181.5t141 115t189 37.5q158 0 260 -92q110 86 199 86q46 0 83.5 -22.5t37.5 -65.5q0 -28 -19.5 -48t-48.5 -20q-21 0 -38.5 11.5t-28 24.5t-28 24.5t-38.5 11.5q-34 0 -84 -39 q74 -83 74 -201q0 -87 -31 -150t-87.5 -98t-123 -52t-151.5 -21q-122 -4 -168 -23q-51 -22 -51 -63q0 -20 11 -34t32.5 -20t37.5 -8.5t44 -4t32 -1.5l137 -6q167 -13 231 -30q148 -40 186 -163q14 -46 14 -106q0 -93 -40.5 -162.5t-109.5 -107.5t-147.5 -56t-167.5 -18 q-55 0 -110.5 7.5t-114 27t-103.5 49.5t-73.5 78.5t-28.5 109.5zM270 571q0 -49 10.5 -95t32.5 -87.5t61.5 -66.5t92.5 -25q57 0 99 23.5t65 64t34 87t11 99.5t-10.5 100.5t-33 90t-64 67.5t-97.5 25t-97.5 -25.5t-63 -68.5t-31 -89.5t-9.5 -99.5z" />
<glyph unicode="h" horiz-adv-x="1228" d="M61 1290v41l328 66v-672h4q53 84 135.5 130t180.5 46q149 0 228 -71.5t79 -215.5v-370q0 -14 -0.5 -38t-0.5 -34.5t1 -29.5t3.5 -27t7 -21t11.5 -19t17.5 -14t25 -12t33.5 -7.5t43 -4.5v-41q-40 1 -118.5 4t-118.5 4q-38 -1 -112.5 -4t-107.5 -4v41q27 2 47.5 5.5 t35.5 8.5t25 12.5t17 17.5t10.5 22t5 27.5t1.5 33.5v40v27v304q0 47 -2.5 82.5t-13.5 79.5t-30 72t-55 47.5t-86 19.5q-66 0 -132 -41.5t-97 -102.5q-37 -74 -37 -223v-225v-35q-1 -24 -0.5 -44t2.5 -37t7.5 -30.5t15.5 -24t25.5 -18t38.5 -12t54 -6.5v-41q-38 1 -112.5 4 t-112.5 4q-39 -1 -117.5 -4t-117.5 -4v41q27 2 47.5 5.5t35.5 8.5t25.5 12.5t17.5 17.5t10.5 22.5t5 28t1.5 34v40.5v25v787q0 176 -20 219q-7 15 -18 24.5t-27.5 14.5t-27 7t-32.5 4t-29 3z" />
<glyph unicode="i" horiz-adv-x="573" d="M51 797v41l324 63v-657q0 -17 0.5 -42t0.5 -37.5t1.5 -31.5t5 -28t10.5 -21.5t17 -18.5t25 -13t35.5 -10t47.5 -5v-41q-33 1 -107 4t-112 4q-40 -1 -120 -4t-120 -4v41q42 3 68.5 10.5t41.5 18.5t21.5 32t8.5 43.5t2 60.5v9.5v9v10.5v293q0 197 -8 228q-13 46 -116 46 q-13 0 -26 -1zM154 1266q0 46 32 78t78 32t77.5 -32t31.5 -78q0 -44 -31 -76.5t-74 -32.5q-47 0 -80.5 31.5t-33.5 77.5z" />
<glyph unicode="j" horiz-adv-x="532" d="M-309 -412q0 27 21 44.5t48 17.5q22 0 38 -11.5t24.5 -28t21.5 -36.5t27 -36.5t42.5 -28t66.5 -11.5q37 0 67.5 9.5t51 29.5t36 41.5t24 55.5t14 60t7 66.5t2.5 64.5v18q0 19 -1 47q-1 40 -1 55v579q0 197 -8 228q-13 46 -116 46q-12 0 -25 -1v41l323 63v-1067 q0 -190 -103.5 -286.5t-297.5 -96.5q-36 0 -76.5 6.5t-84.5 20.5t-72.5 43t-28.5 67zM135 1266q0 46 31.5 78t77.5 32q47 0 78.5 -32t31.5 -78q0 -44 -30.5 -76.5t-73.5 -32.5q-47 0 -81 31.5t-34 77.5z" />
<glyph unicode="k" d="M59 1290v41l330 66v-961l137 146q156 165 156 209q0 51 -109 51v41q29 -1 90.5 -4.5t90.5 -4.5q29 1 87 4.5t87 4.5v-41q-21 -1 -38.5 -3.5t-29.5 -4.5t-26.5 -10.5t-21 -11.5t-21.5 -17.5t-19 -18.5t-22.5 -24.5t-24.5 -26.5l-188 -211l393 -385q10 -9 32.5 -31.5 t31.5 -29.5t30 -17t47 -14v-41q-21 1 -63 4t-62 4q-21 -1 -63 -4t-64 -4l-389 416l-41 -41v-127q0 -14 -0.5 -38t-0.5 -34.5t1 -29.5t3.5 -27t7 -21t12 -19t18 -14t25.5 -12t34 -7.5t43 -4.5v-41q-38 1 -114.5 4t-114.5 4q-36 -1 -113 -4t-118 -4v41q27 2 47.5 5.5t35.5 8.5 t25.5 12.5t17.5 17.5t10.5 22.5t5 28t1.5 34v40.5v25v811q0 158 -22 195q-7 11 -17 19.5t-18 13.5t-24.5 9t-23 5t-27.5 3.5t-24 2.5z" />
<glyph unicode="l" horiz-adv-x="573" d="M47 1290v41l328 66v-1153q0 -17 0.5 -42t0.5 -37.5t1.5 -31.5t5 -28t10.5 -21.5t17 -18.5t25 -13t35.5 -10t47.5 -5v-41q-41 1 -119 4t-116 4q-38 -1 -113 -4t-113 -4v41q24 2 43 4.5t33.5 7t25 10.5t18 14t12 18t7.5 22t4 26.5t1 31.5v37v23v787q0 174 -21 219 q-7 15 -18 24.5t-27.5 14.5t-27 7t-32 4t-28.5 3z" />
<glyph unicode="m" horiz-adv-x="1761" d="M57 797v41q59 7 151.5 31.5t131.5 31.5l22 -166q124 166 310 166q64 0 117.5 -15t98 -53.5t64.5 -97.5q110 166 312 166q161 0 239 -98q25 -31 38.5 -84.5t15.5 -91t2 -95.5v-288v-42v-37.5t1.5 -32t5 -27t9.5 -22.5t16 -18t25 -13.5t35 -9t47 -5.5v-41q-38 1 -114 4 t-114 4q-38 -1 -113.5 -4t-113.5 -4v41q52 3 81 12.5t41.5 32t15.5 46t3 72.5v31v258v30v63t-3.5 60.5t-10 61t-20.5 51t-34 44t-51 26.5t-71 11q-62 0 -117 -39t-82 -97q-13 -27 -19 -67t-6.5 -65t-0.5 -79v-245q1 -34 0.5 -61.5t1 -50t8.5 -39t22 -28.5t41 -19t66 -9v-41 q-37 1 -111.5 4t-111.5 4q-39 -1 -116 -4t-116 -4v41q42 3 68.5 10.5t42 18t22 31.5t8 42.5t1.5 59.5v32v258q0 132 -6 174q-21 147 -137 169q-22 4 -48 4q-62 0 -116.5 -38.5t-81.5 -97.5q-13 -28 -19 -67t-7 -66t-1 -78v-245v-42v-38t1 -31.5t4.5 -27.5t9.5 -21.5 t16 -18.5t24.5 -13t34.5 -10t47 -5v-41q-37 1 -110.5 4t-110.5 4q-39 -1 -117 -4t-117 -4v41q24 2 43 4.5t33.5 7t25 10.5t18 14t12 18t7.5 22t4 26.5t1 31.5v37v23v252q0 201 -10 248q-3 12 -6.5 21.5t-10 16.5t-11.5 12t-15 8t-15 5t-18.5 2.5t-19 0.5h-21.5h-21z" />
<glyph unicode="n" horiz-adv-x="1228" d="M68 797v41q59 7 151 31.5t131 31.5l27 -186h4q105 186 328 186q305 0 305 -283v-374v-35q-1 -24 -0.5 -44t2.5 -37t7.5 -30.5t15.5 -24t25.5 -18t38.5 -12t54 -6.5v-41q-37 1 -111.5 4t-111.5 4q-40 -1 -119 -4t-119 -4v41q24 2 43 4.5t33.5 7t25 10.5t18 14t12 18 t7.5 22t4 26.5t1 31.5v37v23v263v12q0 58 -1 90t-11 85t-28.5 81.5t-56.5 51t-92 22.5q-117 0 -189.5 -79.5t-72.5 -195.5v-317q0 -14 -0.5 -38t-0.5 -34.5t1 -29.5t3.5 -27t7 -21t12 -19t18 -14t25.5 -12t34 -7.5t43 -4.5v-41q-37 1 -111.5 4t-111.5 4q-40 -1 -118.5 -4 t-118.5 -4v41q27 2 47.5 5.5t35.5 8.5t25.5 12.5t17.5 17.5t10.5 22.5t5 28t1.5 34v40.5v25v252q0 201 -10 248q-3 14 -8.5 24.5t-10 17.5t-15.5 11.5t-15 7t-20.5 4t-20 1.5h-24h-23.5z" />
<glyph unicode="o" horiz-adv-x="1146" d="M82 449q0 127 70.5 232t183 162.5t237.5 57.5q127 0 240 -59.5t183.5 -166.5t70.5 -235q0 -135 -67.5 -242.5t-180 -166t-246.5 -58.5q-132 0 -244.5 62t-179.5 172t-67 242zM287 440q0 -63 7.5 -119t28 -112.5t53 -97t86 -66t122.5 -25.5q64 0 114 25.5t80.5 65.5t50 95 t26.5 109t7 113q0 64 -7.5 120.5t-27.5 114t-52.5 98.5t-86 67t-123.5 26q-79 0 -136.5 -38.5t-86.5 -103t-42 -131.5t-13 -141z" />
<glyph unicode="p" horiz-adv-x="1187" d="M51 797v41q90 12 297 63v-170h4q119 170 303 170q200 0 327.5 -133.5t127.5 -335.5q0 -124 -56 -229t-158 -167.5t-228 -62.5q-89 0 -158.5 28t-136.5 89v-397q0 -105 4 -126q9 -51 57 -68q33 -12 96 -15v-41q-38 1 -113.5 4t-113.5 4q-41 -1 -123 -4t-123 -4v41 q27 2 47.5 5.5t35.5 9t25 13t17 17.5t10.5 23t5 28t1.5 33.5v40.5v27v802q0 196 -11 248q-3 14 -8.5 24.5t-10 17.5t-15.5 11.5t-15 7t-20.5 4t-20 1.5h-24h-23.5zM373 344q0 -50 1.5 -80t12 -74.5t31.5 -68.5q34 -40 88 -61t112 -21q64 0 114.5 24t82 63t52.5 92.5 t29.5 107.5t8.5 112q0 76 -13.5 142t-43.5 126t-87.5 95t-137.5 35q-65 0 -120 -31t-87 -86q-20 -35 -30 -76.5t-11.5 -70t-1.5 -83.5v-145z" />
<glyph unicode="q" horiz-adv-x="1146" d="M78 430q0 198 133.5 334.5t331.5 136.5q72 0 151 -26t131 -72l142 98v-1208q0 -14 -0.5 -38t-0.5 -34.5t1 -29.5t3.5 -27t7 -21.5t11.5 -19t17.5 -14t25 -12.5t33.5 -7.5t43 -5.5v-41q-37 1 -111.5 4t-111.5 4q-42 -1 -125 -4t-125 -4v41q27 2 47 5.5t36.5 6.5t28 11 t19.5 13t13 19t8 22t4.5 29.5t1.5 33.5v42v15v425h-5q-43 -66 -114.5 -99.5t-157.5 -33.5q-197 0 -317.5 129.5t-120.5 327.5zM283 420q0 -59 7 -111t26 -105t49 -90.5t79 -61t113 -23.5q65 0 113 26t73.5 71t37.5 97t12 113v219q0 57 -10.5 104t-34.5 88.5t-68.5 65 t-106.5 23.5q-68 0 -120.5 -25.5t-84 -66t-51.5 -96.5t-27 -111t-7 -117z" />
<glyph unicode="r" horiz-adv-x="819" d="M68 797v41q43 3 89.5 13.5t101 26.5t85.5 23q25 -83 25 -185v-22h4q41 96 117.5 151.5t179.5 55.5q55 0 100 -27t45 -79q0 -29 -21.5 -51.5t-50.5 -22.5t-48 16.5t-27.5 36.5t-26.5 36.5t-45 16.5q-44 0 -89.5 -30.5t-70.5 -71.5q-22 -39 -33 -92t-12.5 -88.5t-1.5 -98.5 v-202v-35q-1 -34 -0.5 -49t3 -37.5t8.5 -31.5t17 -21.5t28 -17.5t41.5 -9t58.5 -6v-41q-39 1 -118 4t-118 4q-40 -1 -118.5 -4t-118.5 -4v41q27 2 47.5 5.5t35.5 8.5t25.5 12.5t17.5 17.5t10.5 22.5t5 28t1.5 34v40.5v25v252q0 208 -12 248q-3 12 -7 21.5t-10 16.5t-11 12 t-14.5 8t-14.5 5t-18 2.5t-18 0.5h-21h-21z" />
<glyph unicode="s" horiz-adv-x="737" d="M66 281h40q66 -261 254 -261q73 0 122.5 37t49.5 107q0 21 -6 41t-13 34.5t-24 30.5t-26 25t-34 23.5t-33 19t-36.5 19t-33.5 16.5q-39 20 -60.5 32t-55 33.5t-53 41.5t-39.5 46.5t-29 59t-9 69.5q0 105 73.5 175.5t180.5 70.5q110 0 198 -51l41 49h25l-4 -256h-41 q-17 48 -31 77.5t-39 64.5t-60 52t-81 17q-54 0 -92.5 -30t-38.5 -83q0 -30 10.5 -54.5t36 -45.5t41.5 -31.5t54.5 -30t47.5 -24.5q118 -62 148 -83q101 -69 118 -172q5 -26 5 -56q0 -122 -88.5 -196.5t-212.5 -74.5q-134 0 -226 74l-51 -59h-20z" />
<glyph unicode="t" horiz-adv-x="655" d="M92 811v37q195 113 248 258h31v-240h233v-55h-233v-584q0 -39 5 -69t17.5 -59t39 -44.5t65.5 -15.5q49 0 80 22.5t67 69.5l37 -27q-26 -68 -91 -99.5t-147 -31.5q-247 0 -247 211v627h-105z" />
<glyph unicode="u" horiz-adv-x="1187" d="M39 844v39q29 -1 85 -4.5t85 -4.5q27 1 81 4.5t79 4.5v-559q0 -45 2 -77t12 -74.5t27 -69t50 -45.5t79 -19q119 0 199.5 90.5t80.5 212.5v274v31v46t-2 36.5t-5.5 32t-11 24t-18.5 21t-27.5 15t-38.5 13.5t-52 9v41q28 -2 84.5 -5.5t85.5 -5.5q25 2 78.5 5.5t80.5 5.5 v-660q0 -23 0.5 -36t4.5 -35t11.5 -34.5t22.5 -22t37 -9.5q11 0 24 1t29 2.5t25 2.5v-47l-285 -74l-43 193q-57 -87 -149 -140t-193 -53q-149 0 -215.5 75.5t-66.5 217.5v350v29q1 22 0.5 41t-1.5 35t-4 29.5t-8 24.5t-13 20t-19.5 16.5t-27.5 13.5t-36.5 10.5t-46.5 8.5z " />
<glyph unicode="v" horiz-adv-x="860" d="M-31 842v41q37 -1 109.5 -4.5t109.5 -4.5q103 3 209 9v-41q-116 -5 -116 -68q0 -19 26 -100l199 -494q11 34 66 168.5t97 251t42 158.5q0 24 -10.5 40.5t-31 25t-35.5 12t-40 6.5v41q26 -1 75.5 -4.5t75.5 -4.5q24 1 73.5 4.5t74.5 4.5v-41q-50 -11 -80 -49 q-41 -54 -106 -238l-242 -596h-43l-307 731q-3 6 -10.5 25.5t-10.5 26t-10 22t-12 21.5t-13.5 17t-16.5 16t-19.5 11.5t-24.5 9t-29 3.5z" />
<glyph unicode="w" horiz-adv-x="1310" d="M-29 844v39q38 -1 114 -4.5t114 -4.5q37 1 110.5 4.5t110.5 4.5v-39q-30 -1 -56.5 -8t-49.5 -28.5t-23 -53.5q0 -16 8.5 -49.5t21.5 -75t15 -49.5l119 -379h4l233 676h29l262 -676h4l127 420q25 85 25 124q0 82 -123 99v39q26 -1 80.5 -4.5t81.5 -4.5q27 1 81.5 4.5 t81.5 4.5v-39q-26 -2 -77 -33q-15 -11 -30 -37.5t-22 -44t-20 -57.5l-14 -39l-215 -674h-54l-256 643l-233 -643h-51l-219 662q-1 2 -8.5 28t-11 36.5t-11 31t-14.5 34.5t-15 25q-20 27 -53 46t-66 22z" />
<glyph unicode="x" d="M23 -4v41q35 1 66 11t52 21.5t48.5 38.5t41 43t43.5 52l160 198l-276 349q-41 53 -59 66q-28 21 -76 26v41q36 -1 107.5 -4.5t107.5 -4.5q37 1 110.5 4.5t110.5 4.5v-41q-4 -2 -23.5 -4t-38.5 -5t-35 -12t-16 -22q0 -10 14 -32.5t29 -41t36.5 -44.5t23.5 -28l104 -127 l100 127q3 4 19.5 25t26.5 35t20 33t10 30q0 34 -35 50t-73 16v41q30 -1 92.5 -4.5t93.5 -4.5q30 1 88 4.5t88 4.5v-41q-36 -2 -64 -11t-53 -29t-40.5 -36t-42.5 -48q-7 -9 -11 -13l-186 -218l282 -327q7 -7 23 -26t22 -25l19.5 -19.5t22.5 -18.5t23.5 -13.5t30.5 -13 t35 -7.5v-41q-38 1 -114.5 4t-114.5 4q-40 -1 -120 -4t-120 -4v41h22t32 1t30.5 4.5t25.5 12.5t9 23q0 6 -2.5 13.5t-6 13t-10 14t-10 12.5l-10.5 12t-8 9l-174 206l-84 -106q-94 -108 -94 -150q0 -54 111 -65v-41q-31 1 -95.5 4t-95.5 4q-31 -1 -96 -4t-96 -4z" />
<glyph unicode="y" horiz-adv-x="860" d="M-31 842v41q35 -1 104.5 -4.5t104.5 -4.5q39 1 116 4.5t116 4.5v-41q-6 -2 -31 -6t-43.5 -9t-34.5 -19.5t-16 -37.5q0 -45 84 -246l131 -313l153 369q58 142 58 190q0 26 -20.5 43t-43 22.5t-49.5 6.5v41q27 -1 79.5 -4.5t78.5 -4.5q22 1 67 4.5t68 4.5v-41 q-25 -1 -42 -7t-28.5 -20.5t-18 -26.5t-16 -37.5t-16.5 -39.5l-27 -60l-426 -983q-1 -2 -10 -23.5t-13 -30t-14.5 -31t-17.5 -34t-18.5 -30.5t-22 -29.5t-23 -21.5t-26 -16t-27.5 -5q-7 -2 -14 -2q-17 0 -29 12q-18 16 -18 39q0 32 19 54.5t43 33t52.5 27.5t41.5 37 q27 41 92 188l78 174l-289 674q-34 85 -60 115q-14 15 -43.5 29t-48.5 14z" />
<glyph unicode="z" horiz-adv-x="860" d="M49 0l533 827h-189h-46t-39.5 -1.5t-36.5 -4t-30.5 -8t-28.5 -13.5t-22 -19.5t-20 -27.5t-14.5 -37t-12.5 -48h-39l19 206h690l-530 -827h217q59 0 88 2t65.5 11t55.5 28t37.5 53t31.5 86h35l-18 -227h-746z" />
<glyph unicode="{" horiz-adv-x="573" d="M72 545v8q94 19 124.5 65.5t30.5 151.5v330q0 170 57.5 237t217.5 60v-4q-79 -21 -111.5 -74.5t-32.5 -147.5v-348q0 -119 -34 -183.5t-136 -86.5v-8q99 -18 134.5 -76.5t35.5 -169.5v-381q0 -97 32 -147t118 -74v-4q-158 0 -219.5 56t-61.5 210v369q0 88 -36.5 149 t-118.5 68z" />
<glyph unicode="|" horiz-adv-x="532" d="M199 0v1397h137v-1397h-137z" />
<glyph unicode="}" horiz-adv-x="573" d="M66 1393v4q158 0 219 -56.5t61 -210.5v-368q0 -87 37 -148.5t119 -68.5v-8q-94 -19 -125 -66t-31 -152v-329q0 -86 -12 -141t-43 -93t-84 -52.5t-135 -10.5v4q79 21 111 74t32 147v348q0 119 34 184t136 87v8q-99 18 -134.5 76.5t-35.5 169.5v380q0 98 -31.5 148 t-117.5 74z" />
<glyph unicode="~" d="M25 412q28 51 53 87.5t61 75t81 58.5t97 20q78 0 240 -71q7 -3 26.5 -12t27.5 -12.5t25 -11t25.5 -11t23 -9t23.5 -8t21 -5.5t21 -4t18 -1q62 0 114.5 51.5t88.5 122.5l69 -76q-125 -227 -290 -227q-24 0 -57 9.5t-51.5 17t-67 30.5t-58.5 27q-130 57 -215 57 q-36 0 -67 -14.5t-55.5 -42t-41 -52t-36.5 -59.5q-6 -11 -9 -16z" />
<glyph unicode="&#xa1;" horiz-adv-x="655" d="M211 782q0 47 32.5 83t78.5 36q49 0 85.5 -32t36.5 -81t-33 -84.5t-83 -35.5q-48 0 -82.5 33.5t-34.5 80.5zM221 -369q0 78 33 222q63 310 53 698h49q-7 -390 56 -698q30 -137 30 -213q0 -58 -27.5 -101t-82.5 -43q-51 0 -81 41t-30 94z" />
<glyph unicode="&#xa2;" d="M147 653q0 207 142.5 347.5t349.5 140.5q15 -1 42 -2t42 -2l92 227h76l-94 -240q49 -15 87 -46.5t38 -76.5q0 -28 -19.5 -47.5t-48.5 -19.5q-42 0 -63.5 32t-26.5 78h-4l-277 -710q94 -58 179 -58q67 0 123 35t122 99l41 -41q-61 -75 -151 -116.5t-187 -41.5 q-75 0 -168 27l-100 -261h-76l113 287q-107 48 -169.5 158t-62.5 231zM352 668q0 -183 76 -277l274 692q-33 11 -61 11q-66 0 -117.5 -27t-83 -69t-52 -100t-28.5 -114t-8 -116z" />
<glyph unicode="&#xa3;" d="M37 109q0 71 47.5 115t120.5 44q112 0 201 -53l10 117q0 32 -4 64.5t-15 74.5t-16.5 61.5t-23 73t-19.5 60.5h-246v73h223q-47 165 -47 269q0 168 103.5 268t271.5 100q160 0 258 -80q66 -58 66 -120q0 -35 -22 -60.5t-56 -25.5q-74 0 -94 102q-14 58 -25 76 q-20 30 -57 45.5t-76 15.5q-93 0 -148 -61t-55 -156q0 -72 23 -172l49 -201h323v-73h-307q29 -114 29 -193q0 -162 -66 -283q58 -24 139.5 -40.5t143.5 -16.5q170 0 262 152q4 -75 -23.5 -145.5t-87 -118.5t-137.5 -48q-53 0 -115.5 21t-94 38t-103.5 58l-35 21 q-39 -61 -106 -99.5t-138 -38.5q-63 0 -108 37.5t-45 98.5zM88 113q0 -84 113 -84q123 0 186 116q-10 5 -40.5 22t-46 24t-41.5 14.5t-50 7.5q-50 0 -85.5 -26t-35.5 -74z" />
<glyph unicode="&#xa4;" d="M25 690q0 175 127 334l-111 111l53 53l111 -111q156 121 323 121q175 6 334 -117l111 111l53 -53l-111 -111q127 -159 127 -334t-127 -334l111 -110l-53 -53l-111 110q-153 -119 -334 -125q-167 0 -323 121l-111 -110l-53 53l111 110q-127 159 -127 334zM106 690 q0 -179 126 -302.5t305 -123.5q116 0 214 59t154 158t56 213q0 172 -124 297t-298 125q-181 0 -307 -122t-126 -304z" />
<glyph unicode="&#xa5;" d="M-27 1305v47q42 -1 126 -4.5t126 -4.5q43 1 129 4.5t129 4.5v-47q-95 0 -128 -19q-27 -17 -27 -47q0 -21 11 -53.5t33.5 -77.5t36.5 -72.5t42.5 -77t29.5 -51.5l101 -172l145 230q119 190 119 254q0 19 -8 33t-16.5 22t-28.5 14.5t-29.5 8t-34.5 4.5t-29 4v47 q34 -1 101.5 -4.5t101.5 -4.5q31 1 95 4.5t96 4.5v-47q-31 -6 -58 -21t-49.5 -40t-37 -46t-34.5 -55l-210 -332h237v-74h-285l-43 -65v-129h314v-74h-314v-268q0 -38 1 -56.5t8.5 -38.5t18 -27.5t36.5 -16t56 -12t85 -7.5v-47q-48 1 -145.5 4t-145.5 4q-49 -1 -148.5 -4 t-148.5 -4v47q55 4 85 7.5t57 12t37.5 16t19 27t9.5 39t1 56.5v268h-303v74h303v108l-53 86h-262v74h219l-156 270q-4 6 -20.5 35.5t-28 48.5t-28.5 45t-33 44.5t-29 27.5q-25 16 -76 23z" />
<glyph unicode="&#xa6;" horiz-adv-x="532" d="M199 0v559h137v-559h-137zM199 838v559h137v-559h-137z" />
<glyph unicode="&#xa7;" horiz-adv-x="1024" d="M111 -131q0 52 32.5 90.5t83.5 38.5q45 0 79 -35t34 -80q0 -40 -39 -90q-5 -6 -14.5 -16t-14 -15t-8.5 -12.5t-4 -13.5q0 -29 30.5 -51t74.5 -33.5t82.5 -17t64.5 -5.5q54 0 103.5 14t90.5 41.5t65 73t24 103.5q0 44 -18 80.5t-60 68.5t-65.5 46t-79.5 42q-10 5 -15 8 l-108 58q-57 30 -97.5 54t-88 62t-77 76t-49.5 91t-20 112q0 88 49.5 155.5t132.5 100.5q-60 53 -96.5 125.5t-36.5 149.5q0 146 94 226.5t244 80.5q55 0 112.5 -13t111.5 -39.5t88 -73t34 -106.5q0 -49 -31.5 -85t-79.5 -36q-46 0 -76 29t-30 74q0 32 18.5 57.5t37 43 t18.5 30.5q0 20 -25.5 35t-62 22.5t-66 11t-47.5 3.5q-98 0 -170 -48t-72 -141q0 -36 15.5 -69.5t34.5 -56t55.5 -49t57.5 -38.5t62 -35l111 -61q66 -37 114.5 -70.5t97.5 -81.5t75 -108t26 -129q0 -84 -40 -144.5t-117 -119.5q64 -48 101.5 -120t37.5 -151 q0 -161 -112.5 -253.5t-278.5 -92.5q-66 0 -133 17.5t-126 51t-96.5 90.5t-37.5 128zM193 623q0 -32 18 -62t56.5 -59t57.5 -41t62 -37l182 -105l148 -92q55 42 87 83.5t32 95.5q0 34 -19.5 66t-56 60t-63.5 45t-68 39q-9 5 -13 7l-133 73l-147 92q-35 -19 -52 -30.5 t-42.5 -32.5t-37 -46t-11.5 -56z" />
<glyph unicode="&#xa8;" horiz-adv-x="778" d="M135 1245q0 42 31.5 71.5t73.5 29.5q40 0 72 -30t32 -71q0 -45 -30 -76.5t-74 -31.5q-45 0 -75 31.5t-30 76.5zM416 1245q0 42 31.5 71.5t72.5 29.5q42 0 73.5 -30t31.5 -71q0 -45 -30 -76.5t-75 -31.5q-44 0 -74 31.5t-30 76.5z" />
<glyph unicode="&#xa9;" horiz-adv-x="1515" d="M72 672q0 142 53.5 272t144.5 224.5t217 151t265 56.5q141 0 269 -55.5t221 -149.5t147.5 -224t54.5 -273q0 -190 -92.5 -351.5t-251.5 -255.5t-346 -94q-139 0 -265.5 56t-217.5 149.5t-145 223t-54 270.5zM162 672q0 -124 46 -236.5t125 -194.5t189 -130t232 -48 q163 0 298.5 82t214.5 221.5t87 307.5q8 167 -72.5 308.5t-222 222.5t-307.5 81q-163 0 -299 -82.5t-213.5 -223.5t-77.5 -308zM385 666q0 182 108 292.5t285 110.5q128 0 273 -51v-207h-52q-2 98 -54.5 152.5t-151.5 54.5q-134 0 -206.5 -96.5t-72.5 -237.5 q0 -64 18 -125.5t52 -113.5t88.5 -83.5t120.5 -31.5q80 0 140.5 38.5t92.5 110.5l41 -16q-35 -90 -122 -140.5t-187 -50.5q-167 0 -270 111.5t-103 282.5z" />
<glyph unicode="&#xaa;" horiz-adv-x="696" d="M86 643v66h549v-66h-549zM92 930q0 21 6 39.5t14 33t24.5 29.5t28.5 24t34 21.5t34 18t37 17t33 15.5l88 43q10 7 10 27q0 36 -2.5 57t-11.5 42.5t-30 31.5t-54 10q-20 0 -41 -3.5t-41.5 -15.5t-21.5 -32q-4 -74 -54 -74q-22 0 -36.5 14t-14.5 36q0 33 24 57t61 35 t70 15.5t64 4.5q114 0 157.5 -39.5t43.5 -150.5v-178v-10.5v-15v-17.5t1 -19t2.5 -18t4.5 -17t7 -13t9.5 -9.5t12.5 -3.5q8 0 16 5t11.5 9t11 15t8.5 12l31 -19q-15 -35 -47.5 -62.5t-65.5 -27.5q-35 0 -65 24t-41 58q-100 -82 -195 -82q-52 0 -87.5 31t-35.5 82zM209 958 q0 -33 19 -56t51 -23q61 0 122 65v184q-9 -4 -37 -18t-43.5 -22t-40 -24t-37.5 -30t-23.5 -34t-10.5 -42z" />
<glyph unicode="&#xab;" horiz-adv-x="983" d="M143 453q126 106 187 159l121 115q2 1 9.5 9t15 13t13.5 5t11.5 -5.5t5.5 -11.5q0 -21 -39.5 -75.5t-73.5 -94.5l-94 -114l90 -113q115 -145 115 -176q0 -8 -6 -14.5t-13 -6.5t-15 5.5t-17 14.5l-11 11zM477 453q126 106 187 159l120 115q2 1 10 9t15.5 13t13.5 5 t11.5 -5.5t5.5 -11.5q0 -21 -39.5 -75.5t-73.5 -94.5l-94 -114l90 -113q115 -145 115 -176q0 -8 -6 -14.5t-13 -6.5t-15 5.5t-17 14.5l-11 11z" />
<glyph unicode="&#xac;" d="M68 641v94h929v-510h-94v416h-835z" />
<glyph unicode="&#xad;" horiz-adv-x="491" d="M0 391v137h494v-137h-494z" />
<glyph unicode="&#xae;" horiz-adv-x="1515" d="M72 676q0 190 92 351t250.5 255t345.5 94q140 0 266.5 -55.5t218 -149.5t145.5 -223.5t54 -271.5q0 -191 -91.5 -353t-249 -256t-343.5 -94q-187 0 -345.5 94t-250.5 256t-92 353zM162 676q0 -168 79.5 -309t217 -222.5t301.5 -81.5t301 81.5t215 222t78 309.5 q0 125 -46 237.5t-125 194.5t-189.5 130t-233.5 48t-234 -48t-190.5 -130t-126.5 -194.5t-47 -237.5zM438 1051v30h342q248 0 248 -192q0 -87 -61 -139t-148 -62v-4h4v-2h4q14 -1 28 -8t24.5 -15t23 -24.5t20 -27t18.5 -32.5l15.5 -31t14.5 -32t12 -27q43 -95 61 -118 q26 -23 74 -23v-31h-86q-53 0 -82 23q-36 29 -78 147q-3 7 -20 48t-31 67t-30 41q-15 14 -39 21t-36.5 7.5t-43.5 0.5h-35v-252q0 -11 1 -19.5t1.5 -15.5t4 -12t4.5 -9t8 -6.5t9 -4t12.5 -2.5t14 -1t18.5 -1t21 -1v-31h-291v31q10 1 29.5 2t24.5 2t16 4.5t13.5 9.5t5.5 17 t3 27v585q0 10 -0.5 17.5t-3.5 13.5t-4 9.5t-7.5 6.5t-9.5 4.5t-13 3t-14.5 2t-19.5 1.5t-22 2zM637 705h53q48 0 86 7t73 25t54 54t19 88q0 83 -48 125.5t-131 42.5h-53q-16 0 -26.5 -4.5t-15.5 -10t-7.5 -17.5t-3 -19.5t-0.5 -24.5v-8v-258z" />
<glyph unicode="&#xaf;" horiz-adv-x="819" d="M135 1190v84h533v-84h-533z" />
<glyph unicode="&#xb0;" horiz-adv-x="819" d="M154 1120q-2 104 74 180t182 76q104 0 180 -76t76 -180q0 -105 -75.5 -180.5t-180.5 -75.5q-106 0 -181 75t-75 181zM221 1120q0 -78 55.5 -133t133.5 -55q77 0 132.5 55t55.5 133q0 77 -56 133t-134 56q-76 0 -131.5 -56t-55.5 -133z" />
<glyph unicode="&#xb1;" d="M68 0v94h929v-94h-929zM68 575v95h417v364h95v-364h417v-95h-417v-370h-95v370h-417z" />
<glyph unicode="&#xb2;" horiz-adv-x="638" d="M35 551q23 41 59.5 86t64.5 74t77 77q105 95 139 134q96 112 96 233q0 80 -44.5 136.5t-129.5 56.5q-69 0 -116.5 -39.5t-47.5 -102.5q0 -48 33.5 -85.5t85.5 -37.5q35 0 74 35q-4 -40 -43 -66t-84 -26q-71 0 -112.5 43.5t-41.5 110.5q0 63 41.5 109t100.5 66.5t126 20.5 q122 0 206.5 -59.5t84.5 -169.5q0 -41 -13.5 -78.5t-30.5 -63.5t-51.5 -57t-57 -47.5t-66.5 -46.5q-163 -114 -229 -199h434l-39 -174h-29l2 45q3 5 0.5 9t-1.5 7t-2.5 4.5t-4 2.5t-5.5 1.5t-7 0.5h-8h-9h-385h-67z" />
<glyph unicode="&#xb3;" horiz-adv-x="638" d="M35 653q0 20 16.5 33.5t38.5 13.5q30 0 45.5 -14t22.5 -34t16.5 -40.5t36 -34.5t72.5 -14q52 0 90 18.5t58.5 51.5t30 71t9.5 84q0 38 -5 67.5t-19 59t-43.5 46t-73.5 16.5q-26 0 -46 -9.5t-32 -22.5t-22 -26t-22.5 -22.5t-27.5 -9.5q-10 0 -17 6.5t-7 15.5q0 11 9.5 22 t18.5 17t26 15t19 10q48 27 74.5 44.5t57.5 46.5t45 64t14 80q0 59 -31.5 94t-95.5 35q-59 0 -100 -29.5t-41 -82.5q0 -34 22 -60t59 -26q40 0 78 30q-12 -37 -46 -58t-79 -21q-50 0 -83 29.5t-33 74.5q0 84 80.5 133t177.5 49q89 0 154 -40t65 -117q0 -33 -14.5 -62.5 t-33.5 -50t-52.5 -41.5t-56.5 -32.5t-60 -28.5l2 2l4 -5q15 3 37 3q101 0 166 -49t65 -140q0 -123 -108 -201.5t-246 -78.5q-32 0 -66 6t-69 18.5t-57.5 37t-22.5 56.5z" />
<glyph unicode="&#xb4;" horiz-adv-x="737" d="M135 1085l320 254q59 47 90 47q30 0 50.5 -20.5t20.5 -50.5q0 -19 -7.5 -34.5t-25 -28t-29 -18.5t-37.5 -16.5t-32 -13.5l-274 -119h-76z" />
<glyph unicode="&#xb5;" horiz-adv-x="1187" d="M39 844v39q29 -1 85 -4.5t85 -4.5q27 1 81 4.5t79 4.5v-559q0 -45 2 -77t12 -74.5t27 -69t50 -45.5t79 -19q119 0 199.5 90.5t80.5 212.5v274v31v46t-2 36.5t-5.5 32t-11 24t-18.5 21t-27.5 15t-38.5 13.5t-52 9v41q28 -2 84.5 -5.5t85.5 -5.5q25 2 78.5 5.5t80.5 5.5 v-660q0 -23 0.5 -36t4.5 -35t11.5 -34.5t22.5 -22t37 -9.5q11 0 24 1t29 2.5t25 2.5v-47l-285 -74l-43 193q-57 -87 -149 -140t-193 -53q-70 0 -123 23q9 -88 37 -229q25 -146 25 -179q0 -58 -27.5 -100.5t-83.5 -42.5q-51 0 -80.5 40.5t-29.5 94.5v1036v29q1 22 0.5 41 t-1.5 35t-4 29.5t-8 24.5t-13 20t-19.5 16.5t-27.5 13.5t-36.5 10.5t-46.5 8.5z" />
<glyph unicode="&#xb6;" horiz-adv-x="1228" d="M68 983q0 82 27.5 146t73 103.5t109.5 65t130.5 35.5t142.5 10h496v-47q-24 2 -51.5 0.5t-51 -5.5t-44 -19t-30.5 -39q-18 -43 -18 -221v-963q0 -220 22 -276q8 -19 21.5 -32t34.5 -18.5t36.5 -7.5t43 -3.5t37.5 -2.5v-47h-328v1616h-94v-1616h-349v47q5 0 36 0.5t41.5 1 t36 5t37.5 11.5t26 20t20 32q19 58 19 270v584q-9 0 -29 -1t-29 -1q-174 0 -270 89t-96 263z" />
<glyph unicode="&#xb7;" horiz-adv-x="655" d="M197 520q0 54 37.5 93.5t91.5 39.5q55 0 94 -38.5t39 -94.5q0 -54 -37.5 -94.5t-93.5 -40.5q-54 0 -92.5 39.5t-38.5 95.5z" />
<glyph unicode="&#xb8;" horiz-adv-x="614" d="M135 -248q0 15 11 28t26 13q14 0 23.5 -7.5t14 -16.5t9.5 -23q9 -28 25.5 -40.5t46.5 -12.5q36 0 60 19.5t24 54.5q0 48 -36 68t-87 20q-8 0 -24.5 -1t-24.5 -1l55 147h57l-36 -102q70 2 127 -29t57 -96q0 -60 -47.5 -92.5t-110.5 -32.5q-52 0 -111 28.5t-59 75.5z" />
<glyph unicode="&#xb9;" horiz-adv-x="638" d="M104 1290v25q69 4 107 8t90 17t98 36v-655q0 -82 9 -119q3 -12 13 -19.5t27 -11t29 -4.5t33 -1.5t25 -0.5v-28q-34 0 -100.5 2t-100.5 2t-101.5 -2t-101.5 -2v28h13.5h16.5h17.5t19 1t18 2.5t18 3.5t14.5 5t12 7.5t8 9.5q13 27 13 127v436q0 84 -15 111q-13 22 -84 22 h-78z" />
<glyph unicode="&#xba;" horiz-adv-x="737" d="M80 1104q0 115 86 193.5t201 78.5q117 0 203.5 -80.5t86.5 -195.5q0 -122 -83.5 -202.5t-206.5 -80.5q-119 0 -203 83.5t-84 203.5zM100 643v66h547v-66h-547zM209 1108q0 -254 168 -254q44 0 75.5 23t47 61t22 75.5t6.5 78.5q0 42 -7 81.5t-23 79t-48.5 63t-78.5 23.5 t-79.5 -21t-50.5 -56.5t-24.5 -73t-7.5 -80.5z" />
<glyph unicode="&#xbb;" horiz-adv-x="983" d="M143 168q0 21 39.5 75.5t73.5 94.5l94 115l-90 112q-115 145 -115 176q0 8 6 14.5t13 6.5t15 -5.5t17 -14.5l11 -11l299 -278q-90 -76 -187 -160l-120 -115q-1 -1 -9.5 -8.5t-16 -12.5t-13.5 -5t-11.5 5t-5.5 11zM477 168q0 21 39.5 75.5t73.5 94.5l94 115l-90 112 q-115 145 -115 176q0 8 6 14.5t13 6.5t15 -5.5t17 -14.5l11 -11l299 -278q-90 -76 -187 -160l-121 -115q-2 -1 -9.5 -8.5t-15 -12.5t-13.5 -5t-11.5 5t-5.5 11z" />
<glyph unicode="&#xbc;" horiz-adv-x="1597" d="M106 1298v25q69 4 107 8t90 17t98 36v-655q0 -82 9 -119q3 -12 13 -19.5t27 -11t29 -4.5t33 -1.5t25 -0.5v-28q-34 0 -100.5 2t-100.5 2t-101.5 -2t-101.5 -2v28h13.5h16.5h17.5t19 1t18 2.5t18 3.5t14.5 5t12 7.5t8 9.5q13 27 13 127v436q0 84 -15 111q-13 22 -84 22 h-78zM301 0l977 1384h111l-979 -1384h-109zM870 262v43l437 526h32v-524h154v-45h-154v-80q0 -83 11 -119q5 -16 20.5 -24.5t34.5 -9.5t38.5 -1.5t33.5 -0.5v-29q-32 0 -95.5 2t-93.5 2q-34 0 -101.5 -2t-101.5 -2v29q99 0 117 20q25 25 25 135v80h-357zM922 307h305v367h-4 z" />
<glyph unicode="&#xbd;" horiz-adv-x="1597" d="M59 1298v25q69 4 107 8t90 17t98 36v-655q0 -86 8 -119q3 -12 13 -19.5t27 -11t29 -4.5t33 -1.5t25 -0.5v-28q-34 0 -100 2t-100 2t-101.5 -2t-101.5 -2v28h13.5h16.5h17.5t19 1t18 2.5t18 3.5t14.5 5t12 7.5t8 9.5q13 27 13 127v436q0 84 -15 111q-13 22 -84 22h-78z M254 0l977 1384h110l-979 -1384h-108zM971 0q33 59 81 114t119 124q104 94 136 131q100 112 100 235q0 80 -44.5 136.5t-129.5 56.5q-69 0 -116.5 -39.5t-47.5 -102.5q0 -48 33.5 -85.5t85.5 -37.5q35 0 74 35q-4 -40 -43 -66t-84 -26q-71 0 -112.5 43.5t-41.5 110.5 q0 63 41.5 109t100.5 66.5t126 20.5q122 0 206.5 -59.5t84.5 -169.5q0 -41 -13.5 -78.5t-30.5 -63.5t-51.5 -57t-57 -47.5t-66.5 -46.5q-163 -114 -229 -199h434l-39 -174h-29l2 45q3 5 0.5 9t-1.5 7t-2.5 4.5t-4 2.5t-5.5 1.5t-7 0.5h-8h-9h-385h-67z" />
<glyph unicode="&#xbe;" horiz-adv-x="1597" d="M35 662q0 20 16.5 33.5t38.5 13.5q30 0 45.5 -14t22.5 -34.5t16.5 -41t36 -34.5t72.5 -14q100 0 144 64t44 162q0 38 -5 67.5t-19 59t-43.5 45.5t-73.5 16q-26 0 -46 -9.5t-32 -22.5t-22 -26t-22.5 -22.5t-27.5 -9.5q-10 0 -17 7t-7 16q0 11 9.5 21.5t19 16.5t25.5 14.5 t19 10.5q48 27 74.5 44.5t57.5 46.5t45 64.5t14 80.5q0 59 -31.5 94t-95.5 35q-59 0 -100 -30t-41 -83q0 -34 22 -60t59 -26q38 0 78 31q-12 -38 -46 -59t-79 -21q-50 0 -83 29.5t-33 74.5q0 84 80.5 133t177.5 49q89 0 154 -40t65 -117q0 -33 -14.5 -62.5t-33.5 -50 t-52.5 -41.5t-56.5 -32.5t-60 -28.5l2 2l4 -4q10 2 37 2q101 0 166 -49t65 -140q0 -123 -108 -201.5t-246 -78.5q-32 0 -66.5 6t-69 18.5t-57 37.5t-22.5 57zM291 0l977 1384h110l-979 -1384h-108zM870 262v43l437 526h32v-524h154v-45h-154v-80q0 -83 11 -119 q5 -16 20.5 -24.5t34.5 -9.5t38.5 -1.5t33.5 -0.5v-29q-32 0 -95.5 2t-93.5 2q-34 0 -101.5 -2t-101.5 -2v29q99 0 117 20q25 25 25 135v80h-357zM922 307h305v367h-4z" />
<glyph unicode="&#xbf;" horiz-adv-x="819" d="M113 -4q0 92 32 159t89.5 106t129.5 57t160 18v207h56v-383h-125q-125 0 -201 -52.5t-76 -170.5q0 -71 29 -136.5t87 -109t132 -43.5q31 0 91 11t89 11q41 0 73 -21t32 -61q0 -46 -34.5 -69t-82.5 -23q-94 0 -183.5 42.5t-154 112t-104 160.5t-39.5 185zM424 778 q0 51 32.5 87t82.5 36q48 0 83 -34t35 -83q0 -46 -32 -81t-78 -35q-49 0 -86 31t-37 79z" />
<glyph unicode="&#xc0;" horiz-adv-x="1351" d="M-47 -4v47q83 9 124.5 39.5t72.5 105.5q29 65 85 196t84 196l314 804h69l414 -1040q7 -15 28.5 -67.5t42 -94.5t36.5 -63q30 -40 70 -54t106 -22v-47q-48 1 -145.5 4t-145.5 4q-49 -1 -148.5 -4t-148.5 -4v47q1 0 20 0.5t23.5 1t22 2t24 3.5t20.5 6t20 9.5t14 13.5 t11 18.5t3 23.5q0 53 -41 160l-80 211h-506l-18 -52q-4 -9 -21.5 -52.5t-27.5 -69t-23.5 -64.5t-20 -69.5t-6.5 -53.5q0 -21 9 -36.5t19.5 -24t32.5 -14.5t34 -7.5t38.5 -3t32.5 -2.5v-47q-38 1 -112.5 4t-112.5 4q-36 -1 -106.5 -4t-106.5 -4zM369 557h452l-225 578z M442 1784q0 29 20.5 50t49.5 21q31 0 90 -47l322 -254h-76l-277 119q-3 1 -22 8.5t-26 10.5t-23 11t-23.5 15t-17 17.5t-13.5 22.5t-4 26z" />
<glyph unicode="&#xc1;" horiz-adv-x="1351" d="M-47 -4v47q83 9 124.5 39.5t72.5 105.5q29 65 85 196t84 196l314 804h69l414 -1040q7 -15 28.5 -67.5t42 -94.5t36.5 -63q30 -40 70 -54t106 -22v-47q-48 1 -145.5 4t-145.5 4q-49 -1 -148.5 -4t-148.5 -4v47q1 0 20 0.5t23.5 1t22 2t24 3.5t20.5 6t20 9.5t14 13.5 t11 18.5t3 23.5q0 53 -41 160l-80 211h-506l-18 -52q-4 -9 -21.5 -52.5t-27.5 -69t-23.5 -64.5t-20 -69.5t-6.5 -53.5q0 -21 9 -36.5t19.5 -24t32.5 -14.5t34 -7.5t38.5 -3t32.5 -2.5v-47q-38 1 -112.5 4t-112.5 4q-36 -1 -106.5 -4t-106.5 -4zM369 557h452l-225 578z M524 1554l320 254q59 47 90 47q30 0 51 -20.5t21 -50.5q0 -19 -7.5 -34.5t-25 -28t-29.5 -18.5t-37.5 -16.5t-32.5 -13.5l-274 -119h-76z" />
<glyph unicode="&#xc2;" horiz-adv-x="1351" d="M-47 -4v47q83 9 124.5 39.5t72.5 105.5q29 65 85 196t84 196l314 804h69l414 -1040q7 -15 28.5 -67.5t42 -94.5t36.5 -63q30 -40 70 -54t106 -22v-47q-48 1 -145.5 4t-145.5 4q-49 -1 -148.5 -4t-148.5 -4v47q1 0 20 0.5t23.5 1t22 2t24 3.5t20.5 6t20 9.5t14 13.5 t11 18.5t3 23.5q0 53 -41 160l-80 211h-506l-18 -52q-4 -9 -21.5 -52.5t-27.5 -69t-23.5 -64.5t-20 -69.5t-6.5 -53.5q0 -21 9 -36.5t19.5 -24t32.5 -14.5t34 -7.5t38.5 -3t32.5 -2.5v-47q-38 1 -112.5 4t-112.5 4q-36 -1 -106.5 -4t-106.5 -4zM369 557h452l-225 578z M381 1554l233 301h113l225 -301h-63l-219 164l-228 -164h-61z" />
<glyph unicode="&#xc3;" horiz-adv-x="1351" d="M-47 -4v47q83 9 124.5 39.5t72.5 105.5q29 65 85 196t84 196l314 804h69l414 -1040q7 -15 28.5 -67.5t42 -94.5t36.5 -63q30 -40 70 -54t106 -22v-47q-48 1 -145.5 4t-145.5 4q-49 -1 -148.5 -4t-148.5 -4v47q1 0 20 0.5t23.5 1t22 2t24 3.5t20.5 6t20 9.5t14 13.5 t11 18.5t3 23.5q0 53 -41 160l-80 211h-506l-18 -52q-4 -9 -21.5 -52.5t-27.5 -69t-23.5 -64.5t-20 -69.5t-6.5 -53.5q0 -21 9 -36.5t19.5 -24t32.5 -14.5t34 -7.5t38.5 -3t32.5 -2.5v-47q-38 1 -112.5 4t-112.5 4q-36 -1 -106.5 -4t-106.5 -4zM369 557h452l-225 578z M381 1649q13 71 65 125.5t121 54.5q12 0 25.5 -2t24 -4.5t25.5 -7.5t22.5 -8t24.5 -10t22 -9q7 -3 29 -11.5t34.5 -13.5t31 -9.5t32.5 -4.5q50 0 71 72h54q-6 -66 -56 -125q-55 -62 -116 -62q-10 0 -21 1t-19 2.5t-20 5t-18.5 5.5t-20 7t-18 6.5t-19.5 8t-18 7.5 q-97 41 -129 41q-48 0 -72 -69h-55z" />
<glyph unicode="&#xc4;" horiz-adv-x="1351" d="M-47 -4v47q83 9 124.5 39.5t72.5 105.5q29 65 85 196t84 196l314 804h69l414 -1040q7 -15 28.5 -67.5t42 -94.5t36.5 -63q30 -40 70 -54t106 -22v-47q-48 1 -145.5 4t-145.5 4q-49 -1 -148.5 -4t-148.5 -4v47q1 0 20 0.5t23.5 1t22 2t24 3.5t20.5 6t20 9.5t14 13.5 t11 18.5t3 23.5q0 53 -41 160l-80 211h-506l-18 -52q-4 -9 -21.5 -52.5t-27.5 -69t-23.5 -64.5t-20 -69.5t-6.5 -53.5q0 -21 9 -36.5t19.5 -24t32.5 -14.5t34 -7.5t38.5 -3t32.5 -2.5v-47q-38 1 -112.5 4t-112.5 4q-36 -1 -106.5 -4t-106.5 -4zM369 557h452l-225 578z M422 1714q0 42 31 71.5t73 29.5q40 0 72.5 -30t32.5 -71q0 -45 -30.5 -76.5t-74.5 -31.5q-45 0 -74.5 31.5t-29.5 76.5zM702 1714q0 42 32 71.5t73 29.5q42 0 73 -30t31 -71q0 -45 -29.5 -76.5t-74.5 -31.5q-44 0 -74.5 31.5t-30.5 76.5z" />
<glyph unicode="&#xc5;" horiz-adv-x="1351" d="M-47 -4v47q83 9 124.5 39.5t72.5 105.5q29 65 85 196t84 196l314 804h69l414 -1040q7 -15 28.5 -67.5t42 -94.5t36.5 -63q30 -40 70 -54t106 -22v-47q-48 1 -145.5 4t-145.5 4q-49 -1 -148.5 -4t-148.5 -4v47q1 0 20 0.5t23.5 1t22 2t24 3.5t20.5 6t20 9.5t14 13.5 t11 18.5t3 23.5q0 53 -41 160l-80 211h-506l-18 -52q-4 -9 -21.5 -52.5t-27.5 -69t-23.5 -64.5t-20 -69.5t-6.5 -53.5q0 -21 9 -36.5t19.5 -24t32.5 -14.5t34 -7.5t38.5 -3t32.5 -2.5v-47q-38 1 -112.5 4t-112.5 4q-36 -1 -106.5 -4t-106.5 -4zM369 557h452l-225 578z M483 1638q0 76 56.5 130.5t132.5 54.5q77 0 135.5 -53t58.5 -128q0 -83 -55 -136.5t-137 -53.5q-77 0 -134 55t-57 131zM553 1638q0 -53 36.5 -90t88.5 -37q49 0 84 37.5t35 87.5q0 53 -36 91t-89 38q-51 0 -85 -38t-34 -89z" />
<glyph unicode="&#xc6;" horiz-adv-x="1802" d="M-61 -4v51q73 7 127 43q9 6 19 15t20 22t18.5 24t19.5 28.5t17 27.5t17.5 30t15 27t14.5 27t12 22l459 877q2 4 13 25t18.5 38.5t7.5 26.5q0 16 -64 16h-127v56h1092v-310h-47q-6 40 -15.5 72t-20.5 57t-27.5 43.5t-32 32t-39.5 22.5t-45.5 14.5t-54 8t-60 3.5t-68.5 1 h-147h-11q-32 0 -37.5 -6t-4.5 -46v-32v-485q82 -3 141.5 8.5t94 32t56 56.5t29.5 70.5t12 84.5h48q-3 -144 -9 -279q6 -124 9 -254h-48q-7 53 -20 91.5t-36 63t-46.5 39t-64 21.5t-74.5 9t-92 2v-336q0 -47 1 -73t9.5 -69t25.5 -65q58 -79 263 -74q72 1 119.5 6.5t97 22 t79.5 45.5t52.5 79t30.5 122h47l-19 -330h-1114v47q27 0 42 0.5t40 4t40 10.5t30.5 21t23.5 34q21 58 21 272v268h-322l-205 -395q-45 -81 -47 -123q-1 -21 5 -37t20.5 -25.5t27.5 -15.5t37 -9t36 -3.5l36 -1.5v-51q-136 10 -233 8q-88 2 -213 -8zM508 723h289v559h-4z" />
<glyph unicode="&#xc7;" horiz-adv-x="1392" d="M96 659q0 205 92 369t256 256t369 92q122 0 214 -29t202 -98l33 97h30l17 -404h-47q-27 174 -142.5 280.5t-290.5 106.5q-106 0 -190 -40.5t-137 -106.5t-87.5 -155t-48.5 -180t-14 -188t15 -185.5t51 -172.5t89.5 -145.5t137.5 -98.5t189 -37q84 0 151.5 24t114 63 t83.5 99.5t60 122.5t43 142h37v-448h-27l-49 104q-102 -81 -210 -117.5t-240 -36.5l-27 -75q70 2 127 -29t57 -96q0 -60 -47 -92.5t-110 -32.5q-52 0 -111 28.5t-59 75.5q0 15 11 28t26 13q14 0 23.5 -7.5t14 -16.5t9.5 -23q9 -28 25 -40.5t46 -12.5q36 0 60 19.5t24 54.5 q0 48 -36 68t-87 20q-8 0 -24.5 -1t-24.5 -1l47 122q-292 15 -468.5 200.5t-176.5 483.5z" />
<glyph unicode="&#xc8;" horiz-adv-x="1269" d="M53 0v47q27 0 42 0.5t40 4t40 10.5t30.5 21t23.5 34q21 58 21 272v565q0 215 -21 273q-10 25 -28 40t-47 21t-47.5 7t-53.5 1v56h1018v-310h-47q-10 60 -24.5 102.5t-39 70.5t-49.5 44t-68 24.5t-80.5 10.5t-100.5 2h-148h-11q-32 0 -37.5 -6t-4.5 -46v-32v-485 q82 -3 141.5 8.5t94 32t56.5 56.5t30 70.5t12 84.5h47q-4 -190 -8 -279q4 -82 8 -254h-47q-6 46 -18 80.5t-26 58.5t-38 40t-46.5 25.5t-59 14.5t-67 6t-79.5 1v-336q0 -158 37 -207q58 -79 262 -74q72 1 119.5 6.5t97 22t79.5 45.5t52.5 79t30.5 122h47l-19 -330h-1114z M401 1784q0 29 20.5 50t49.5 21q31 0 90 -47l322 -254h-76l-277 119q-3 1 -22 8.5t-26 10.5t-23 11t-23.5 15t-17 17.5t-13.5 22.5t-4 26z" />
<glyph unicode="&#xc9;" horiz-adv-x="1269" d="M53 0v47q27 0 42 0.5t40 4t40 10.5t30.5 21t23.5 34q21 58 21 272v565q0 215 -21 273q-10 25 -28 40t-47 21t-47.5 7t-53.5 1v56h1018v-310h-47q-10 60 -24.5 102.5t-39 70.5t-49.5 44t-68 24.5t-80.5 10.5t-100.5 2h-148h-11q-32 0 -37.5 -6t-4.5 -46v-32v-485 q82 -3 141.5 8.5t94 32t56.5 56.5t30 70.5t12 84.5h47q-4 -190 -8 -279q4 -82 8 -254h-47q-6 46 -18 80.5t-26 58.5t-38 40t-46.5 25.5t-59 14.5t-67 6t-79.5 1v-336q0 -158 37 -207q58 -79 262 -74q72 1 119.5 6.5t97 22t79.5 45.5t52.5 79t30.5 122h47l-19 -330h-1114z M524 1554l320 254q59 47 90 47q30 0 51 -20.5t21 -50.5q0 -19 -7.5 -34.5t-25 -28t-29.5 -18.5t-37.5 -16.5t-32.5 -13.5l-274 -119h-76z" />
<glyph unicode="&#xca;" horiz-adv-x="1269" d="M53 0v47q27 0 42 0.5t40 4t40 10.5t30.5 21t23.5 34q21 58 21 272v565q0 215 -21 273q-10 25 -28 40t-47 21t-47.5 7t-53.5 1v56h1018v-310h-47q-10 60 -24.5 102.5t-39 70.5t-49.5 44t-68 24.5t-80.5 10.5t-100.5 2h-148h-11q-32 0 -37.5 -6t-4.5 -46v-32v-485 q82 -3 141.5 8.5t94 32t56.5 56.5t30 70.5t12 84.5h47q-4 -190 -8 -279q4 -82 8 -254h-47q-6 46 -18 80.5t-26 58.5t-38 40t-46.5 25.5t-59 14.5t-67 6t-79.5 1v-336q0 -158 37 -207q58 -79 262 -74q72 1 119.5 6.5t97 22t79.5 45.5t52.5 79t30.5 122h47l-19 -330h-1114z M340 1554l233 301h113l225 -301h-63l-219 164l-228 -164h-61z" />
<glyph unicode="&#xcb;" horiz-adv-x="1269" d="M53 0v47q27 0 42 0.5t40 4t40 10.5t30.5 21t23.5 34q21 58 21 272v565q0 215 -21 273q-10 25 -28 40t-47 21t-47.5 7t-53.5 1v56h1018v-310h-47q-10 60 -24.5 102.5t-39 70.5t-49.5 44t-68 24.5t-80.5 10.5t-100.5 2h-148h-11q-32 0 -37.5 -6t-4.5 -46v-32v-485 q82 -3 141.5 8.5t94 32t56.5 56.5t30 70.5t12 84.5h47q-4 -190 -8 -279q4 -82 8 -254h-47q-6 46 -18 80.5t-26 58.5t-38 40t-46.5 25.5t-59 14.5t-67 6t-79.5 1v-336q0 -158 37 -207q58 -79 262 -74q72 1 119.5 6.5t97 22t79.5 45.5t52.5 79t30.5 122h47l-19 -330h-1114z M381 1714q0 42 31 71.5t73 29.5q40 0 72.5 -30t32.5 -71q0 -45 -30.5 -76.5t-74.5 -31.5q-45 0 -74.5 31.5t-29.5 76.5zM662 1714q0 42 31.5 71.5t72.5 29.5q42 0 73 -30t31 -71q0 -45 -29.5 -76.5t-74.5 -31.5q-44 0 -74 31.5t-30 76.5z" />
<glyph unicode="&#xcc;" horiz-adv-x="737" d="M68 -4v47q27 0 42 0.5t40 4t40 10.5t30.5 21t23.5 34q20 55 20 272v578q0 217 -20 272q-8 20 -23.5 34t-30.5 21t-40 10.5t-40 4t-42 0.5v47q49 -1 147 -4.5t147 -4.5q53 1 156.5 4.5t153.5 4.5v-47q-27 0 -42 -0.5t-40 -4t-40 -10.5t-30.5 -21t-23.5 -34 q-21 -58 -21 -272v-578q0 -214 21 -272q8 -20 23.5 -34t30.5 -21t40 -10.5t40 -4t42 -0.5v-47q-47 1 -146 4t-149 4q-51 -1 -154.5 -4t-154.5 -4zM135 1784q0 29 20.5 50t49.5 21q31 0 90 -47l321 -254h-75l-277 119q-3 1 -22 8.5t-26 10.5t-23 11t-23.5 15t-17 17.5 t-13.5 22.5t-4 26z" />
<glyph unicode="&#xcd;" horiz-adv-x="737" d="M68 -4v47q27 0 42 0.5t40 4t40 10.5t30.5 21t23.5 34q20 55 20 272v578q0 217 -20 272q-8 20 -23.5 34t-30.5 21t-40 10.5t-40 4t-42 0.5v47q49 -1 147 -4.5t147 -4.5q53 1 156.5 4.5t153.5 4.5v-47q-27 0 -42 -0.5t-40 -4t-40 -10.5t-30.5 -21t-23.5 -34 q-21 -58 -21 -272v-578q0 -214 21 -272q8 -20 23.5 -34t30.5 -21t40 -10.5t40 -4t42 -0.5v-47q-47 1 -146 4t-149 4q-51 -1 -154.5 -4t-154.5 -4zM135 1554l320 254q59 47 90 47q30 0 50.5 -20.5t20.5 -50.5q0 -19 -7.5 -34.5t-25 -28t-29 -18.5t-37.5 -16.5t-32 -13.5 l-274 -119h-76z" />
<glyph unicode="&#xce;" horiz-adv-x="737" d="M68 -4v47q27 0 42 0.5t40 4t40 10.5t30.5 21t23.5 34q20 55 20 272v578q0 217 -20 272q-8 20 -23.5 34t-30.5 21t-40 10.5t-40 4t-42 0.5v47q49 -1 147 -4.5t147 -4.5q53 1 156.5 4.5t153.5 4.5v-47q-27 0 -42 -0.5t-40 -4t-40 -10.5t-30.5 -21t-23.5 -34 q-21 -58 -21 -272v-578q0 -214 21 -272q8 -20 23.5 -34t30.5 -21t40 -10.5t40 -4t42 -0.5v-47q-47 1 -146 4t-149 4q-51 -1 -154.5 -4t-154.5 -4zM74 1554l233 301h113l225 -301h-63l-220 164l-227 -164h-61z" />
<glyph unicode="&#xcf;" horiz-adv-x="737" d="M68 -4v47q27 0 42 0.5t40 4t40 10.5t30.5 21t23.5 34q20 55 20 272v578q0 217 -20 272q-8 20 -23.5 34t-30.5 21t-40 10.5t-40 4t-42 0.5v47q49 -1 147 -4.5t147 -4.5q53 1 156.5 4.5t153.5 4.5v-47q-27 0 -42 -0.5t-40 -4t-40 -10.5t-30.5 -21t-23.5 -34 q-21 -58 -21 -272v-578q0 -214 21 -272q8 -20 23.5 -34t30.5 -21t40 -10.5t40 -4t42 -0.5v-47q-47 1 -146 4t-149 4q-51 -1 -154.5 -4t-154.5 -4zM115 1714q0 42 31 71.5t73 29.5q40 0 72.5 -30t32.5 -71q0 -45 -30.5 -76.5t-74.5 -31.5q-45 0 -74.5 31.5t-29.5 76.5z M395 1714q0 42 32 71.5t73 29.5q42 0 73 -30t31 -71q0 -45 -29.5 -76.5t-74.5 -31.5q-44 0 -74.5 31.5t-30.5 76.5z" />
<glyph unicode="&#xd0;" horiz-adv-x="1515" d="M57 -4v47q27 0 42 0.5t40.5 4t40.5 10.5t29.5 21t21.5 34q19 58 19 272v283h-162v73h162v217q0 215 -19 273q-7 21 -22 35t-28.5 20.5t-41.5 10t-39 3.5h-43v52q41 -1 127.5 -4.5t130.5 -4.5q56 1 166.5 4.5t165.5 4.5q216 4 388 -79.5t272 -247t100 -380.5 q0 -160 -51 -285.5t-144.5 -206t-223 -121t-288.5 -36.5q-60 1 -181.5 4t-182.5 4q-48 -1 -141 -4t-138 -4zM460.5 278.5q0.5 -13.5 2 -39t5 -42t10 -35.5t16.5 -33q52 -78 229 -78q104 0 181.5 30t124 79.5t74.5 124t38 152t10 175.5q0 128 -15.5 228t-54 187.5t-100.5 145 t-159 90.5t-226 33h-20q-19 1 -30 0.5t-28.5 -1.5t-28.5 -4.5t-16 -8.5q-12 -12 -12 -63v-478h205v-73h-205v-312q0 -8 -0.5 -36t0 -41.5z" />
<glyph unicode="&#xd1;" horiz-adv-x="1556" d="M45 1305v47q33 -1 97.5 -4.5t97.5 -4.5q27 1 81 4.5t80 4.5l865 -1055h4v569q0 227 -19 316q-5 21 -11.5 37.5t-12.5 28t-18 20t-19.5 13t-25 9t-27 6t-33 4.5t-35.5 5v47q38 -1 112.5 -4.5t112.5 -4.5q35 1 106.5 4.5t110.5 4.5v-47q-7 -1 -27 -2.5t-26 -2.5t-22 -4 t-21.5 -6.5t-17 -10t-17 -15t-12.5 -21.5t-12 -29q-25 -82 -25 -358v-883h-61q-23 28 -135 170l-801 971h-4v-688q0 -231 30 -299q7 -17 16 -29.5t22 -21t22 -13.5t28 -8.5t27.5 -5t32.5 -3.5t31 -3v-47q-39 1 -118 4t-118 4q-38 -1 -113.5 -4t-113.5 -4v47q32 3 40.5 4 t35 5.5t36.5 10.5t26 16.5t24.5 26.5t13.5 37q16 74 16 283v756q-48 69 -94.5 95.5t-128.5 27.5zM483 1649q13 70 65.5 125t121.5 55q15 0 29 -2t32 -7.5t26 -8.5t30.5 -12.5t25.5 -10.5q7 -3 29 -11.5t34.5 -13.5t31 -9.5t32.5 -4.5q51 0 72 72h53q-7 -67 -55 -125 q-55 -62 -117 -62q-10 0 -21 1t-19 2.5t-20 5t-18.5 5.5t-20 7t-18 6.5t-19.5 8t-18 7.5q-97 41 -129 41q-47 0 -71 -69h-56z" />
<glyph unicode="&#xd2;" horiz-adv-x="1679" d="M96 670q0 149 62 281.5t165.5 225t240.5 146t284 53.5q146 0 280 -51.5t234.5 -141.5t160.5 -220.5t60 -278.5q0 -154 -58 -287.5t-158 -226t-236.5 -145t-290.5 -52.5q-149 0 -284.5 51.5t-237 142t-162 221.5t-60.5 282zM352 670q0 -101 16 -191t53 -173.5t93.5 -144 t143 -96.5t194.5 -36q106 0 189.5 38.5t136 101t87 148.5t48.5 174t14 185q0 96 -15.5 185.5t-52.5 174t-91.5 147t-139 100.5t-188.5 38q-102 0 -186 -39t-139 -103t-92.5 -149.5t-54 -175.5t-16.5 -184zM606 1784q0 29 20.5 50t49.5 21q31 0 90 -47l321 -254h-75l-277 119 q-3 1 -22 8.5t-26 10.5t-23 11t-23.5 15t-17 17.5t-13.5 22.5t-4 26z" />
<glyph unicode="&#xd3;" horiz-adv-x="1679" d="M96 670q0 149 62 281.5t165.5 225t240.5 146t284 53.5q146 0 280 -51.5t234.5 -141.5t160.5 -220.5t60 -278.5q0 -154 -58 -287.5t-158 -226t-236.5 -145t-290.5 -52.5q-149 0 -284.5 51.5t-237 142t-162 221.5t-60.5 282zM352 670q0 -101 16 -191t53 -173.5t93.5 -144 t143 -96.5t194.5 -36q106 0 189.5 38.5t136 101t87 148.5t48.5 174t14 185q0 96 -15.5 185.5t-52.5 174t-91.5 147t-139 100.5t-188.5 38q-102 0 -186 -39t-139 -103t-92.5 -149.5t-54 -175.5t-16.5 -184zM729 1554l320 254q59 47 90 47q30 0 50.5 -20.5t20.5 -50.5 q0 -19 -7.5 -34.5t-25 -28t-29 -18.5t-37.5 -16.5t-32 -13.5l-274 -119h-76z" />
<glyph unicode="&#xd4;" horiz-adv-x="1679" d="M96 670q0 149 62 281.5t165.5 225t240.5 146t284 53.5q146 0 280 -51.5t234.5 -141.5t160.5 -220.5t60 -278.5q0 -154 -58 -287.5t-158 -226t-236.5 -145t-290.5 -52.5q-149 0 -284.5 51.5t-237 142t-162 221.5t-60.5 282zM352 670q0 -101 16 -191t53 -173.5t93.5 -144 t143 -96.5t194.5 -36q106 0 189.5 38.5t136 101t87 148.5t48.5 174t14 185q0 96 -15.5 185.5t-52.5 174t-91.5 147t-139 100.5t-188.5 38q-102 0 -186 -39t-139 -103t-92.5 -149.5t-54 -175.5t-16.5 -184zM545 1554l233 301h113l225 -301h-63l-219 164l-228 -164h-61z" />
<glyph unicode="&#xd5;" horiz-adv-x="1679" d="M96 670q0 149 62 281.5t165.5 225t240.5 146t284 53.5q146 0 280 -51.5t234.5 -141.5t160.5 -220.5t60 -278.5q0 -154 -58 -287.5t-158 -226t-236.5 -145t-290.5 -52.5q-149 0 -284.5 51.5t-237 142t-162 221.5t-60.5 282zM352 670q0 -101 16 -191t53 -173.5t93.5 -144 t143 -96.5t194.5 -36q106 0 189.5 38.5t136 101t87 148.5t48.5 174t14 185q0 96 -15.5 185.5t-52.5 174t-91.5 147t-139 100.5t-188.5 38q-102 0 -186 -39t-139 -103t-92.5 -149.5t-54 -175.5t-16.5 -184zM545 1649q13 71 65 125.5t121 54.5q15 0 29 -2t32 -7.5t26 -8.5 t30.5 -12.5t25.5 -10.5q7 -3 29 -11.5t34.5 -13.5t31 -9.5t32.5 -4.5q51 0 72 72h53q-7 -67 -55 -125q-55 -62 -117 -62q-11 0 -22.5 1t-24 4t-20.5 5t-23 8t-20 7.5t-22.5 9t-20.5 8.5q-97 41 -129 41q-48 0 -72 -69h-55z" />
<glyph unicode="&#xd6;" horiz-adv-x="1679" d="M96 670q0 149 62 281.5t165.5 225t240.5 146t284 53.5q146 0 280 -51.5t234.5 -141.5t160.5 -220.5t60 -278.5q0 -154 -58 -287.5t-158 -226t-236.5 -145t-290.5 -52.5q-149 0 -284.5 51.5t-237 142t-162 221.5t-60.5 282zM352 670q0 -101 16 -191t53 -173.5t93.5 -144 t143 -96.5t194.5 -36q106 0 189.5 38.5t136 101t87 148.5t48.5 174t14 185q0 96 -15.5 185.5t-52.5 174t-91.5 147t-139 100.5t-188.5 38q-102 0 -186 -39t-139 -103t-92.5 -149.5t-54 -175.5t-16.5 -184zM586 1714q0 42 31 71.5t73 29.5q40 0 72.5 -30t32.5 -71 q0 -45 -30.5 -76.5t-74.5 -31.5q-45 0 -74.5 31.5t-29.5 76.5zM866 1714q0 42 32 71.5t73 29.5q42 0 73 -30t31 -71q0 -45 -29.5 -76.5t-74.5 -31.5q-44 0 -74.5 31.5t-30.5 76.5z" />
<glyph unicode="&#xd7;" d="M104 162l361 360l-359 359l66 67l360 -358l361 360l65 -67l-360 -361l363 -362l-68 -66l-361 361l-362 -361z" />
<glyph unicode="&#xd8;" horiz-adv-x="1679" d="M96 662q0 151 60.5 285t162 227.5t239 147.5t288.5 54q199 0 356 -88l135 197h107l-170 -242q151 -98 230 -244.5t79 -326.5q0 -147 -60 -278t-160.5 -222.5t-236 -145t-282.5 -53.5q-220 0 -379 90l-156 -223h-108l188 269q-139 98 -216 241t-77 312zM352 682 q0 -273 117 -457l672 979q-117 117 -297 117q-103 0 -187 -37.5t-139.5 -99.5t-93.5 -145.5t-55 -172.5t-17 -184zM526 156q140 -127 301 -127q107 0 193 34.5t142.5 93.5t94.5 141t54 172t16 192q0 305 -127 473z" />
<glyph unicode="&#xd9;" horiz-adv-x="1597" d="M57 1305v47q48 -1 145.5 -4.5t145.5 -4.5q52 1 155.5 4.5t155.5 4.5v-47q-30 0 -42.5 -0.5t-39.5 -3.5t-41.5 -10t-30 -21t-22.5 -35q-18 -55 -18 -272v-504q0 -204 89.5 -308t293.5 -104q211 0 317.5 107.5t106.5 314.5v449q0 226 -21 292q-10 31 -29.5 51t-47.5 29 t-53 12t-60 3v47q40 -1 118.5 -4.5t118.5 -4.5q37 1 113.5 4.5t116.5 4.5v-47q-81 -2 -109 -14q-40 -18 -57 -60q-29 -74 -29 -313v-379q0 -287 -124.5 -426.5t-409.5 -139.5q-283 0 -414 114t-131 386v490q0 214 -21 272q-8 20 -23.5 34t-30.5 21t-40 10.5t-40 4t-42 0.5z M565 1784q0 29 20.5 50t49.5 21q31 0 90 -47l322 -254h-76l-277 119q-3 1 -22 8.5t-26 10.5t-23 11t-23.5 15t-17 17.5t-13.5 22.5t-4 26z" />
<glyph unicode="&#xda;" horiz-adv-x="1597" d="M57 1305v47q48 -1 145.5 -4.5t145.5 -4.5q52 1 155.5 4.5t155.5 4.5v-47q-30 0 -42.5 -0.5t-39.5 -3.5t-41.5 -10t-30 -21t-22.5 -35q-18 -55 -18 -272v-504q0 -204 89.5 -308t293.5 -104q211 0 317.5 107.5t106.5 314.5v449q0 226 -21 292q-10 31 -29.5 51t-47.5 29 t-53 12t-60 3v47q40 -1 118.5 -4.5t118.5 -4.5q37 1 113.5 4.5t116.5 4.5v-47q-81 -2 -109 -14q-40 -18 -57 -60q-29 -74 -29 -313v-379q0 -287 -124.5 -426.5t-409.5 -139.5q-283 0 -414 114t-131 386v490q0 214 -21 272q-8 20 -23.5 34t-30.5 21t-40 10.5t-40 4t-42 0.5z M688 1554l320 254q59 47 90 47q30 0 50.5 -20.5t20.5 -50.5q0 -19 -7.5 -34.5t-25 -28t-29 -18.5t-37.5 -16.5t-32 -13.5l-274 -119h-76z" />
<glyph unicode="&#xdb;" horiz-adv-x="1597" d="M57 1305v47q48 -1 145.5 -4.5t145.5 -4.5q52 1 155.5 4.5t155.5 4.5v-47q-30 0 -42.5 -0.5t-39.5 -3.5t-41.5 -10t-30 -21t-22.5 -35q-18 -55 -18 -272v-504q0 -204 89.5 -308t293.5 -104q211 0 317.5 107.5t106.5 314.5v449q0 226 -21 292q-10 31 -29.5 51t-47.5 29 t-53 12t-60 3v47q40 -1 118.5 -4.5t118.5 -4.5q37 1 113.5 4.5t116.5 4.5v-47q-81 -2 -109 -14q-40 -18 -57 -60q-29 -74 -29 -313v-379q0 -287 -124.5 -426.5t-409.5 -139.5q-283 0 -414 114t-131 386v490q0 214 -21 272q-8 20 -23.5 34t-30.5 21t-40 10.5t-40 4t-42 0.5z M504 1554l233 301h113l225 -301h-63l-219 164l-228 -164h-61z" />
<glyph unicode="&#xdc;" horiz-adv-x="1597" d="M57 1305v47q48 -1 145.5 -4.5t145.5 -4.5q52 1 155.5 4.5t155.5 4.5v-47q-30 0 -42.5 -0.5t-39.5 -3.5t-41.5 -10t-30 -21t-22.5 -35q-18 -55 -18 -272v-504q0 -204 89.5 -308t293.5 -104q211 0 317.5 107.5t106.5 314.5v449q0 226 -21 292q-10 31 -29.5 51t-47.5 29 t-53 12t-60 3v47q40 -1 118.5 -4.5t118.5 -4.5q37 1 113.5 4.5t116.5 4.5v-47q-81 -2 -109 -14q-40 -18 -57 -60q-29 -74 -29 -313v-379q0 -287 -124.5 -426.5t-409.5 -139.5q-283 0 -414 114t-131 386v490q0 214 -21 272q-8 20 -23.5 34t-30.5 21t-40 10.5t-40 4t-42 0.5z M586 1714q0 42 31 71.5t73 29.5q40 0 72.5 -30t32.5 -71q0 -45 -30.5 -76.5t-74.5 -31.5q-45 0 -74.5 31.5t-29.5 76.5zM866 1714q0 42 32 71.5t73 29.5q42 0 73 -30t31 -71q0 -45 -29.5 -76.5t-74.5 -31.5q-44 0 -74.5 31.5t-30.5 76.5z" />
<glyph unicode="&#xdd;" d="M-137 1305v47q46 -1 139 -4.5t139 -4.5q48 1 144.5 4.5t144.5 4.5v-47q-94 0 -126 -19q-27 -18 -28 -47q0 -11 1.5 -21.5t5.5 -22.5l6.5 -19.5t9 -21.5t9.5 -19t11.5 -20.5t10.5 -18.5l266 -494l131 209q203 340 203 408q0 13 -3 23.5t-10 18.5t-13 14t-18 10t-19 7 t-22.5 5.5t-21.5 3.5t-22 2.5t-19 1.5v47q37 -1 109.5 -4.5t109.5 -4.5q34 1 100.5 4.5t100.5 4.5v-47q-41 -3 -72.5 -17t-57 -41t-41 -49.5t-39.5 -63.5q-5 -8 -7 -12l-354 -585v-273q0 -43 0.5 -65.5t4 -48.5t7.5 -37.5t16 -25.5t23.5 -18.5t37 -11t49 -9t65.5 -5.5v-47 q-51 1 -154 4t-154 4q-52 -1 -156.5 -4t-156.5 -4v47q42 3 66.5 5.5t49.5 9t37 11.5t24.5 18.5t16.5 25.5t8 37.5t4.5 48.5t0.5 65v254l-189 326q-3 5 -38 72t-69 129.5t-75.5 130t-66.5 92.5q-12 14 -27 21t-26.5 9t-32 3.5t-33.5 3.5zM463 1554l319 254q59 47 90 47 q30 0 51 -20.5t21 -50.5q0 -19 -7.5 -34.5t-25 -28t-29 -18.5t-37.5 -16.5t-32 -13.5l-274 -119h-76z" />
<glyph unicode="&#xde;" horiz-adv-x="1187" d="M57 -4v47q27 0 42 0.5t40.5 4t40.5 10.5t29.5 21t21.5 34q19 58 19 272v576q0 216 -19 274q-7 21 -22.5 35t-29.5 21t-40.5 10t-39 3.5t-42.5 0.5v47q58 -1 157.5 -4.5t131.5 -4.5q53 1 156 4.5t153 4.5v-47q-27 0 -42 -0.5t-40.5 -4t-40.5 -10.5t-30.5 -21t-22.5 -34 q-18 -52 -18 -141v-58q81 3 198 6q70 -3 134 -15t127 -38.5t108.5 -65.5t73.5 -99.5t28 -135.5q0 -86 -32.5 -153t-84 -107t-123.5 -66t-142.5 -35.5t-149.5 -9.5q-22 0 -80 3l-57 4q5 -170 20 -211q7 -19 20.5 -32.5t27 -20.5t35.5 -10.5t37 -4.5t40 -1t37 -1v-47 q-53 1 -160 4t-160 4q-49 -1 -149 -4t-152 -4zM461 373q13 -1 55 -4.5t64 -3.5q161 0 238 74t77 237q0 301 -293 301q-102 -3 -117 -8q-21 -6 -23 -35q-1 -7 -1 -53v-508z" />
<glyph unicode="&#xdf;" horiz-adv-x="1105" d="M37 -4v47q31 2 53.5 6t38.5 10t25.5 15t15 21t7.5 28t3 35.5t0 43.5v29v709q0 68 2.5 110t18.5 100t47 99q52 71 136.5 109.5t176.5 38.5q95 0 178.5 -38t137 -113.5t53.5 -172.5q0 -118 -78.5 -197t-200.5 -112v-4q164 -17 264.5 -130.5t100.5 -279.5q0 -155 -96.5 -266 t-247.5 -111q-40 0 -81 12t-73.5 42t-32.5 71q0 33 17.5 51.5t50.5 18.5q29 0 50 -22.5t24 -51.5q0 -4 1.5 -14.5t2 -13.5t2 -11t3.5 -10.5t5 -8t7 -7.5t9.5 -4.5t12.5 -3.5t16 -1q43 0 73 37.5t43 96t18 105t5 89.5q0 203 -72.5 303.5t-242.5 81.5v55q44 2 71.5 5.5 t56.5 12.5t45.5 26t30.5 45.5t19.5 70t5.5 99.5q0 303 -188 303q-33 0 -60 -9.5t-46.5 -23.5t-35 -38.5t-25 -47t-16 -56.5t-10 -59.5t-4.5 -63t-1 -59.5t0.5 -58t0.5 -50v-672q0 -11 -1 -36t-0.5 -35.5t2.5 -29.5t8 -27.5t16 -19.5t27 -16.5t40 -7.5v-45q-32 1 -95.5 4 t-94.5 4q-37 -1 -109.5 -4t-109.5 -4z" />
<glyph unicode="&#xe0;" horiz-adv-x="983" d="M70 154q0 46 20 87t46 68.5t73 56.5t77 43.5t82 37.5q9 4 15 6.5t12 5.5l203 98q6 3 9.5 7t5 12t2 11.5t0 15t-0.5 13.5q0 49 -2.5 79t-12.5 64t-29 52.5t-53 30.5t-83 12q-36 0 -59.5 -1.5t-50 -8t-42.5 -19t-27 -34.5t-13 -54q-3 -37 -24.5 -63.5t-57.5 -26.5 q-34 0 -56 20.5t-22 53.5q0 43 29.5 76.5t72.5 52.5t98 31t97.5 16t79.5 4q89 0 148 -13t102 -46t62.5 -90.5t19.5 -145.5v-338v-20v-26.5t0.5 -28.5t2.5 -30.5t5.5 -28.5t9 -27.5t12.5 -20.5t17.5 -15t23.5 -5q12 0 21.5 3t19.5 12t14.5 13.5t15.5 19.5t13 17l39 -20 q-27 -55 -78.5 -96.5t-105.5 -41.5q-62 0 -111.5 42t-64.5 104q-180 -146 -342 -146q-87 0 -150 49.5t-63 131.5zM258 1315q0 29 20.5 50t49.5 21q31 0 90 -47l321 -254h-75l-277 119q-3 1 -22 8.5t-26 10.5t-23 11t-23.5 15t-17 17.5t-13.5 22.5t-4 26zM260 203 q0 -60 35.5 -104t95.5 -44q55 0 115 34.5t110 82.5v334q-16 -8 -57.5 -26.5t-67.5 -31.5t-65.5 -34t-65 -42t-50.5 -47t-37.5 -57t-12.5 -65z" />
<glyph unicode="&#xe1;" horiz-adv-x="983" d="M70 154q0 46 20 87t46 68.5t73 56.5t77 43.5t82 37.5q9 4 15 6.5t12 5.5l203 98q6 3 9.5 7t5 12t2 11.5t0 15t-0.5 13.5q0 49 -2.5 79t-12.5 64t-29 52.5t-53 30.5t-83 12q-36 0 -59.5 -1.5t-50 -8t-42.5 -19t-27 -34.5t-13 -54q-3 -37 -24.5 -63.5t-57.5 -26.5 q-34 0 -56 20.5t-22 53.5q0 43 29.5 76.5t72.5 52.5t98 31t97.5 16t79.5 4q89 0 148 -13t102 -46t62.5 -90.5t19.5 -145.5v-338v-20v-26.5t0.5 -28.5t2.5 -30.5t5.5 -28.5t9 -27.5t12.5 -20.5t17.5 -15t23.5 -5q12 0 21.5 3t19.5 12t14.5 13.5t15.5 19.5t13 17l39 -20 q-27 -55 -78.5 -96.5t-105.5 -41.5q-62 0 -111.5 42t-64.5 104q-180 -146 -342 -146q-87 0 -150 49.5t-63 131.5zM260 203q0 -60 35.5 -104t95.5 -44q55 0 115 34.5t110 82.5v334q-16 -8 -57.5 -26.5t-67.5 -31.5t-65.5 -34t-65 -42t-50.5 -47t-37.5 -57t-12.5 -65z M332 1085l319 254q59 47 90 47t51.5 -21t20.5 -50q0 -19 -7.5 -34.5t-25 -28t-29 -18.5t-37.5 -16.5t-32 -13.5l-274 -119h-76z" />
<glyph unicode="&#xe2;" horiz-adv-x="983" d="M70 154q0 46 20 87t46 68.5t73 56.5t77 43.5t82 37.5q9 4 15 6.5t12 5.5l203 98q6 3 9.5 7t5 12t2 11.5t0 15t-0.5 13.5q0 49 -2.5 79t-12.5 64t-29 52.5t-53 30.5t-83 12q-36 0 -59.5 -1.5t-50 -8t-42.5 -19t-27 -34.5t-13 -54q-3 -37 -24.5 -63.5t-57.5 -26.5 q-34 0 -56 20.5t-22 53.5q0 43 29.5 76.5t72.5 52.5t98 31t97.5 16t79.5 4q89 0 148 -13t102 -46t62.5 -90.5t19.5 -145.5v-338v-20v-26.5t0.5 -28.5t2.5 -30.5t5.5 -28.5t9 -27.5t12.5 -20.5t17.5 -15t23.5 -5q12 0 21.5 3t19.5 12t14.5 13.5t15.5 19.5t13 17l39 -20 q-27 -55 -78.5 -96.5t-105.5 -41.5q-62 0 -111.5 42t-64.5 104q-180 -146 -342 -146q-87 0 -150 49.5t-63 131.5zM197 1085l233 301h113l225 -301h-63l-220 164l-227 -164h-61zM260 203q0 -60 35.5 -104t95.5 -44q55 0 115 34.5t110 82.5v334q-16 -8 -57.5 -26.5 t-67.5 -31.5t-65.5 -34t-65 -42t-50.5 -47t-37.5 -57t-12.5 -65z" />
<glyph unicode="&#xe3;" horiz-adv-x="983" d="M70 154q0 46 20 87t46 68.5t73 56.5t77 43.5t82 37.5q9 4 15 6.5t12 5.5l203 98q6 3 9.5 7t5 12t2 11.5t0 15t-0.5 13.5q0 49 -2.5 79t-12.5 64t-29 52.5t-53 30.5t-83 12q-36 0 -59.5 -1.5t-50 -8t-42.5 -19t-27 -34.5t-13 -54q-3 -37 -24.5 -63.5t-57.5 -26.5 q-34 0 -56 20.5t-22 53.5q0 43 29.5 76.5t72.5 52.5t98 31t97.5 16t79.5 4q89 0 148 -13t102 -46t62.5 -90.5t19.5 -145.5v-338v-20v-26.5t0.5 -28.5t2.5 -30.5t5.5 -28.5t9 -27.5t12.5 -20.5t17.5 -15t23.5 -5q12 0 21.5 3t19.5 12t14.5 13.5t15.5 19.5t13 17l39 -20 q-27 -55 -78.5 -96.5t-105.5 -41.5q-62 0 -111.5 42t-64.5 104q-180 -146 -342 -146q-87 0 -150 49.5t-63 131.5zM197 1180q13 71 65 125.5t121 54.5q15 0 29 -2t32 -7.5t26 -8.5t30.5 -12.5t25.5 -10.5q7 -3 29 -11.5t34.5 -13.5t31 -9.5t32.5 -4.5q51 0 72 72h53 q-7 -67 -55 -125q-55 -62 -117 -62q-11 0 -22.5 1t-24 4t-20.5 5t-23 8t-20 7.5t-22.5 9t-20.5 8.5q-97 41 -129 41q-48 0 -72 -69h-55zM260 203q0 -60 35.5 -104t95.5 -44q55 0 115 34.5t110 82.5v334q-16 -8 -57.5 -26.5t-67.5 -31.5t-65.5 -34t-65 -42t-50.5 -47 t-37.5 -57t-12.5 -65z" />
<glyph unicode="&#xe4;" horiz-adv-x="983" d="M70 154q0 46 20 87t46 68.5t73 56.5t77 43.5t82 37.5q9 4 15 6.5t12 5.5l203 98q6 3 9.5 7t5 12t2 11.5t0 15t-0.5 13.5q0 49 -2.5 79t-12.5 64t-29 52.5t-53 30.5t-83 12q-36 0 -59.5 -1.5t-50 -8t-42.5 -19t-27 -34.5t-13 -54q-3 -37 -24.5 -63.5t-57.5 -26.5 q-34 0 -56 20.5t-22 53.5q0 43 29.5 76.5t72.5 52.5t98 31t97.5 16t79.5 4q89 0 148 -13t102 -46t62.5 -90.5t19.5 -145.5v-338v-20v-26.5t0.5 -28.5t2.5 -30.5t5.5 -28.5t9 -27.5t12.5 -20.5t17.5 -15t23.5 -5q12 0 21.5 3t19.5 12t14.5 13.5t15.5 19.5t13 17l39 -20 q-27 -55 -78.5 -96.5t-105.5 -41.5q-62 0 -111.5 42t-64.5 104q-180 -146 -342 -146q-87 0 -150 49.5t-63 131.5zM238 1245q0 42 31 71.5t73 29.5q40 0 72 -30t32 -71q0 -45 -30 -76.5t-74 -31.5q-45 0 -74.5 31.5t-29.5 76.5zM260 203q0 -60 35.5 -104t95.5 -44 q55 0 115 34.5t110 82.5v334q-16 -8 -57.5 -26.5t-67.5 -31.5t-65.5 -34t-65 -42t-50.5 -47t-37.5 -57t-12.5 -65zM518 1245q0 42 32 71.5t73 29.5q42 0 73 -30t31 -71q0 -45 -29.5 -76.5t-74.5 -31.5q-44 0 -74.5 31.5t-30.5 76.5z" />
<glyph unicode="&#xe5;" horiz-adv-x="983" d="M70 154q0 46 20 87t46 68.5t73 56.5t77 43.5t82 37.5q9 4 15 6.5t12 5.5l203 98q6 3 9.5 7t5 12t2 11.5t0 15t-0.5 13.5q0 49 -2.5 79t-12.5 64t-29 52.5t-53 30.5t-83 12q-36 0 -59.5 -1.5t-50 -8t-42.5 -19t-27 -34.5t-13 -54q-3 -37 -24.5 -63.5t-57.5 -26.5 q-34 0 -56 20.5t-22 53.5q0 43 29.5 76.5t72.5 52.5t98 31t97.5 16t79.5 4q89 0 148 -13t102 -46t62.5 -90.5t19.5 -145.5v-338v-20v-26.5t0.5 -28.5t2.5 -30.5t5.5 -28.5t9 -27.5t12.5 -20.5t17.5 -15t23.5 -5q12 0 21.5 3t19.5 12t14.5 13.5t15.5 19.5t13 17l39 -20 q-27 -55 -78.5 -96.5t-105.5 -41.5q-62 0 -111.5 42t-64.5 104q-180 -146 -342 -146q-87 0 -150 49.5t-63 131.5zM260 203q0 -60 35.5 -104t95.5 -44q55 0 115 34.5t110 82.5v334q-16 -8 -57.5 -26.5t-67.5 -31.5t-65.5 -34t-65 -42t-50.5 -47t-37.5 -57t-12.5 -65z M299 1262q0 76 56 130t132 54q77 0 136 -52.5t59 -127.5q0 -83 -55.5 -137t-137.5 -54q-77 0 -133.5 55.5t-56.5 131.5zM369 1262q0 -53 36.5 -90t88.5 -37q49 0 83.5 37.5t34.5 87.5q0 53 -36 91t-89 38q-51 0 -84.5 -38t-33.5 -89z" />
<glyph unicode="&#xe6;" horiz-adv-x="1474" d="M70 158q0 43 19 82t54 70t73.5 57t90 49.5t89.5 39t86 33t67 25.5q22 10 26.5 11.5t16 9.5t11 10.5t3.5 15t2.5 22t0 34t3.5 47.5q0 102 -46 146t-148 44q-51 0 -84.5 -14.5t-47 -37t-23.5 -48t-16 -48t-24.5 -37t-48.5 -14.5t-53 20.5t-23 51.5q0 43 26 75.5t63.5 50.5 t87 29.5t88.5 15t75 3.5q46 0 83 -4t79 -15.5t74 -36.5t49 -63q136 119 319 119q144 0 251.5 -90.5t107.5 -232.5q0 -19 -12 -24.5t-27 -2t-29 -0.5h-559q-5 -60 1.5 -126.5t28.5 -136t57.5 -124.5t94.5 -90t134 -35q70 0 133 38t110 101l41 -33q-58 -77 -145.5 -124.5 t-179.5 -47.5q-110 0 -218 49.5t-161 135.5q-100 -90 -188.5 -137.5t-196.5 -47.5q-92 0 -153.5 47.5t-61.5 137.5zM260 197q0 -60 35.5 -101t95.5 -41q98 0 260 140q-51 112 -51 290q-16 -7 -56 -24t-65 -28.5t-62.5 -31t-61.5 -39t-48 -45t-35.5 -56t-11.5 -64.5zM782 606 h340h18.5h17.5t13.5 0.5t12.5 2.5t9 5t8 7.5t5 11.5t3.5 16t0.5 21q0 79 -53 131.5t-133 52.5q-102 0 -167.5 -71.5t-74.5 -176.5z" />
<glyph unicode="&#xe7;" horiz-adv-x="942" d="M82 408q0 214 143.5 353.5t358.5 139.5q36 0 76.5 -6t85.5 -19.5t74.5 -42.5t29.5 -69q0 -28 -20.5 -52t-47.5 -24q-61 0 -90 80q-20 48 -41 63t-76 15q-64 0 -114.5 -25t-82.5 -65.5t-53 -95t-29.5 -109t-8.5 -111.5q0 -63 8.5 -118t29.5 -108t53.5 -91t84.5 -61 t119 -23q146 0 258 129l43 -37q-58 -72 -148.5 -112.5t-189.5 -45.5l-29 -75q70 2 127 -29t57 -96q0 -60 -47 -92.5t-110 -32.5q-52 0 -111 28.5t-59 75.5q0 15 11 28t26 13q14 0 23.5 -7.5t14 -16.5t9.5 -23q9 -28 25 -40.5t46 -12.5q36 0 60 19.5t24 54.5q0 48 -36 68 t-87 20q-8 0 -24.5 -1t-24.5 -1l47 122q-178 11 -291.5 131.5t-113.5 301.5z" />
<glyph unicode="&#xe8;" horiz-adv-x="1024" d="M82 414q0 128 59 239t166 179.5t236 68.5q104 0 191 -36.5t143.5 -114t56.5 -183.5q0 -8 -3 -12.5t-9.5 -5.5t-11.5 -1t-14 0.5t-13 0.5h-588l-8 -98q0 -75 20 -147t58 -132t101 -96.5t142 -36.5q74 0 141.5 42t116.5 109l43 -43q-140 -174 -364 -174q-194 0 -328.5 124 t-134.5 317zM279 1315q0 29 20 50t49 21q31 0 90 -47l322 -254h-76l-276 119q-3 1 -22 8.5t-26 10.5t-23 11t-23.5 15t-17 17.5t-13.5 22.5t-4 26zM305 604h338q3 0 18 -0.5t23 -0.5t21 2t20 6.5t12.5 13t5.5 20.5q0 97 -51.5 153t-146.5 56q-193 0 -240 -250z" />
<glyph unicode="&#xe9;" horiz-adv-x="1024" d="M82 414q0 128 59 239t166 179.5t236 68.5q104 0 191 -36.5t143.5 -114t56.5 -183.5q0 -8 -3 -12.5t-9.5 -5.5t-11.5 -1t-14 0.5t-13 0.5h-588l-8 -98q0 -75 20 -147t58 -132t101 -96.5t142 -36.5q74 0 141.5 42t116.5 109l43 -43q-140 -174 -364 -174q-194 0 -328.5 124 t-134.5 317zM305 604h338q3 0 18 -0.5t23 -0.5t21 2t20 6.5t12.5 13t5.5 20.5q0 97 -51.5 153t-146.5 56q-193 0 -240 -250zM352 1085l320 254q59 47 90 47q30 0 51 -21t21 -50q0 -19 -7.5 -34.5t-25 -28t-29.5 -18.5t-37.5 -16.5t-32.5 -13.5l-274 -119h-76z" />
<glyph unicode="&#xea;" horiz-adv-x="1024" d="M82 414q0 128 59 239t166 179.5t236 68.5q104 0 191 -36.5t143.5 -114t56.5 -183.5q0 -8 -3 -12.5t-9.5 -5.5t-11.5 -1t-14 0.5t-13 0.5h-588l-8 -98q0 -75 20 -147t58 -132t101 -96.5t142 -36.5q74 0 141.5 42t116.5 109l43 -43q-140 -174 -364 -174q-194 0 -328.5 124 t-134.5 317zM217 1085l234 301h112l225 -301h-63l-219 164l-227 -164h-62zM305 604h338q3 0 18 -0.5t23 -0.5t21 2t20 6.5t12.5 13t5.5 20.5q0 97 -51.5 153t-146.5 56q-193 0 -240 -250z" />
<glyph unicode="&#xeb;" horiz-adv-x="1024" d="M82 414q0 128 59 239t166 179.5t236 68.5q104 0 191 -36.5t143.5 -114t56.5 -183.5q0 -8 -3 -12.5t-9.5 -5.5t-11.5 -1t-14 0.5t-13 0.5h-588l-8 -98q0 -75 20 -147t58 -132t101 -96.5t142 -36.5q74 0 141.5 42t116.5 109l43 -43q-140 -174 -364 -174q-194 0 -328.5 124 t-134.5 317zM258 1245q0 42 31 71.5t73 29.5q40 0 72.5 -30t32.5 -71q0 -45 -30.5 -76.5t-74.5 -31.5q-45 0 -74.5 31.5t-29.5 76.5zM305 604h338q3 0 18 -0.5t23 -0.5t21 2t20 6.5t12.5 13t5.5 20.5q0 97 -51.5 153t-146.5 56q-193 0 -240 -250zM539 1245q0 42 31.5 71.5 t72.5 29.5q42 0 73.5 -30t31.5 -71q0 -45 -30 -76.5t-75 -31.5q-44 0 -74 31.5t-30 76.5z" />
<glyph unicode="&#xec;" horiz-adv-x="614" d="M72 797v41l323 63v-657q0 -16 0.5 -46.5t1 -42t3 -33t8 -29.5t15.5 -21t25.5 -18t38 -10t52.5 -7v-41q-33 1 -107 4t-113 4q-40 -1 -119.5 -4t-119.5 -4v41q52 3 81 12.5t41.5 32t15.5 46t3 72.5v31v293q0 197 -8 228q-14 51 -141 45zM74 1315q0 29 20 50t49 21 q31 0 90 -47l322 -254h-76l-276 119q-3 1 -22 8.5t-26 10.5t-23 11t-23.5 15t-17 17.5t-13.5 22.5t-4 26z" />
<glyph unicode="&#xed;" horiz-adv-x="614" d="M72 797v41l323 63v-657q0 -16 0.5 -46.5t1 -42t3 -33t8 -29.5t15.5 -21t25.5 -18t38 -10t52.5 -7v-41q-33 1 -107 4t-113 4q-40 -1 -119.5 -4t-119.5 -4v41q52 3 81 12.5t41.5 32t15.5 46t3 72.5v31v293q0 197 -8 228q-14 51 -141 45zM147 1085l320 254q59 47 90 47 t51.5 -21t20.5 -50q0 -19 -7.5 -34.5t-25 -28t-29 -18.5t-37.5 -16.5t-32 -13.5l-275 -119h-76z" />
<glyph unicode="&#xee;" horiz-adv-x="614" d="M12 1085l234 301h112l226 -301h-64l-219 164l-227 -164h-62zM72 797v41l323 63v-657q0 -16 0.5 -46.5t1 -42t3 -33t8 -29.5t15.5 -21t25.5 -18t38 -10t52.5 -7v-41q-33 1 -107 4t-113 4q-40 -1 -119.5 -4t-119.5 -4v41q52 3 81 12.5t41.5 32t15.5 46t3 72.5v31v293 q0 197 -8 228q-14 51 -141 45z" />
<glyph unicode="&#xef;" horiz-adv-x="614" d="M53 1245q0 42 31.5 71.5t73.5 29.5q40 0 72 -30t32 -71q0 -45 -30 -76.5t-74 -31.5q-45 0 -75 31.5t-30 76.5zM72 797v41l323 63v-657q0 -16 0.5 -46.5t1 -42t3 -33t8 -29.5t15.5 -21t25.5 -18t38 -10t52.5 -7v-41q-33 1 -107 4t-113 4q-40 -1 -119.5 -4t-119.5 -4v41 q52 3 81 12.5t41.5 32t15.5 46t3 72.5v31v293q0 197 -8 228q-14 51 -141 45zM334 1245q0 42 31.5 71.5t72.5 29.5q42 0 73.5 -30t31.5 -71q0 -45 -30 -76.5t-75 -31.5q-44 0 -74 31.5t-30 76.5z" />
<glyph unicode="&#xf0;" horiz-adv-x="1146" d="M82 449q0 127 70.5 232t183 162.5t237.5 57.5q95 0 164.5 -42.5t104.5 -102.5l4 4q-70 286 -228 436l-239 -139l-70 55l244 141q-98 76 -250 129l37 52q167 -46 305 -127l250 143l70 -55l-242 -140q344 -248 344 -720q0 -86 -16 -164.5t-53 -152t-93 -127.5t-141 -86 t-191 -32q-132 0 -244.5 62t-179.5 172t-67 242zM287 440q0 -63 7.5 -119t28 -112.5t53 -97t86 -66t122.5 -25.5q64 0 114 25.5t80.5 65.5t50 95t26.5 109t7 113q0 64 -7.5 120.5t-27.5 114t-52.5 98.5t-86 67t-123.5 26q-79 0 -136.5 -38.5t-86.5 -103t-42 -131.5t-13 -141 z" />
<glyph unicode="&#xf1;" horiz-adv-x="1228" d="M68 797v41q59 7 151 31.5t131 31.5l27 -186h4q105 186 328 186q305 0 305 -283v-374v-35q-1 -24 -0.5 -44t2.5 -37t7.5 -30.5t15.5 -24t25.5 -18t38.5 -12t54 -6.5v-41q-37 1 -111.5 4t-111.5 4q-40 -1 -119 -4t-119 -4v41q24 2 43 4.5t33.5 7t25 10.5t18 14t12 18 t7.5 22t4 26.5t1 31.5v37v23v263v12q0 58 -1 90t-11 85t-28.5 81.5t-56.5 51t-92 22.5q-117 0 -189.5 -79.5t-72.5 -195.5v-317q0 -14 -0.5 -38t-0.5 -34.5t1 -29.5t3.5 -27t7 -21t12 -19t18 -14t25.5 -12t34 -7.5t43 -4.5v-41q-37 1 -111.5 4t-111.5 4q-40 -1 -118.5 -4 t-118.5 -4v41q27 2 47.5 5.5t35.5 8.5t25.5 12.5t17.5 17.5t10.5 22.5t5 28t1.5 34v40.5v25v252q0 201 -10 248q-3 14 -8.5 24.5t-10 17.5t-15.5 11.5t-15 7t-20.5 4t-20 1.5h-24h-23.5zM319 1180q13 70 65.5 125t121.5 55q15 0 29 -2t32 -7.5t26 -8.5t30.5 -12.5 t25.5 -10.5q7 -3 29 -11.5t34.5 -13.5t31 -9.5t32.5 -4.5q51 0 72 72h53q-7 -67 -55 -125q-55 -62 -117 -62q-10 0 -21 1t-19 2.5t-20 5t-18.5 5.5t-20 7t-18 6.5t-19.5 8t-18 7.5q-97 41 -129 41q-47 0 -71 -69h-56z" />
<glyph unicode="&#xf2;" horiz-adv-x="1146" d="M82 449q0 127 70.5 232t183 162.5t237.5 57.5q127 0 240 -59.5t183.5 -166.5t70.5 -235q0 -135 -67.5 -242.5t-180 -166t-246.5 -58.5q-132 0 -244.5 62t-179.5 172t-67 242zM287 440q0 -63 7.5 -119t28 -112.5t53 -97t86 -66t122.5 -25.5q64 0 114 25.5t80.5 65.5t50 95 t26.5 109t7 113q0 64 -7.5 120.5t-27.5 114t-52.5 98.5t-86 67t-123.5 26q-79 0 -136.5 -38.5t-86.5 -103t-42 -131.5t-13 -141zM340 1315q0 29 20.5 50t49.5 21q31 0 90 -47l321 -254h-76l-276 119q-3 1 -22 8.5t-26 10.5t-23 11t-23.5 15t-17 17.5t-13.5 22.5t-4 26z" />
<glyph unicode="&#xf3;" horiz-adv-x="1146" d="M82 449q0 127 70.5 232t183 162.5t237.5 57.5q127 0 240 -59.5t183.5 -166.5t70.5 -235q0 -135 -67.5 -242.5t-180 -166t-246.5 -58.5q-132 0 -244.5 62t-179.5 172t-67 242zM287 440q0 -63 7.5 -119t28 -112.5t53 -97t86 -66t122.5 -25.5q64 0 114 25.5t80.5 65.5t50 95 t26.5 109t7 113q0 64 -7.5 120.5t-27.5 114t-52.5 98.5t-86 67t-123.5 26q-79 0 -136.5 -38.5t-86.5 -103t-42 -131.5t-13 -141zM414 1085l319 254q59 47 90 47t51.5 -21t20.5 -50q0 -19 -7.5 -34.5t-25 -28t-29 -18.5t-37.5 -16.5t-32 -13.5l-275 -119h-75z" />
<glyph unicode="&#xf4;" horiz-adv-x="1146" d="M82 449q0 127 70.5 232t183 162.5t237.5 57.5q127 0 240 -59.5t183.5 -166.5t70.5 -235q0 -135 -67.5 -242.5t-180 -166t-246.5 -58.5q-132 0 -244.5 62t-179.5 172t-67 242zM279 1085l233 301h113l225 -301h-64l-219 164l-227 -164h-61zM287 440q0 -63 7.5 -119 t28 -112.5t53 -97t86 -66t122.5 -25.5q64 0 114 25.5t80.5 65.5t50 95t26.5 109t7 113q0 64 -7.5 120.5t-27.5 114t-52.5 98.5t-86 67t-123.5 26q-79 0 -136.5 -38.5t-86.5 -103t-42 -131.5t-13 -141z" />
<glyph unicode="&#xf5;" horiz-adv-x="1146" d="M82 449q0 127 70.5 232t183 162.5t237.5 57.5q127 0 240 -59.5t183.5 -166.5t70.5 -235q0 -135 -67.5 -242.5t-180 -166t-246.5 -58.5q-132 0 -244.5 62t-179.5 172t-67 242zM279 1180q13 71 65 125.5t121 54.5q15 0 29 -2t32 -7.5t26 -8.5t30.5 -12.5t25.5 -10.5 q7 -3 29 -11.5t34.5 -13.5t31 -9.5t32.5 -4.5q51 0 72 72h53q-7 -67 -55 -125q-55 -62 -117 -62q-11 0 -22.5 1t-24 4t-20.5 5t-23 8t-20 7.5t-22.5 9t-20.5 8.5q-97 41 -129 41q-48 0 -72 -69h-55zM287 440q0 -63 7.5 -119t28 -112.5t53 -97t86 -66t122.5 -25.5 q64 0 114 25.5t80.5 65.5t50 95t26.5 109t7 113q0 64 -7.5 120.5t-27.5 114t-52.5 98.5t-86 67t-123.5 26q-79 0 -136.5 -38.5t-86.5 -103t-42 -131.5t-13 -141z" />
<glyph unicode="&#xf6;" horiz-adv-x="1146" d="M82 449q0 127 70.5 232t183 162.5t237.5 57.5q127 0 240 -59.5t183.5 -166.5t70.5 -235q0 -135 -67.5 -242.5t-180 -166t-246.5 -58.5q-132 0 -244.5 62t-179.5 172t-67 242zM287 440q0 -63 7.5 -119t28 -112.5t53 -97t86 -66t122.5 -25.5q64 0 114 25.5t80.5 65.5t50 95 t26.5 109t7 113q0 64 -7.5 120.5t-27.5 114t-52.5 98.5t-86 67t-123.5 26q-79 0 -136.5 -38.5t-86.5 -103t-42 -131.5t-13 -141zM319 1245q0 42 31.5 71.5t73.5 29.5q40 0 72 -30t32 -71q0 -45 -30 -76.5t-74 -31.5q-45 0 -75 31.5t-30 76.5zM600 1245q0 42 32 71.5t73 29.5 q42 0 73 -30t31 -71q0 -45 -29.5 -76.5t-74.5 -31.5q-44 0 -74.5 31.5t-30.5 76.5z" />
<glyph unicode="&#xf7;" d="M68 473v94h929v-94h-929zM430 115q0 42 31.5 71t73.5 29q40 0 72 -29.5t32 -70.5q0 -45 -30 -77t-74 -32q-45 0 -75 32t-30 77zM430 934q0 42 31.5 71t73.5 29q40 0 72 -29.5t32 -70.5q0 -45 -30 -77t-74 -32q-45 0 -75 32t-30 77z" />
<glyph unicode="&#xf8;" horiz-adv-x="1146" d="M82 436q0 131 68 238.5t180 167t241 59.5q130 0 230 -53l117 170h88l-142 -209q90 -60 143.5 -159.5t53.5 -207.5q0 -102 -40 -190.5t-107.5 -149t-157.5 -95t-189 -34.5q-134 0 -237 56l-129 -195h-92l161 232q-89 57 -138.5 158t-49.5 212zM287 444q0 -180 49 -278 l418 610q-66 78 -172 78q-83 0 -143.5 -36t-92 -98t-45.5 -129.5t-14 -146.5zM377 96q34 -38 86 -57t108 -19q65 0 116 25.5t82 65.5t51 95.5t28 110t8 113.5q0 197 -57 285z" />
<glyph unicode="&#xf9;" horiz-adv-x="1187" d="M39 844v39q29 -1 85 -4.5t85 -4.5q27 1 81 4.5t79 4.5v-559q0 -45 2 -77t12 -74.5t27 -69t50 -45.5t79 -19q119 0 199.5 90.5t80.5 212.5v274v31v46t-2 36.5t-5.5 32t-11 24t-18.5 21t-27.5 15t-38.5 13.5t-52 9v41q28 -2 84.5 -5.5t85.5 -5.5q25 2 78.5 5.5t80.5 5.5 v-660q0 -23 0.5 -36t4.5 -35t11.5 -34.5t22.5 -22t37 -9.5q11 0 24 1t29 2.5t25 2.5v-47l-285 -74l-43 193q-57 -87 -149 -140t-193 -53q-149 0 -215.5 75.5t-66.5 217.5v350v29q1 22 0.5 41t-1.5 35t-4 29.5t-8 24.5t-13 20t-19.5 16.5t-27.5 13.5t-36.5 10.5t-46.5 8.5z M360 1315q0 29 20.5 50t49.5 21q31 0 90 -47l322 -254h-76l-277 119q-3 1 -22 8.5t-26 10.5t-23 11t-23.5 15t-17 17.5t-13.5 22.5t-4 26z" />
<glyph unicode="&#xfa;" horiz-adv-x="1187" d="M39 844v39q29 -1 85 -4.5t85 -4.5q27 1 81 4.5t79 4.5v-559q0 -45 2 -77t12 -74.5t27 -69t50 -45.5t79 -19q119 0 199.5 90.5t80.5 212.5v274v31v46t-2 36.5t-5.5 32t-11 24t-18.5 21t-27.5 15t-38.5 13.5t-52 9v41q28 -2 84.5 -5.5t85.5 -5.5q25 2 78.5 5.5t80.5 5.5 v-660q0 -23 0.5 -36t4.5 -35t11.5 -34.5t22.5 -22t37 -9.5q11 0 24 1t29 2.5t25 2.5v-47l-285 -74l-43 193q-57 -87 -149 -140t-193 -53q-149 0 -215.5 75.5t-66.5 217.5v350v29q1 22 0.5 41t-1.5 35t-4 29.5t-8 24.5t-13 20t-19.5 16.5t-27.5 13.5t-36.5 10.5t-46.5 8.5z M434 1085l320 254q59 47 90 47q30 0 50.5 -20.5t20.5 -50.5q0 -19 -7.5 -34.5t-25 -28t-29 -18.5t-37.5 -16.5t-32 -13.5l-274 -119h-76z" />
<glyph unicode="&#xfb;" horiz-adv-x="1187" d="M39 844v39q29 -1 85 -4.5t85 -4.5q27 1 81 4.5t79 4.5v-559q0 -45 2 -77t12 -74.5t27 -69t50 -45.5t79 -19q119 0 199.5 90.5t80.5 212.5v274v31v46t-2 36.5t-5.5 32t-11 24t-18.5 21t-27.5 15t-38.5 13.5t-52 9v41q28 -2 84.5 -5.5t85.5 -5.5q25 2 78.5 5.5t80.5 5.5 v-660q0 -23 0.5 -36t4.5 -35t11.5 -34.5t22.5 -22t37 -9.5q11 0 24 1t29 2.5t25 2.5v-47l-285 -74l-43 193q-57 -87 -149 -140t-193 -53q-149 0 -215.5 75.5t-66.5 217.5v350v29q1 22 0.5 41t-1.5 35t-4 29.5t-8 24.5t-13 20t-19.5 16.5t-27.5 13.5t-36.5 10.5t-46.5 8.5z M299 1085l233 301h113l225 -301h-63l-219 164l-228 -164h-61z" />
<glyph unicode="&#xfc;" horiz-adv-x="1187" d="M39 844v39q29 -1 85 -4.5t85 -4.5q27 1 81 4.5t79 4.5v-559q0 -45 2 -77t12 -74.5t27 -69t50 -45.5t79 -19q119 0 199.5 90.5t80.5 212.5v274v31v46t-2 36.5t-5.5 32t-11 24t-18.5 21t-27.5 15t-38.5 13.5t-52 9v41q28 -2 84.5 -5.5t85.5 -5.5q25 2 78.5 5.5t80.5 5.5 v-660q0 -23 0.5 -36t4.5 -35t11.5 -34.5t22.5 -22t37 -9.5q11 0 24 1t29 2.5t25 2.5v-47l-285 -74l-43 193q-57 -87 -149 -140t-193 -53q-149 0 -215.5 75.5t-66.5 217.5v350v29q1 22 0.5 41t-1.5 35t-4 29.5t-8 24.5t-13 20t-19.5 16.5t-27.5 13.5t-36.5 10.5t-46.5 8.5z M340 1245q0 42 31 71.5t73 29.5q40 0 72.5 -30t32.5 -71q0 -45 -30.5 -76.5t-74.5 -31.5q-45 0 -74.5 31.5t-29.5 76.5zM621 1245q0 42 31.5 71.5t72.5 29.5q42 0 73 -30t31 -71q0 -45 -29.5 -76.5t-74.5 -31.5q-44 0 -74 31.5t-30 76.5z" />
<glyph unicode="&#xfd;" horiz-adv-x="860" d="M-31 842v41q35 -1 104.5 -4.5t104.5 -4.5q39 1 116 4.5t116 4.5v-41q-6 -2 -31 -6t-43.5 -9t-34.5 -19.5t-16 -37.5q0 -45 84 -246l131 -313l153 369q58 142 58 190q0 26 -20.5 43t-43 22.5t-49.5 6.5v41q27 -1 79.5 -4.5t78.5 -4.5q22 1 67 4.5t68 4.5v-41 q-25 -1 -42 -7t-28.5 -20.5t-18 -26.5t-16 -37.5t-16.5 -39.5l-27 -60l-426 -983q-1 -2 -10 -23.5t-13 -30t-14.5 -31t-17.5 -34t-18.5 -30.5t-22 -29.5t-23 -21.5t-26 -16t-27.5 -5q-26 -6 -43.5 10t-17.5 39q0 32 19 54.5t43 33t52.5 27.5t41.5 37q27 41 92 188l78 174 l-289 674q-34 85 -60 115q-14 15 -43.5 29t-48.5 14zM270 1085l320 254q59 47 90 47q30 0 51 -21t21 -50q0 -19 -7.5 -34.5t-25 -28t-29 -18.5t-37.5 -16.5t-32 -13.5l-275 -119h-76z" />
<glyph unicode="&#xfe;" horiz-adv-x="1187" d="M51 1247v41q75 10 322 64v-592h4q107 141 278 141q200 0 327.5 -133.5t127.5 -335.5q0 -124 -56 -229t-158 -167.5t-228 -62.5q-89 0 -158.5 28t-136.5 89v-397q0 -105 4 -126q9 -51 57 -68q33 -12 96 -15v-41q-38 1 -113.5 4t-113.5 4q-41 -1 -123 -4t-123 -4v41 q27 2 47.5 5.5t35.5 9t25 13t17 17.5t10.5 23t5 28t1.5 33.5v40.5v27v1253q0 196 -11 248q-3 14 -8.5 24t-10 17t-15 12t-16 7.5t-20 3.5t-20 1h-24h-23.5zM373 344q0 -50 1.5 -80t12 -74.5t31.5 -68.5q34 -40 88 -61t112 -21q64 0 114.5 24t82 63t52.5 92.5t29.5 107.5 t8.5 112q0 76 -13.5 142t-43.5 126t-87.5 95t-137.5 35q-65 0 -120 -31t-87 -86q-20 -35 -30 -76.5t-11.5 -70t-1.5 -83.5v-145z" />
<glyph unicode="&#xff;" horiz-adv-x="860" d="M-31 842v41q35 -1 104.5 -4.5t104.5 -4.5q39 1 116 4.5t116 4.5v-41q-6 -2 -31 -6t-43.5 -9t-34.5 -19.5t-16 -37.5q0 -45 84 -246l131 -313l153 369q58 142 58 190q0 26 -20.5 43t-43 22.5t-49.5 6.5v41q27 -1 79.5 -4.5t78.5 -4.5q22 1 67 4.5t68 4.5v-41 q-25 -1 -42 -7t-28.5 -20.5t-18 -26.5t-16 -37.5t-16.5 -39.5l-27 -60l-426 -983q-1 -2 -10 -23.5t-13 -30t-14.5 -31t-17.5 -34t-18.5 -30.5t-22 -29.5t-23 -21.5t-26 -16t-27.5 -5q-26 -6 -43.5 10t-17.5 39q0 32 19 54.5t43 33t52.5 27.5t41.5 37q27 41 92 188l78 174 l-289 674q-34 85 -60 115q-14 15 -43.5 29t-48.5 14zM217 1245q0 42 31.5 71.5t73.5 29.5q40 0 72 -30t32 -71q0 -45 -30 -76.5t-74 -31.5q-45 0 -75 31.5t-30 76.5zM498 1245q0 42 31.5 71.5t72.5 29.5q42 0 73.5 -30t31.5 -71q0 -45 -30 -76.5t-75 -31.5q-44 0 -74 31.5 t-30 76.5z" />
<glyph unicode="&#x152;" horiz-adv-x="2048" d="M86 657q0 205 89.5 363.5t250.5 245t367 86.5h155q57 -1 170.5 -4.5t169.5 -4.5q82 1 280 4.5t320 4.5v-301h-47q-7 45 -17 79.5t-26 60t-31 43.5t-41 29.5t-46.5 18t-58.5 10t-65.5 4t-76.5 0.5h-148q-47 -4 -50 -9.5t-3 -72.5v-491q82 -3 141.5 8.5t94 32t56.5 56.5 t30 70.5t12 84.5h47q-4 -190 -8 -279q4 -82 8 -254h-47q-6 46 -18 80.5t-26 58.5t-38 40t-46.5 25.5t-59 14.5t-67 6t-79.5 1v-336q0 -50 0.5 -74t9.5 -67.5t27 -65.5q62 -79 262 -74q72 1 119.5 6.5t97 22t79.5 45.5t52.5 79t30.5 122h47l-18 -330q-132 1 -364 4t-333 4 q-90 -1 -269 -4t-269 -4q-291 -7 -477.5 181t-186.5 480zM342 698q0 -76 5 -141t18.5 -133.5t35.5 -123t57.5 -104t83 -82.5t114 -52t147.5 -19q56 0 99 12t70.5 34t47.5 51.5t28.5 65.5t14 76.5t5 83t-0.5 85.5v47v497q-3 78 -14.5 129.5t-40 95.5t-81 64.5t-132.5 20.5 q-457 0 -457 -607z" />
<glyph unicode="&#x153;" horiz-adv-x="1720" d="M82 440q0 194 138 327.5t335 133.5q107 0 207.5 -40t157.5 -118q67 74 158.5 116t191.5 42q102 0 186 -36.5t137.5 -111t53.5 -175.5q0 -29 -39 -29h-588q-1 -21 -4 -55t-4 -48q0 -68 20 -137.5t57.5 -131t100 -100t139.5 -38.5q41 0 74.5 9t67 32.5t50.5 38.5t56 53 l41 -33q-135 -166 -348 -166q-215 0 -350 166q-143 -166 -361 -166q-205 0 -341 132.5t-136 334.5zM287 428q0 -408 270 -408q50 0 89.5 14.5t65 36.5t44.5 58t28.5 69t15 80.5t6.5 81.5t1 82q0 50 -3 91.5t-11 92t-25.5 88.5t-43.5 71t-67.5 51t-95.5 18q-274 0 -274 -426z M1022 604h362h14h13t10.5 0.5t10 1.5t7.5 2.5t6.5 4.5t4.5 7t3.5 9.5t1.5 13t1 16.5q0 91 -51 143t-143 52q-97 0 -163 -75.5t-77 -174.5z" />
<glyph unicode="&#x178;" d="M-137 1305v47q46 -1 139 -4.5t139 -4.5q48 1 144.5 4.5t144.5 4.5v-47q-94 0 -126 -19q-27 -18 -28 -47q0 -11 1.5 -21.5t5.5 -22.5l6.5 -19.5t9 -21.5t9.5 -19t11.5 -20.5t10.5 -18.5l266 -494l131 209q203 340 203 408q0 13 -3 23.5t-10 18.5t-13 14t-18 10t-19 7 t-22.5 5.5t-21.5 3.5t-22 2.5t-19 1.5v47q37 -1 109.5 -4.5t109.5 -4.5q34 1 100.5 4.5t100.5 4.5v-47q-41 -3 -72.5 -17t-57 -41t-41 -49.5t-39.5 -63.5q-5 -8 -7 -12l-354 -585v-273q0 -43 0.5 -65.5t4 -48.5t7.5 -37.5t16 -25.5t23.5 -18.5t37 -11t49 -9t65.5 -5.5v-47 q-51 1 -154 4t-154 4q-52 -1 -156.5 -4t-156.5 -4v47q42 3 66.5 5.5t49.5 9t37 11.5t24.5 18.5t16.5 25.5t8 37.5t4.5 48.5t0.5 65v254l-189 326q-3 5 -38 72t-69 129.5t-75.5 130t-66.5 92.5q-12 14 -27 21t-26.5 9t-32 3.5t-33.5 3.5zM426 1714q0 42 31 71.5t73 29.5 q40 0 72.5 -30t32.5 -71q0 -45 -30.5 -76.5t-74.5 -31.5q-45 0 -74.5 31.5t-29.5 76.5zM707 1714q0 42 31.5 71.5t72.5 29.5q42 0 73 -30t31 -71q0 -45 -29.5 -76.5t-74.5 -31.5q-44 0 -74 31.5t-30 76.5z" />
<glyph unicode="&#x2c6;" horiz-adv-x="860" d="M135 1085l234 301h112l226 -301h-64l-219 164l-227 -164h-62z" />
<glyph unicode="&#x2dc;" horiz-adv-x="860" d="M135 1180q13 70 65.5 125t121.5 55q15 0 29 -2t32 -7.5t26 -8.5t30.5 -12.5t25.5 -10.5q7 -3 29 -11.5t34.5 -13.5t31 -9.5t32.5 -4.5q51 0 72 72h53q-7 -67 -55 -125q-55 -62 -117 -62q-10 0 -21 1t-19 2.5t-20 5t-18.5 5.5t-20 7t-18 6.5t-19.5 8t-18 7.5 q-97 41 -129 41q-48 0 -72 -69h-55z" />
<glyph unicode="&#x2000;" horiz-adv-x="927" />
<glyph unicode="&#x2001;" horiz-adv-x="1855" />
<glyph unicode="&#x2002;" horiz-adv-x="927" />
<glyph unicode="&#x2003;" horiz-adv-x="1855" />
<glyph unicode="&#x2004;" horiz-adv-x="618" />
<glyph unicode="&#x2005;" horiz-adv-x="463" />
<glyph unicode="&#x2006;" horiz-adv-x="309" />
<glyph unicode="&#x2007;" horiz-adv-x="309" />
<glyph unicode="&#x2008;" horiz-adv-x="231" />
<glyph unicode="&#x2009;" horiz-adv-x="371" />
<glyph unicode="&#x200a;" horiz-adv-x="103" />
<glyph unicode="&#x2010;" horiz-adv-x="491" d="M0 391v137h494v-137h-494z" />
<glyph unicode="&#x2011;" horiz-adv-x="491" d="M0 391v137h494v-137h-494z" />
<glyph unicode="&#x2012;" horiz-adv-x="491" d="M0 391v137h494v-137h-494z" />
<glyph unicode="&#x2013;" horiz-adv-x="1024" d="M0 391v137h1024v-137h-1024z" />
<glyph unicode="&#x2014;" horiz-adv-x="2048" d="M0 391v137h2048v-137h-2048z" />
<glyph unicode="&#x2018;" horiz-adv-x="614" d="M180 1083q0 73 29.5 133t70.5 97.5t109 83.5l27 -35q-46 -39 -67 -59.5t-46 -54t-33 -70t-6 -84.5q33 26 68 26q45 0 74.5 -33t29.5 -77q0 -46 -35.5 -76.5t-81.5 -30.5q-64 0 -101.5 57t-37.5 123z" />
<glyph unicode="&#x2019;" horiz-adv-x="614" d="M180 1290q0 46 35.5 76.5t81.5 30.5q64 0 101.5 -57t37.5 -123q0 -73 -29.5 -133t-70.5 -97.5t-109 -83.5l-26 35q45 39 66.5 59.5t46 54t32.5 70t6 84.5q-32 -26 -67 -26q-45 0 -75 33t-30 77z" />
<glyph unicode="&#x201a;" horiz-adv-x="614" d="M180 88q0 46 35.5 76.5t81.5 30.5q64 0 101.5 -57.5t37.5 -123.5q0 -106 -52 -174.5t-157 -138.5l-26 35q45 39 66.5 59.5t46 54t32.5 70t6 84.5q-34 -27 -67 -27q-45 0 -75 33.5t-30 77.5z" />
<glyph unicode="&#x201c;" horiz-adv-x="819" d="M106 1083q0 73 29.5 133t70.5 97.5t109 83.5l27 -35q-46 -39 -67 -59.5t-46 -54t-33 -70t-6 -84.5q32 26 68 26q45 0 74.5 -33t29.5 -77q0 -46 -35 -76.5t-81 -30.5q-64 0 -102 57t-38 123zM457 1083q0 73 29.5 133t70.5 97.5t109 83.5l26 -35q-45 -39 -66.5 -59.5 t-46 -54t-32.5 -70t-6 -84.5q32 26 67 26q45 0 75 -33t30 -77q0 -46 -35.5 -76.5t-81.5 -30.5q-64 0 -101.5 57t-37.5 123z" />
<glyph unicode="&#x201d;" horiz-adv-x="819" d="M106 1290q0 46 35.5 76.5t81.5 30.5q64 0 101.5 -57t37.5 -123q0 -56 -15 -102t-45.5 -84t-64 -66t-83.5 -62l-27 35q46 39 67 59.5t46 54t33 70t6 84.5q-32 -26 -68 -26q-45 0 -75 33t-30 77zM457 1290q0 46 35 76.5t81 30.5q64 0 102 -57t38 -123q0 -73 -29.5 -133 t-70.5 -97.5t-109 -83.5l-27 35q46 39 67 59.5t46 54t33 70t6 84.5q-33 -26 -68 -26q-45 0 -74.5 33t-29.5 77z" />
<glyph unicode="&#x201e;" horiz-adv-x="819" d="M106 88q0 46 35.5 76.5t81.5 30.5q64 0 101.5 -57.5t37.5 -123.5q0 -56 -15 -101.5t-45.5 -83.5t-64 -66t-83.5 -62l-27 35q46 39 67 59.5t46 54t33 70t6 84.5q-34 -27 -68 -27q-45 0 -75 33.5t-30 77.5zM457 88q0 46 35 76.5t81 30.5q64 0 102 -57.5t38 -123.5 q0 -106 -52 -174.5t-157 -138.5l-27 35q46 39 67 59.5t46 54t33 70t6 84.5q-34 -27 -68 -27q-44 0 -74 33.5t-30 77.5z" />
<glyph unicode="&#x2022;" horiz-adv-x="942" d="M119 698q0 146 105 247.5t253 101.5q141 0 243.5 -102t102.5 -247q0 -146 -104.5 -248t-253.5 -102q-140 0 -243 102.5t-103 247.5z" />
<glyph unicode="&#x2026;" horiz-adv-x="2048" d="M225 88q0 47 32.5 83t78.5 36q49 0 86 -32t37 -81t-33.5 -85t-83.5 -36q-47 0 -82 34t-35 81zM907 88q0 47 32.5 83t78.5 36q48 0 85.5 -32t37.5 -81t-33.5 -85t-83.5 -36q-47 0 -82 34t-35 81zM1589 88q0 47 32.5 83t78.5 36q48 0 85.5 -32t37.5 -81t-33.5 -85 t-83.5 -36q-47 0 -82 34t-35 81z" />
<glyph unicode="&#x202f;" horiz-adv-x="371" />
<glyph unicode="&#x2039;" horiz-adv-x="655" d="M147 453q126 106 187 159l121 115q2 1 10 9t15.5 13t13.5 5t11 -5.5t5 -11.5q0 -21 -39.5 -75.5t-73.5 -94.5l-94 -114l90 -113q115 -145 115 -176q0 -8 -6 -14.5t-13 -6.5t-15 5.5t-17 14.5l-11 11z" />
<glyph unicode="&#x203a;" horiz-adv-x="655" d="M145 168q0 21 39.5 75.5t73.5 94.5l94 115l-90 112q-115 145 -115 176q0 8 6 14.5t13 6.5t15 -5.5t17 -14.5l11 -11l299 -278q-58 -49 -186 -160l-121 -115q-1 -1 -9.5 -8.5t-16 -12.5t-13.5 -5t-11.5 5t-5.5 11z" />
<glyph unicode="&#x205f;" horiz-adv-x="463" />
<glyph unicode="&#x2122;" horiz-adv-x="2007" d="M70 1200v197h692v-197h-47q0 89 -33 117.5t-125 28.5h-84v-646q0 -63 23 -77q21 -13 106 -13v-41h-373v41q86 0 107 13q22 13 22 77v646h-84q-92 0 -124.5 -28.5t-32.5 -117.5h-47zM901 569v41q60 2 74 9q24 14 24 59v606v17q1 41 -9.5 48t-71.5 7v41h223l264 -631 l270 631h230v-41q-2 0 -22.5 0.5t-28.5 -0.5t-22 -4t-20 -11.5t-6 -21.5v-612q0 -62 16.5 -77t82.5 -20v-41h-318v41q69 3 87 17t18 78v610h-4l-308 -746h-16l-309 746h-4v-635q0 -45 24 -57.5t78 -12.5v-41h-252z" />
<glyph unicode="&#x25fc;" horiz-adv-x="880" d="M0 0v881h881v-881h-881z" />
<glyph unicode="&#xfb01;" horiz-adv-x="1228" d="M59 782v56h148v106q0 223 105 327.5t331 104.5q40 0 77.5 -3t86.5 -13.5t84.5 -27.5t60.5 -49t25 -75q0 -36 -27 -59t-63 -23q-38 0 -56 21t-24.5 50.5t-18 59.5t-50 51t-107.5 21q-57 0 -100 -12t-70 -38t-43.5 -54.5t-24 -74t-10 -83t-2.5 -94.5v-135h352q148 0 289 30 v-626q1 -17 1 -46t0.5 -41t3 -33t8 -29.5t15.5 -21t25 -17.5t37.5 -10t52.5 -7v-41q-38 1 -112.5 4t-112.5 4q-40 -1 -119 -4t-119 -4v41q99 6 121 37t24 125q1 20 1 30v398q0 16 0.5 41t0.5 34t-1.5 25.5t-3.5 21t-7.5 13.5t-13 10.5t-19.5 5t-26.5 4t-36.5 0.5h-360v-540 v-46.5t0.5 -40t3.5 -34t8.5 -28t15.5 -22t25.5 -16.5t37.5 -11.5t52 -6.5v-41q-38 1 -112.5 4t-112.5 4q-39 -1 -116.5 -4t-116.5 -4v41q52 3 81 12.5t41.5 32t15.5 45.5t3 71v31v553h-148z" />
<glyph unicode="&#xfb02;" horiz-adv-x="1269" d="M61 782v56h152v133q18 405 414 405q82 0 178 -26l252 26v-1132q0 -15 -0.5 -42.5t-0.5 -38.5t1.5 -31t5 -28.5t10 -21.5t16.5 -18.5t25 -12.5t35 -10t47 -4v-41q-31 1 -108 4t-119 4q-38 -1 -115 -4t-115 -4v41q23 2 41.5 5t32.5 5.5t24.5 10.5t17.5 12t12 17.5t8 19 t4.5 24.5t2 27t1 34t0.5 37v815q0 76 -8.5 123.5t-33 87t-73 57t-125.5 17.5q-67 0 -115 -17.5t-75 -45t-42 -74.5t-19.5 -92t-4.5 -111v-151h262v-56h-262v-538v-54t1 -45.5t5 -37t13 -29t24.5 -21t39.5 -13.5t58 -7v-41q-38 1 -112.5 4t-112.5 4q-39 -1 -116.5 -4 t-116.5 -4v41q27 2 47.5 5.5t35.5 8.5t25.5 12.5t17.5 17.5t10.5 22.5t5 27.5t1.5 33.5v39.5v25v553h-152z" />
</font>
</defs>
</svg>
